/* XPM */
static char *_709857781928[] = {
/* columns rows colors chars-per-pixel */
"80 81 122 2 ",
"   c #B46E0E",
".  c #BC7B0D",
"X  c #B67414",
"o  c #BC7613",
"O  c #BE7B13",
"+  c #B7741B",
"@  c #B8771D",
"#  c #BD7A19",
"$  c #B97721",
"%  c #C17E0B",
"&  c #C27C15",
"*  c #C47E1A",
"=  c #C4830D",
"-  c #CB8B0E",
";  c #CE940C",
":  c #C48213",
">  c #CA8516",
",  c #CD8B15",
"<  c #C58219",
"1  c #CB851C",
"2  c #C78C18",
"3  c #CD8B1B",
"4  c #D18E16",
"5  c #D28D1C",
"6  c #CE911C",
"7  c #D39315",
"8  c #D99516",
"9  c #D69B13",
"0  c #DB9A16",
"q  c #D5931C",
"w  c #DA951D",
"e  c #D69B1C",
"r  c #DC9A1C",
"t  c #E29D14",
"y  c #E19D1D",
"u  c #DBA214",
"i  c #DEA21C",
"p  c #E0A20F",
"a  c #E5A80F",
"s  c #E3A116",
"d  c #E7AA14",
"f  c #E9AB16",
"g  c #E4A31D",
"h  c #E8A61E",
"j  c #E6AA1C",
"k  c #EBAC1E",
"l  c #F0AF1E",
"z  c #EDB017",
"x  c #E7B01C",
"c  c #EDB21C",
"v  c #F2B715",
"b  c #F2B51E",
"n  c #F3B91D",
"m  c #F9BD1E",
"M  c #C68221",
"N  c #CB8523",
"B  c #CE8922",
"V  c #CB8428",
"C  c #CF8A29",
"Z  c #D38E23",
"A  c #D28C2B",
"S  c #D69222",
"D  c #DB9523",
"F  c #D49922",
"G  c #DE9A23",
"H  c #D6922A",
"J  c #DB952A",
"K  c #DE9A2A",
"L  c #D48D33",
"P  c #DD9731",
"I  c #DE9A35",
"U  c #E29D23",
"Y  c #E29D2A",
"T  c #E29B32",
"R  c #DDA224",
"E  c #DFA02E",
"W  c #E5A224",
"Q  c #E9A525",
"!  c #E6A923",
"~  c #ECAB24",
"^  c #E6A22A",
"/  c #EAA52A",
"(  c #E4AA2A",
")  c #EDAB2A",
"_  c #F1AE25",
"`  c #F1AD2A",
"'  c #E6B125",
"]  c #EEB123",
"[  c #ECB824",
"{  c #EEB22B",
"}  c #F3B325",
"|  c #F8B626",
" . c #F5B924",
".. c #F9BC25",
"X. c #F4B42A",
"o. c #F9B62C",
"O. c #F5BA2B",
"+. c #FABC2C",
"@. c #E5A232",
"#. c #EBA531",
"$. c #EDAC32",
"%. c #F2AD32",
"&. c #EDB332",
"*. c #F4B532",
"=. c #FAB531",
"-. c #F5BA31",
";. c #FBBC32",
":. c #F7B43A",
">. c #FDBD3A",
",. c #EEC219",
"<. c #F4C31D",
"1. c #FAC01E",
"2. c #F6C425",
"3. c #FCC224",
"4. c #F7C42B",
"5. c #FDC32C",
"6. c #FFC92D",
"7. c #FEC333",
"8. c #FFCA33",
"9. c #FEC339",
"0. c #FFCB3B",
"q. c #FFC042",
/* pixels */
"U ^ / / ^ y U W W Q U y Q / U / / y U Q y U U / / / U U U ^ / Q Y U / / U U Q y y U Q Q U U W W U Q U U U Q Q U Y Y U / U U U U Y / U U ^ / U U Q r U Q W g ~ Q ",
") Q h W / / Q U / ` / Q Q Q Q U / Q _ / Q U Q Q Q Q Q ` _ Q Q y / Q Q U Q / ` ` Q Q Q ^ Q Q Q W Q Q Q Q Q Q Q Q ` U Q Q Q _ ` ` y Q / Q U Q Q y ` Q Q ) Q Q Q _ ",
"l } _ ~ _ ` ) Q Q Q Q ) Q Q _ Q Q Q / ` _ Q _ ~ h Q Q h h Q ~ ~ _ ~ ~ _ Q Q / U Q ) Q Q ) ` ) Q Q ~ ` ` Q Q Q ) _ h h _ _ Q h y y ~ ~ _ ~ Q ~ Q k h Q _ ` ` %.` ",
"} o.o.| _ _ ~ ~ _ Q ~ _ ~ Q Q _ ^ Q ) ) Q h ~ ~ _ _ X.} o._ _ ~ k k k k k _ Q ` ` ` _ ~ Q ` _ ~ ` Q ~ ` ~ Q ~ X._ h h l l k _ | o.o.X._ | _ _ _ k k _ } ` / ` / ",
"y W Q Q _ | o.| } ~ ~ _ l ~ _ } ` ` _ ) ~ _ _ _ o.X.X.o.o.=.;.;.+.O.| _ _ _ _ _ o.o._ h h k ~ } _ _ ~ } _ ~ ~ o.f b O.+.o.o.X.o.` _ _ X.o.=.=.o.+.+.o._ Q U y q ",
"4 5 q y y Q o.;.O.} | O._ } } X._ } } } o.;.o.-.%.` Q y y y W Q X.*.o.O.o.o.} X.l _ } } _ _ } | } } } } } | | O.o.o.;.;.o.Q U Q r y y g U Q ` %.` ` Q y r q q q ",
"K D D U U r y Q O.+.+.| +.| } k n ....O.+.;.` ) w w w w G w w w r W Q { o.+.+.+.b } ..+.+.| | | | | O.| +.+.O.} ;.;.) g i w 8 G w w w w r q 8 U U U w q w U y U ",
"@.Y S Y Y Y w w p k }  .5.7.5.+.3.6.+.O.-.) y 7 Y D D Y Y Y Y Y G U 8 0 g f b 5.7.+.| +.+.| }  .O.+.+.5.5.7.| b W U 8 q ^ G D G U G D U Y U U Y Y Y Y D U U U U ",
"/ U U U Q U U U y U U r Q =.=._ %.%.#.U y w y Q Y / / U U U r U U U U ^ U y D U Q Q X.;.8.6.3.3...6.8.+.{ ) ! w w U Y U U U U U y / / Y Y U y U U U / U / / / U ",
"U U U Q U U Q ) Y Y ^ U U y y w 0 0 y y y y U g U Y / U U ^ Q / U U ^ / / U U / U y g h h f c } ] g 0 8 0 W U R U ^ / / ^ / Y U U Y / Y / / U U U U U / / / U U ",
"U ~ Q Q U g Q Q / ^ ^ ) / ^ Y / ~ ~ W g Q Q Q ^ U U U Q Q / Q Q U U Q / / Q Q / U Q / g y y Q _ W G W ( ) / Q Q ~ Q g g j Q _ U Q Q W y Q _ Q Q Q / / / Q / U U ",
"U _ ` Q y Q W Q ` Q y Q ` ~ ~ _ ~ W h W ` ) / #.h y Q ~ Q Q Q ^ _ Q U ` / Q Q Q y / ` / / U U Y ( W U ! ) ! ) *.;.;.O.[ O.} c f g g ~ ~ h Q Q Q Q Q Q Q / Q ` U ",
"h Q _ Q Q ~ ~ W { ~ j ! } c f f } [ } ] ] { { ] _ h ~ _ ~ Q ` Q ` U Q Q _ Q Q Q Q Q Q Q / #.#./ } k k ~ O.=.&.Q K J D R ( { O.O.} ~ ~ k ~ ~ ` / Q Q Q Q _ Q Q U ",
"_ ~ ~ ~ ) } } ~ f [ O.O.+.7.7.7.+.4.O. .c f z c } } k ~ ~ Q { X.` _ Q h _ h Q _ ` _ ) Q ` =.` / a b 5.+.) U , % + X X X . < F @.9.-.~ b } ) ` %.` Q Q _ ` _ _ _ ",
"X.} } } X.X.} } 7.9.7.&.( E K E R R ) &.O.7.7.7. ...} } } j ) ` o._ ` Q _ _ _ _ o._ _ } ` _ _ k o.;.*.W , : : < C C V N * # o # D #.X.o.+.c Q ` =._ _ _ _ ` ` _ ",
"} } ~ O.o.o.-.7.[ i 7 = . X $ $ @ # # < 2 F R W ..5.+.+.;.] ~ ~ o._ _ _ ` o.o.` _ _ ~ | } } | +.q.( , % & C A L , , w D K Z N N   > q } 8.+._ | o.` _ _ _ o.o.} ",
" . .4.7.*.&.$.E * * 8 5 D 5 D D * * * * * * * * 5 U U o.;.5.m v b m } } } | o.O.o.| } b b ....m D 5 5 D * D D U D * * D * * U Y H 1 & : q Q ;.9.+.+...b c n  ...",
"7.O.{ ~ F e 6 2 D D D D D D U * J #.J J * Y * * & & & 4 r ` ;.9...5.5...}  .}  .c n +.7.+.o.~ 0 5 5 5 Y D D D * * / U U / U Y * 5 Z J Z > - 8 g } 4.7.9.9.7.5.4.",
"R r w q 4 5 S S D D D U D D D D D Y Y Y * Y / D H A A * > 1 q Y O.;.8.7.5.3.3.4.3.3.5.-./ G Z 1 D D Z Y D D D Y U D D * * U / * D Y Y J J S 7 5 7 r W ! { { X.{ ",
"G D D q S w G G D D U U D D D U t D * t U D U U J T T J Z 3 1 3 9 r ( X.;.7.7.7.O.| k y 5 5 H P U U D D D D w U U / U D / D / / q S Y Y K K D D D S S w w w q q ",
"D D D G U U U D U U U U U U U ^ t w t U / w t D y w y U U J Y Y 3 2 S F U Q W i U w w w y U U Y w U U U U U w U U D w D U w U U 8 y U Y H D K Y K F D K K ^ G K ",
"Y Y U G U U U U U U / U y U U W U U U Q / U U U Q y y y U U U y @.K D S w w w w Y K Y U / U w y w U U U U U U / U t U / Q D t U Q U U D Y Y U y ^ Y U U W G U U ",
"g W g W ! ! U ^ U U U U y U U U / U U U U U U U h U y U U U U / / / ^ ^ U U Y / Y U U U U Q y U / Q / U w y U Q / U U Q U U U U y U U U U Y Q W / W W Q ^ g y W ",
"k ] ~ ! ) Q ^ ! U Q _ Q y U / Q U / / U U Y / U #./ / U U U / / t t h h h y Q ` h Q y U Q h U ` y y Q Q y Q / Q / Q Q U t U Q Q Q Q / U Q Q Q _ h W ~ O.} _ _ _ ",
"G Y Y Y Y %.%.%.` =.` ~ ~ ~ h j U U / / ) #./ ^ Q Q _ ~ h h k t y h ~ h g Q ~ g Q Q ~ Q Q / Q Q Q U Q / / / / ^ / / / / / / / y f f _ | _ ` X.Q @.^ T ^ K Y Y D ",
"1 , 3 > 1 5 5 4 U U W ! ) *.*.X._ Q Q h Q Q ~ Q ~ ~ Q ` / _ ` Q Q ) Q Q Q Q ` Q h Q Q _ ) ~ Q Q ` _ Q y U Q _ / Q Q Q Q ` _ ` o.o.` ` ` U r w q Z > 3 > & > 1 > ",
"Z 5 5 5 5 5 4 4 , > , 7 q W $.$.O.o.l l j k ] [ ` Q / ` %./ %.%.) _ ` / Q ` ) Q Q k Q _ Q _ Q U _ | _ l _ _ _ ~ h _ | o.o.` _ Q U Z 5 Z 3 1 C A Z 3 Z Z Z Z Z 3 ",
"J Z S S D D Z Z S Z S S 3 3 q , g _ o.o.4. .k j l l _ ` ` ` _ Q ` ` ` / ` ` ` ~ _ _ _ _ o.` ` ` l _ _ h l o.o._ o.o.` _ U y 8 4 5 Z * Z Z Z Z Z S Z Z Z D S Z 3 ",
"D Z Z Z D D S 5 S Z H J S q F S > 6 K ( &.-.+.;.| | b k l } ~ k =.o.` ~ _ ` ` o.X.| _ l _ _ ` _ l _ | o.+.;.-.O./ U y 5 q 5 Z Z w D D w Z J Z Z Y K S Z D D D Y ",
"Y Y Y D U D U U D S D D S S D D H Z 3 > 7 G $.=.+.+...} ..| .. .` | } ~ _ _ | o.} } _ } _ } o.O.>.9.;.o.X.Q y 0 5 4 5 U Y J J Y w w w 4 w U y w D D D S D S S D ",
"Y U Y U w w U Y D F D R W W G R ^ U G U D 5 4 > ! $.{ -.7.7.4...b } .. .|  .l | } ..+.+.+.7.7.7.*.) r r 8 q y U Y U Y Y Y U J D Y Y w w U U U y w U U U Y U G G ",
"Y Y U U U U U / ^ W r w R r r W g r y y ^ U G U 3 6 6 R { -.4.9.2.6.6.6.6.6.3.5.8.8.8.4. .k j j q 7 q G Y U U Y Y U y U U U y y T Y J U T U U Y 8 U U U U U y ^ ",
"! W g ! j g j j ] ! W ( W i g W ^ Q Q U ^ / Q ^ W U U 8 4 7 w G ( :.*.&.*.q.9.' &.{ R R G q Z Y / #.^ W / W G / i ) ! W ^ W G ^ U W U W W Q U ^ U / ^ G G / ^ r ",
"R W ~ { *.*.*.*.] ] ] X.{ ] ! ~ Q ~ ) Q g g Q Q g Q ^ W U G U G 7 8 q 7 7 u e ; q e e i ! W ! } ! Q ( ) ] ( ! ( W Q ! g ! / / ) ^ ! W U U U ! Q ^ Q ! i W Q ! W ",
";.{ { $.( / ^ ^ ! Q ~ } } [ ] ] h ~ _ ~ k _ ~ h ~ ` ) ) ) Q ) ) ) ` Q g g ! ! ! #.#.) ) { [ f x ] ' [ [ [ ! ' x f ~ ] ] ] ~ ! g ` ) ~ Q Q ~ ~ ) Q ~ ! W h ] | } ",
"! W D w 7 3 1 3 q w e r W Q ) } _ O.O.} k k c c ~ ~ ~ Q ~ ) Q ) ` Q ~ ~ ~ ] { X.` X.) _ X.O.[ [ 7.-.O.O.{ O.O.;.[ X.} ~ k k [ c ~ ~ { ) ~ ~ Q ~ } } ~ ] [ } } } ",
"7 7 7 q q Z Z Z H H Z S Z q w U ` O.;.o.] ] b } } ] } o.X.} ) ~ _ _ } O.O.} ~ } b | +.-.-.&.) ( R e e G e R ( ( ;.7.O.} ] [ b } ~ [ } X.} [ } } ] ] | O.+.o.[ k ",
"G w G U K K K Y H H H H D S S D , 0 ! *.9.9.+.] }  .O.X. .O.O.O.b } }  .O.O.X.X.7.5.+.o.( G F Z S 6 q S S q F D 9 ! -.9.9.7.O.c }  . .| } }  .+.z b O.;.-.} W r ",
"U G D D G w G U U G G Y Y G D D G S 3 7 i X.;.9. . . .} }  . .O.n n }  .O.4.7.O.-.R e e 7 q D T G G G G G D D D q e i R ( ;.0.0.b  . . .} b b  .4.5.O.} / W S 3 ",
"K D G U U U w r y y y U U y r U K E K w , 7 r ~ ..4.6.6.5.5.+.5.5.5.8.7.4.4.x u F 2 2 D K G U w G U G U W G w W K F F e 7 i ( ) 5.5.6.8.5.6.5.6...| f r w D K P ",
"G Y U U U U U y y / ^ G ^ Q U U U U / / U U y 4 e R W ' ;.8.7.4.9.;.{ ) G w w S 7 U ^ U U U Q y r W r U ^ ^ U U i r W W r 0 t y ( ( ( ) -.-.~ ! ~ r r G ^ ^ R ^ ",
"/ U U U U ` / U U Q W y U ^ W U ^ U U Y U / ` Y r G 7 7 r i i r i 8 e 8 w w G U Q Y Q U U Q U y Q ~ Q y y W W g #.^ ^ / Q ^ Q Q g ! h g g h j j ~ ~ ! ! W ! Q ) ",
"_ h y Q ` _ / Q Q / / / Q Q ) / / Q / / / / Q ^ ) %./ U W U D G G U G R W ^ / ) / U U ` ` / Q Q U Q ) ) Q ~ _ ~ ) / ) $./ ! / Q ~ ~ ] _ { { ) ) ) -.-.o.] ~ j f ",
"k k l _ ~ _ Q Q ~ Q Q _ Q h ~ ) Q Q Q ~ Q Q Q ~ Q Q ) ) ) ) ) / ) ( ( / ! Q Q Q ` Q ~ Q ~ ~ ~ ) ( ) ) ) W h ~ ~ W j Q ~ W W ) *.;.*.) U W G D e e D W W ~ ] ] k ",
"| O.| ~ h h _ o._ k _ _ ~ ~ _ _ ~ ~ ~ ~ ~ ~ { ] ] ] } } _ ` } X.{ $.) ) ~ Q ~ h X.` ~ h h h ] } } ~ } O.] ] } } c ] ] } O. .O.} U S 5 1 3 Z S Z 5 B 3 q D W ) *.",
"o.o.o.} l ~ } } o._ _ o._ _ } } _ } | |  .} ] X...4. .+. .[ } c X.X.} } X.} _ } ~ } } _ c ~ } | } m ......3.5...O.+.4.7.;.~ 0 0 3 Z Z Y H H H A K K H S S q G @.",
"W Q X.>.7.| } b | o.| | | } l } } | } } ..+.+.4.&.&.-.-.;.7.7.7. .3...} } | } | k ~ } O.o. . .| 7.+.] f ! ( ) ( X.*.) / r 6 > q D D Y Y U D U G e D D D w S w S ",
"w q W -.7.+.} m +.+.+.o.+.+.| | | +.+.4.7.+.b ] ( R i i u u ] } 1.3.3.2...+.+.o.;.| } O.+.+.O.+.) R 7 q D B M C S q 2 3 S H H I Y D G w r w y r r g r e w ^ Y w ",
"g 8 0 y Q ~ o.;.3.6.6.2.3.3.3.1.7.7.7.{ ( r G K w U Y U U U 5 w R R &.7.8.4.4.2.,.,.2.8.0.7.~ 9 > 5 U U r g U w w w q S D U y y G Q Y U U U w G U U U ^ Q U U U ",
"^ U U r y y y h ~ X.O.O.;.7.;.5.{ { ! g i R U U U ^ Y y U ^ U ^ e i i ( ' O.5.8.0.8.8.O.' i w q T @.U ^ W ^ / Y ! ^ ^ ^ Y ^ y t U Q U U U U ^ U U U U Q U U U U ",
"^ ^ / / ! ^ ) ) W G R #.$.( ! / ^ r 8 r W W Q h Q U U U U / ^ / R R r i r 0 y W ( R ^ R q q U / ^ ^ ^ Q ) Q ^ ^ W g G W ^ ^ Q U U y W ^ W Q / Q y ^ Q Q ^ W W ^ ",
"! ) ) Q ! W W W ( ^ W ( ) W W ( ) ) Q / ) / Q U Q U Q Q Q Q Q W W W ^ / ) / Q Y R ^ ^ ^ U W ^ Q ) Q h h ~ ~ j Q ] ! j W Q ) / / W y Q Q Q / ) Q Q Q Q / ~ Q Q Q ",
"s j ~ k ~ ] ] ~ } [ c k ] ] f k ~ ~ ` ` ` / %.` ) Q ~ ~ ) ` ) ~ ~ ) ` ` %./ / / ^ Q Q ` ~ ~ _ k f ] ] ~ [ } }  .] _ { ~ ~ ~ ) / / Q Q Q Q ) ) Q _ ~ ~ ~ ~ ~ ~ ~ ",
"} O.O.O.O.O.;.O.X.;.+.O.4.+.+...[  .} _ ` _ ` ` ~ _ ~ ~ ~ ~ ) } } Q Q Q Q Q / %._ ~ k _ k ] [ k } 4.7.-.o.O.O.O.X.[ [ ] ~ ~ ] ) X.~ ~ ~ Q ~ _ _ X.~ k ~ ~ _ ] ~ ",
"9.-.{ ~ Q R r w 8 W W R ! ( ~ { O.O.O.+.o.} } } } O.~ ] O.k ~ } o._ k k _ } _ X.| b _ | O.O.4.O.o.Q W G q q q e { -.o...} ] } } o.X._ ` } _ ~ X.O.} ~ k | O.O.} ",
"W w , 6 q q 3 6 B S B 3 > 3 2 D 9 u x } +.5.+...X.;.O.o.;.~ k } | _ } } | | n b } _ c O.-.4.-.' D 2 3 C C C C S - i [ 5.6...X.] _ o.o.o.;._ k | O.| ] } o.7.+.o.",
"D S D S q D D Y D J D J J J D U H Z 1 5 q U / :.O.7.5.+.m 3...b } | | | } } | | 2.v [ 7.>.$.J B 5 G U S D w S U F S 3 r &.0.8.4.b  .b b  ..... .v ..5.7.=.` / Y ",
"D D U K Y K D U S G U Y U J U Z K Y U S q 5 4 - 7 r Q } o.;.7.7.5.+.5... .......[ 7.0.;.8 = q @.q U D U U D D U K K G 8 9 W { 7.8.7.4.O.O.5.7.7.5.+.O.~ y y w 8 ",
"U D U U U G r G U U U U U U U Y U Y Y U Y U U w q 5 q D U W / >.7.4.5.7.8.8.6.6.9.*.! e 6 , w K U U U w U U U U D U / U 8 8 R ! O.o.7.9.7.>.-.X.~ ! i 8 w y U U ",
"U U U U U U U U U U U Y Y U U U U ^ U U U U U Q #.Y D G 5 - - 8 u j ~ [ O.O.O. .^ G 6 , 7 D G G U U U U U U Q U U U U ^ Y U U U 7 r W W g y r 0 D F w U U Y / U ",
"U U U Q ^ U Q W y Q ) Q Q Q W ! Q Q Q Q Q Q g U y y W Q y y y y 7 q q 8 i e e 7 , q S w G U / U U U Q Q U Q y y Q Q U Q ^ / Y / ^ W W r r W ! Q ^ / ^ / Y / U U ",
"Q h Q Q Q Q Q W k Q ~ ! Q ! ~ { l h h _ ` Q Q / h ~ Q h h Q ~ Q ( ^ ^ U G R G R R G R W / ` ` y Q ~ Q ~ Q Q ` h Q U _ Q Q Q Q Q Q ~ ~ Q Q Q Q Q &.( / / Q Q ` / ",
"Q Q h ~ ~ ` ~ Q _ _ ] ~ j { } O.} _ k k h Q Q _ h _ k ~ Q ~ _ Q %.*.%.` ` _ ` ` ) ) X._ _ ~ _ _ ` _ ~ ~ y h _ ` ` Q Q ~ ~ ~ h ~ _ _ _ ~ ~ } _ ~ ` _ ) ~ Q Q Q ` ",
"_ _ ~ ~ ~ _ ` _ ~ } +.;.;.O.X.O.+.+.o._ _ } o.` ` ` _ Q ` ` %.` Q _ _ _ _ l _ } | } ~ _ _ _ _ _ _ _ X.` _ _ ` _ ` ` _ ~ ~ f k } _ _ } } o.o.o.} l l } } _ _ _ _ ",
"} X.*.O.O.} ] } +.+.;.` Y Z N V S G { 7.7...[ [ _ _ o._ _ | ` _ f [  . .}  ... .3.5.6.6.5.6.......} ] } } } [ | ! { X.X.O. . .b 7.5.O.] k } +.+.+.O.} [ X.-.{ ) ",
"} } b c }  .O.;.=.` q % . & * * & & 2 i O.7.4. .o.O.+.;.o.o.o.|  .} } X.;.9.:.X.^ R G G / ( $.*.7.7.7.7.7.+. . ...b c c ..5.7.5.@.D 3 = . = 3 S ] +.7.X.~ o.O. .",
"3.2...5.7.7.X.~ Y Z * * N C C V B N < : q { 7.0.+. .b b b b | ..O.7.7.>.&.G S 2 < O . O O O O & 7 e G ! X.-.7.7.6.6.+.7.7.-.W ; # X # N M M M N - r ) ;.7.8.3.n ",
"7.5.7.7.O.Q 9 - * * Z J Z Z H N B H H B : , g ` 6.6.3.6.3.6.6.6.7.-./ w > > < N S A S D H Z Z 3 o # & & < 5 S Z y W / Y D B & o < < B A H S B C 3 > , 8 ) +.+.+.",
"~ Q U 8 q 3 5 3 Z Z D w > > 8 5 6 B H H Z 1 , 4 j [ +.7.9.7.O.x Y w , > 5 S H H q 3 5 5 q q 5 5 P J H B N N N * & & * * + * * C D D S S S D S 3 K H Z > , D ^ / ",
"4 4 q 5 5 Z H T w w D w y y U y G w 5 D Y D S D > S D S G E S 6 D D D D q q D K D K D S Z D Z D q q w D G D D S Z Z Z Z H H H D D D S q D J D S Z K Y H Z 5 Z Z ",
"G G U Y Y D D K D D D w U D y y G G r y U U U D K D 5 5 S K D K S D K U G D w w D S D D D G D U w w w U U ^ U U U U U U Y U w r G G D q D D D D G S D G G D w U ",
"Y U U G w U U Q D Y J J Y Y Y T Y U U y y y U y ^ U U U ^ U G U D G U ^ U U G W W ^ ^ y w r U ^ Y K D G U y U W U U y U U U y G y G 8 U ! W 8 W q U U W W U y y ",
"^ Y Q ^ ! U U W Q ~ y h Q U y U U / Q y Q Q y h W ^ ^ W g W W ! g ! W R R / ^ G Y Y ^ / / Y / @.^ ( j g ! j i ] j ! j j j h j j Y U U Y ^ Q U U Y / W D r ( ! r ",
") Q Q Q ~ W Q ~ Q U U Q / / / / / / / Q Q Q / / ! W Q Q W j k ~ ( ) ) ! ! ( ! W ~ Q Q Q / Q ^ ) W Q ) X.X.{ ~ { ) { X.*.X.` ! j ~ Q ` Q g U Q / Q / W W W ) ) W ",
") ) ) } { ~ j ! ` ` ` ` ` Q / Q U ` ` / / ` ) ) c } | O.o.} } X.X.-.O.X.} [ b } c f j c ~ k ] ] -.*.{ ( ^ G D q 6 q w G R ( *.:.O.} l h ~ Q ) ` ) ~ ! ! W ] } { ",
";.-.-.;.O.X.[ ] o._ _ ` h l } l _ _ _ ~ ~ _ o.o.O.o.O._ ! g G D W W ! } } } | 5.4. .O...O. .[ { ) W w w , 3 5 3 5 q 2 > 3 7 J ^ } | O.o.[ ~ ~ ~ } ] } } o.o.-.+.",
"! i ! { { [ O.;.+.| n | b b n b m | b m | +.+.o.` / U 8 5 5 5 Z 5 5 w G U W Q ~ { { { -.*.! i e e - 4 q w S J H D J D D S 3 q S 8 g ` ;.;.+.|  .+.+.;.;.-.} ! h ",
"7 7 ; 8 8 g W ) | } +.6.3.3.3.3.....5.+.5.+.| f 8 D D D D H Y T H D D D w 7 4 q G G G G G w w q G 8 D Y G K K Y D D Y Y Y G U Y 6 q y Q X.;.;.+.O.X.} ~ W r 8 7 ",
"^ K G w w q 8 G g W ~ X.+.;.5.7.9.7.+.` Q U y 4 w D J U Y U G w G G G U U D D S G 8 q w S D Y Y U G G D Y G G U ^ ^ G G G r w 8 w D w 8 q 8 y / W i r e 8 F D S ",
"D D K Y Y Y G U D G D w U g W Q W r y G q J Y Y U U y y w t y y y U U U ^ Y U G U U U W U U U U Y Y Y U U G 8 U G G G U U r U U Y U Y Y U U y 8 r r r G Y ^ K D ",
"G ^ ^ U U ^ / U U ^ U Y Y K U U G U U ^ ^ U ^ ^ W ^ y U ^ Q ^ U ^ U Y Y Y U Q Q ^ Q ^ U ^ U Q U U U U ^ ^ U U U U ^ U ^ ! U / U U ^ U U ^ U ^ U ^ ^ Y Y Y W W / "
};
