/* XPM */
static char *_709858040439[] = {
/* columns rows colors chars-per-pixel */
"80 80 256 2 ",
"   c #140C15",
".  c #280C1A",
"X  c #370A17",
"o  c #291518",
"O  c #3C1B1B",
"+  c #381618",
"@  c #2F0F09",
"#  c #38211B",
"$  c #36260F",
"%  c #150D29",
"&  c #390B25",
"*  c #291524",
"=  c #381926",
"-  c #2F0F2C",
";  c #3B2228",
":  c #36242F",
">  c #430A06",
",  c #49170A",
"<  c #57180A",
"1  c #441B1C",
"2  c #4C1D1C",
"3  c #471716",
"4  c #531D1C",
"5  c #5B1C1C",
"6  c #571815",
"7  c #540C13",
"8  c #66190A",
"9  c #771C09",
"0  c #631C1C",
"q  c #6B1C1D",
"w  c #671818",
"e  c #741C1C",
"r  c #79191A",
"t  c #6C090E",
"y  c #572609",
"u  c #4C231C",
"i  c #482419",
"p  c #54221C",
"a  c #5C231D",
"s  c #5C2A1C",
"d  c #572614",
"f  c #562D11",
"g  c #68270A",
"h  c #78260B",
"j  c #6A2414",
"k  c #63241D",
"l  c #6B251D",
"z  c #652B1D",
"x  c #6C2A1C",
"c  c #652713",
"v  c #73241C",
"b  c #7C241C",
"n  c #742B1D",
"m  c #7C2C1C",
"M  c #772714",
"N  c #6A3418",
"B  c #7C321C",
"V  c #763418",
"C  c #74340A",
"Z  c #481825",
"A  c #531C23",
"S  c #5C1D23",
"D  c #581828",
"F  c #451934",
"G  c #4F112A",
"H  c #641D23",
"J  c #6B1C23",
"K  c #661929",
"L  c #761B28",
"P  c #651A34",
"I  c #72122D",
"U  c #4B2122",
"Y  c #472527",
"T  c #542323",
"R  c #5C2322",
"E  c #5C232B",
"W  c #592927",
"Q  c #592535",
"!  c #4E2A2E",
"~  c #642423",
"^  c #6B2423",
"/  c #642A23",
"(  c #6C2B23",
")  c #64232A",
"_  c #6B242A",
"`  c #6B2B2B",
"'  c #652B2C",
"]  c #732423",
"[  c #7B2423",
"{  c #742B23",
"}  c #7B2C23",
"|  c #74242B",
" . c #7C2C2A",
".. c #78272A",
"X. c #6A3426",
"o. c #743222",
"O. c #7D3223",
"+. c #7C332B",
"@. c #75352A",
"#. c #672735",
"$. c #792934",
"%. c #783435",
"&. c #6C3435",
"*. c #7A4326",
"=. c #75441B",
"-. c #6A2846",
";. c #1A1243",
":. c #871808",
">. c #8F160E",
",. c #AC1606",
"<. c #852909",
"1. c #952907",
"2. c #8A3509",
"3. c #983508",
"4. c #832C14",
"5. c #83251D",
"6. c #832C1C",
"7. c #8B2B1C",
"8. c #892717",
"9. c #932C1C",
"0. c #972918",
"q. c #84331D",
"w. c #893618",
"e. c #94321B",
"r. c #9C341D",
"t. c #973917",
"y. c #A83807",
"u. c #B73606",
"i. c #A42C1B",
"p. c #A3331C",
"a. c #A93919",
"s. c #B53918",
"d. c #B0290C",
"f. c #871B28",
"g. c #921B2E",
"h. c #832523",
"j. c #832B23",
"k. c #8B2C24",
"l. c #832B2B",
"z. c #89282B",
"x. c #932D24",
"c. c #972928",
"v. c #843224",
"b. c #8C3323",
"n. c #83332B",
"m. c #8C3329",
"M. c #893B26",
"N. c #943324",
"B. c #9B3423",
"V. c #973829",
"C. c #872934",
"Z. c #972934",
"A. c #873634",
"S. c #973734",
"D. c #A72A27",
"F. c #B72D25",
"G. c #A33424",
"H. c #A63828",
"J. c #B53926",
"K. c #A53731",
"L. c #B33334",
"P. c #C73907",
"I. c #D73705",
"U. c #C83915",
"Y. c #D13512",
"T. c #E9390A",
"R. c #C83827",
"E. c #CC372F",
"W. c #C21A0A",
"Q. c #9B4519",
"!. c #934810",
"~. c #A94807",
"^. c #B94608",
"/. c #BB5507",
"(. c #A84719",
"). c #B74616",
"_. c #B65617",
"`. c #A7560F",
"'. c #B46814",
"]. c #8B4527",
"[. c #984526",
"{. c #984831",
"}. c #A64728",
"|. c #B84626",
" X c #B74532",
".X c #AE512B",
"XX c #B76A24",
"oX c #C84908",
"OX c #D74806",
"+X c #C95708",
"@X c #D85809",
"#X c #C74718",
"$X c #D74918",
"%X c #CA5717",
"&X c #D85617",
"*X c #E74905",
"=X c #E85709",
"-X c #FD5C02",
";X c #F85807",
":X c #E75917",
">X c #F75817",
",X c #EF4911",
"<X c #C76609",
"1X c #D76606",
"2X c #D97505",
"3X c #D76718",
"4X c #CD7215",
"5X c #EB6807",
"6X c #FE6402",
"7X c #FE6C02",
"8X c #FC640B",
"9X c #F76906",
"0X c #E77605",
"qX c #FE7301",
"wX c #FD7B02",
"eX c #F77807",
"rX c #E76917",
"tX c #F96816",
"yX c #E87618",
"uX c #F97615",
"iX c #C54A26",
"pX c #C75824",
"aX c #D1542B",
"sX c #EC5624",
"dX c #D56B29",
"fX c #E66A25",
"gX c #F07129",
"hX c #8C3042",
"jX c #BF3D43",
"kX c #D98806",
"lX c #D58D10",
"zX c #E88505",
"xX c #FE8402",
"cX c #F98806",
"vX c #E99705",
"bX c #FD9B03",
"nX c #FB9506",
"mX c #FD8614",
"MX c #FB9616",
"NX c #E98C17",
"BX c #FEA502",
"VX c #FEAA01",
"CX c #FAA70A",
"ZX c #FEB301",
"AX c #FEBB01",
"SX c #FAB708",
"DX c #FDA812",
"FX c #F1B00E",
"GX c #F28B2A",
"HX c #F1AD1D",
"JX c #FEC704",
"KX c #FFD301",
"LX c #FFD804",
"PX c #FEC715",
"IX c #F5D312",
"UX c #FEEE03",
/* pixels */
"T R s k a R R E J 0 M 7.M s / $.M e aXu.4.o.q.n z / z ~ / l k d W J e s u w ^.5XI K ' ` ..[ l (  ...$. .k.j.` #.y R i.t.$ F Q d u k ~ & V.2.o = 3 2 6 p T a a p ",
"W k a k l l ~ R ` u W ..f.] { n E < [.r.l.%. . .o.} ] b ] [ } +.V v J _ #.5 :.oXz.b O.V V o.j.m.j.N.N.6.j.n.b.8.n 0 y.}.3 s k C ! & D 9 oX2.o Z p p p p p s a a ",
"R k k x l x l k R 3 W ] C.A.@.f * y !.e.B.m.O.v.m.z.z.j.j.j.j.j.( x v M [ l r J.7.M m v.N.B.b.O.w.8.9.V.S.m.0.y.hXw u.s.3 @./ 6 = 8 p.;X8X6 * x R R R / R k k k ",
"( z l n n x l x A 4 N j ..W i @ 4 !.`.7.7.V x g  .{ } o.o.} .. .n.0 ~ K #.K :.&XiX0.q.{.S.K.e.2.B o.l.m.H.H.V.m.5 8.;Xs.I A.A Z w OX:X6XtX3 U M / / ~ z l z / x ",
"@.( v n n { x ~ Z 0 M.< U = 3 6 F.8X3XB.j.( #.K R 5 4 4 p a 5 H P w h V C.Z.u.7XMX2X+XpX}.b.z.f.#._ ^ 6.r.e.j.| y.fX7Xy.S ` > ~ OXI.t >.+Xc u _ l l l ~ x x l l ",
"} M n O.n.X.a 3 O n V.d + Z 8.aXvXBXcX%XJ.0.h.L ] ^ _ ' _ ) l J r |.8X9X8X>X8XxXVXBXZXDXyXs.Z.C.J q r [ [ r 0.J.=XtX7X!.G K h #X,X:.. > u.S.+ &.l x l { v { { n ",
"6.m m O.@.E 1 & S 0.iXy.4.p.@XnXLXPXNXtXsX$XU.s.1.0.c.c.x.>.0.J.;XtX%X3.1.3.^.1XeXCXPXIXCX0XoXi.<.B.D.g.c. XiXOX:.,.*X@Xg.>.#X6XW.:.8 t ,.aXu f { { { n } m } } ",
"N.b.q.M 6 > = ! C.d.>X8X=XuXSXLXCX4X~.y.~.s.OX$X>X,XY.R.s.Y.,XsX6X1.X - * % * Z e t./.zXbXbXnX9XE.E.U.U.,X>Xu.t t g.,X8XtXsXtX6X*XT.I.d.T.6Xg A } } } } { j.v.v.",
"j.P 3 , 3 2 l c.Y.sX3.u.5XFXUXJXpX.XV.l.] J ] ..K./.*X8X9X6X-X+X2 3 4 a 4 Z 2 3 Z T ~ z h 2._.dX-X7X6X6X8XI.,.W.T.-X;X>X@XoX^.u.Y.P.oXOX;X8X_.> @.4.b.C.j.x.m.@.",
"Z . : ; 4 { z.s.T.,.:.d.9XAXSX4X.Xt.j.[ ] J J ] w w 9 0.(.=X>Xr Z A a a S A 2 2 , f s R 2 3 @ @ { !.@XtX-X,X=X5XiXa.8.< > X & & X 3 > 8 8 <.}.w.S +.B { ( q 0 < ",
"Z 1 2 / 4.d.Y.uX@XP.).rXcXCX2XB.e.b e ^ J _ J l D #.Q 2 5 y.rX..D E a 5 R T 2 2 u u U Y Y : : *   o Z w.5X8Xu.r X X . . = = Z & : F Z Z X X ] H.7 R d d T Z u , ",
"y l L 0.u.;X7X(.b 8.}.(.~.yXiXl.[ v q ^ _ ( l l l _ ' s A :.1X^.G ' E 5 k T p p U Z Z O O 3 i 3 Z : % @ 2.0.> . 7 3 7 4 5 6 3 6 7 7 w 7 Z Z 7 y.V 3 T f 3 Y U A ",
"m.>.F.iXI.;XpXX G H j. .4.aXB.w ] J ^ ` ~ ~ k l 0 w k j ' S a.*X0 J ` k a a 5 R A p 4 p p 4 2 6 5 a T 1 p p X 2 , 6 5 7 7 G w K S D K 7 a K t 4._.q H j l z X.C.",
"D.#X,Xd.,.$Xm + k ( v.$.9.^.7.^ _ ^ _ ~ a a k ~ l ^ P ] x Z v ;Xb q ] ^ c k k ~ H ~ k d 4 u U U f , Z Z s a 7 6 Z Z G D S w 7 7 5 S D 6 q w H S _..X5.w.[.w.e.D.",
"gXrX&Xu.u.t.7 ` { ] [ | G.oXq $.^ ^ ~ k k ~ ~ ~ f ] x | j W S @X}.r [ ..0 ( ] ^ | ] ~ k d d p u i i Y U H S 7 4 H 5 6 7 5 6 5 p 8 8 6 ~ q e | P u.dX^.a.|.u.U.#X",
"+X1.h 3.b 3 E } $...m 0 s.oX6 J ^ l k k k ( ( _ ' ^ g ( e ' Z ^.pXh 5.+.] O.} } { n n n x ( _ ) H ~ H ~ w 6 D G 6 S w K w H 5 5 K 6 k K K M h j.1.rXyXpXiXsXgX9X",
"a 2 i + O p l j.$.r.b.r &X^.P ) ~ ~ ~ z z ~ ~ ~ c ( | | %.c 8 }.tXH.( N 4.c.c.j.4.m j. . . .m M h | a W _ < 6 K 6 w 0 0 0 w w q q J q q v 5.7.x.w.%XbXzXvXVXMX`.",
"+.( W T U 4 ] m.m.t.v.0.rX).S v ^ l l l l v v l [ / z V B k 5.iXcX2X8.I n.V O.o.q.v.l.n.+. .{ { V [ { ^ v 8 6 K H 0 0 0 0 q q q q q q ^ ] 5.7.9.M.#XnXZXPXFX4X<.",
"M.n ( / a 0 e S.V.t.j.).6Xy.#.b.' ` _ _ ^ ( ( ( _ } B f u H a.yXKXZX/.f...N M.S.m.N.b.7.6.6.j.j.q.6.A._ 4.M 7 H q q q q q v e e e ^ v v b 5.k.B.{. XzXKXLXlX}.w.",
"N.q.V / a 5 l l.e.r.H.2XxXa.+.b.( l l l ] v v n A.N f # G ,.0XJXIXAXBX%X>.e 6.8.Z.B.B.t.r.r.e.c.b.j.$.D q.b.7 e ^ v l e v L b v e b [ [ j.k.N.B.[.}.4XAXAX'.}.{.",
"t.B V / k / l } B.|.aXMXVX#XH.M.M.v.m [ [ } B q.Q i @ G c.yXDXAXNX+XzXMX#Xf.r q N.V.}..X.X}.N.k.$.{ v w ).(.7 J v b v b b b 5.5.r h.h.j.k.k.N.B.Q.H.%XMXkX!.{.}.",
"M.q.{ x z { n O.V.aXNXLXLXyX|.m V z s W W W u p   X 6 0.3XbXMX).B.5.2.<XeX#XZ.S.w.[.{.{.{.[.k.h.` l.e.s.tX+X8 D r b [ 5.5.5.5.5.7.7.j.k.k.c.B.B.a.}.J.rX/.w..XG.",
"V.n. .] ] v M b.a.3XJXUXUXJX3X3.d , @ + = * o + 5 5.u.5XeXoX1.J v.A.S 8 +XuXgX%X'.XX_.}.r.t.x.N.p.J.%X=X;X=Xt.0 b 5.k.k.7.h.7.x.7.x.9.k.k.N.B.B.y.H.D.3X~.6.[.H.",
"S.j.l.l.[ 5.k.H.cXHXKXIXIXJXDXzX Xi.r 7 2 6 K J F.$X6X7X*Xv E +.6.} @.l .XnXBXDXDXNXyXpXiX|.J.J.*X:X>XOXI.*XpXh b j.k.k.x.7.7.x.9.9.x.k.N.c.B.G.G.S.8.1X~.m ].V.",
"B.w.m +.$.L p.eXBX2XrXgXgXgX2XuXxXqX6X:X$X^.u.$XI.u.*X-X$Xq s n b.V N `.NXSXLXLXKXAXBXmXtX,X,X>X;XOXu.(.y.oXrXoXc.r w.e.c.Z.Z.w.N.N.B.x.c.D.c.K.p.p.[ $X%X) S.r.",
"p.0.c.C.[ 0.5X7X1.G. X%XpX XK.}.bXbXqX-XuXnXbX0X,.:.Y.-XOXw X...N *.{.4XFXJXKXJXZXBXnXnXcX9X7XqX;XOXu.u.y.+XMXzXH.k.[ b.B.D.B.B.B.G.G.B.B.B.B.H.D.i.C.oX@Xl m.p.",
"].6.M [ c.,XgXa.P { N..X.XH.G.3XbXqX*XU.U.+XzXbX$X,.U.7X@Xg X.z N ].XXFXLXKXCXkX.X(.e.1.1.y.).3X6X7X7X0X2XvXPXJX%XB...[ e.H.D.a.G.p.p.p.p.p.i.p.S.H.C.s.=Xm +.Q.",
"-.] e c.OX7X(.. E C C !.m.z./.VXmXU.g.C.I I 0.uXeXI.OX7X1Xj ' X.=..XlXJXKXvX_.V.A. .| L K q e [ u.@XuXmXMXDXJXJXeX).f.J v B.J.F.J.J.J.J.J.J.J.F.S.p...u.>X9.P $.",
"c.F.R.:X6X6X3.@ G E X.~ r _.nXbX%X>.z.{ ( #.L i.qX9X5XcXzXt.o.*.Q.0XVXVX4X(.b.z.M j l ) ' ~ ~ ~ 4 j 9.p.|._.3XeXbX@Xi.f.r j.c.0.c.K.K.K.K.L.H.L.K.3.5.d.7Xy.w f.",
"7X,X:XtXtX6X-X&XN 4 7 x ~.bXbX=Xz.N.6.q.V x ( k +XnXVXZXCX+X^.).0XxXcX_.q...{ j L _ H H ) / ( x -.#.$.Z.S.H.}.).qXuX$XG.N.j.4.8.r r r h.5.k.m.m.c.8.L 1.9X;X$X;X",
"~.g g y 2.).5XtX0X<X~.<XDXBX2XJ.S.V.6.C...c x ' (.SXLXKXSXxXeXuXxX@Xr.r q ( l 0 ~ ~ l l l x j c H _ x V w.t.b.O.y.rX5X@XiX}.9.c.z.z.h.h.5.8.7.7.7.C.C.D.9X8X=X@X",
";.%         # C I.mXbXBXZXnXaX XH.t.w.} @.l w { i.vXJXFXkX5XwXeX:X8.P #.x a S $.d a R S 0 ^ ~ k 8 / ' ~ j m l...I +XwXeXsXiXH.c.c.D.c.x.c.D.c.G.J.D.i.=X9X@Xc % ",
"; O + ; = O # , Z ( '.vXSXvX4X|.(.[.B 6.` c l A ..CXVX5XP.=XxX1XJ ^ ^ ^ ^ ^ ) ~ s a a a R ~ ~ ~ -.) d c _ _ ^ { %.t.vXVXcX7X-X;XY.R.R.F.i.L.L.|.R.u.wXcX(.= o O ",
"# + + O O i u u ( N =.'.vXPXMX_.q.M.S.C.L O.p . ~.nXzX8X;X7X0Xa.^ ] ~ ^ ^ ) ) ^ ~ a k k l ~ ( ~ ~ l ( { ] ^ n v.w.'.PXSXyX:X&XsX5X8X;X-X;X:X$XOX%XmXMX/.8 + # Z ",
"U 1 O O # u T W z =.].].'.NXFXCXXX2.{ o.V ( + 3 wX0Xu.oX7XwX+X| { ] ^ J 0 ~ k ^ / / / l l l l l h M v | { n 7.M.`.SXKX0Xs.8.:.1.k.D.s.oX@XuXnXBXDXSX<Xv A ' f 3 ",
"W u u Z 2 2 s W ` B ].`.[.(.4XVXDX^.v *.O.G 1 !.wX#Xt d.7XqX~.P { ^ l k l ^ ~ ~ ~ / ( l l k n n M b j l { m q.M.vXIXvX`.g.J H d T E P ..7.(.4XHXKXvX3.` @.{ ~ c ",
"( a R T 4 2 a a ` x V !.].w.!.`.wX9Xw.Z Z k `.zX7Xs.>.P.7X7Xa.#.l q k l ~ ( ~ l ~ x ( ( ( { n { #.+.o.o.%.n !.XXLXCX_.C.r J E i y f k  .Z.c.(.GXKXlXm.n.C n _ f ",
"x z k / R a a k / x N B v.v.} L s.cX1X1.G.vXLXKXxX=X@X5XqX9XB.+.l l l l ] ( ( ~ ( l l ( o.` X./ ' ` ~ ) | M '.HXAX<XZ.C.n x ' W ) ~ j 6.N.G.u.fXFX`.j.M.2.6.` s ",
"n x l / / ~ ( z E z C o. . .o.` t ~.2XxXnXZXVXkX5XdX5XeXcXzXQ.q.} { x l l ( x ( n n { ( / W a 4 u 4 6 t M `.vXKXzXa.Z. .j z s s ) ~ j M b.Z.i.aXMX2.O.n.m b x ` ",
"} n l ` / _ ( x s / _ v { { x C #.P %XcXxX&XJ.V.e.S.}.3XMXvX`.=.A.+.( x l l x ( v } @.` A > X + 2 A K 5.).NXPXAX:X8.z.q.n X.k ] c x X.` %.S.1.1XeX1.A.O.j.+.v [ ",
"v.n B V M n l | ~ ( ] M b { x z q.C.y.rX XC.C.k.j.w.[..XlXUXFX].!.M.A...v [ l.j.c.j.W = . # u ~ c r 9.).cXBXBXCX@X9 $.m.4.V X.n l ] ] j m.C.8.1X%X<.V.n.m.[ v.q.",
"A.C.l.[ B v.} } d u p d s / n m K.B.+X=Xi.L b ] { V O.].lXJXLXlX!.=.o.X.k s p i u i + & Z ) q w f.a.1X7X:XP.1XFX1X<.C.A.t.V.b.q.C B n.o.%.C.d.>X(.t ..+.S.V.7.<.",
"K.c.V.x.k.k.} } #.T 2 T R J x.H.E.+XuX:X0.v.j D R X.@.].[.lXJXIXNX'.v.7 & - . o * * X , 8 8.y.y.*X-X-XP.:.t ~.CXNXs.g.Z.r.p.{.].@.&.) a ) r d.-XV.t K a x q.V.V.",
"7.8.7.8.6.m.m.m.&.k 4 K $.g.D.E.&XnXFXfXc.v.N W p W V =.]..X'.JXUXJXkX2X+X(.p.D.y.).#X:X9X;X8X7X6X8X@Xu.u.I.6XwXqXrXiXJ.|.(.t.o.s S S J ..c.U.tXs.4._ S A H | +.",
"R s z ^ o.b.6.M R 5 r 0.J.%X0XnXDXLXAXdXS.n.n s 5 p s C ].{..XNXKXSXCXbXMXxX9X7X6X7X;X*XP.W.I.*X;X6X7X6X;X>X;X;XxXBXvXyXdXpX}.N.M.k.c.D.J.$X=X7X-XOXG.h.J K K 3 ",
"^ 0 _ _ ^ ) k ~ I 7.^.=X7XxXbXBXCXLXJX4X{.m.x c d R W z X.B `.vXMX<X.X}.t.t.y.).6XtXP.>.:.,.P.=X7X;X$Xs.k.h.c. X0XPXKXHXGXNX3XaXE.R.T.*X;X8X;X,X;X>XsX@Xu.1.j.J ",
"|.J.D.0.>.5.5.7.Y.=X7X7X6X@X#X).%XSXAXpXV.6.b x / A Z 1 s B ~.cXfX_.[.*.( / L C.*X>XI.I.I.;X7X7X%X0.H Z R  .z.Z.u.lXIXIXIXbXuXtXtX7XtX8X:X^.0.>.>.s.%X9X7X=X$XiX",
"#Xu.d.U.sXsX,X,X6X7X9XoXD.g.Z.K.L.vXCX).9.w.m ( S Z O + W V.%XgX3Xa.].=.N N @.O.#XtX7X6X7X9X%X0.3 4 E p f N q.V.jXaXFXUXUXAXDXnXbXeXoX9.J S ) %.%.| 5.U.-X6X6X6X",
"u o # g V `.5X6XtX(...P S x w.a.B.5XuXs.} A.x 2 o + Z Q ..i.#XrXdXp.{ X.f X.A.C.*XnXxXwX1XV.H A 5 5 T A p l B q.}.pXfXGXPXKXAXzXiXD.e ) ^ x x l j +.I d.7X&Xt.0 ",
"W E E 8 6 7 u.-Xy.9 6 D U k M 4.k.@X8X#Xb v 8 2 S ) L 8.s.&X8X7X6X=X).0.h [ j.}.wXMX5X+Xa.z.( X.~ a 2 2 4 d { v.B._.aXdX3XbXDX9XH.6.] | { { ] ^ } 6 p.fX(.< , 1 ",
"h...C.n.Q F s.7XM , Z F U p a _ { OX-X#XC...r 4.9.r.a.|.pX_.~.3.u.).|._.pXaXpXrXVXbX%XG.x.m.O.k p p u Z u 2 d x w.[. X|.u.0XMX=XV.q.o.{ m m ] K R Z OX@X4 G &.W ",
"G.N.l.j.#.L &X5XW T A ! i u a E 5 +X8X#XV.J.J. X].B C g y 3 X X & 1 z 2.).%X0XbXAXvX_. XH.V.} k p u u U Z 2 s z h V.N.H.iX5XmX5Xr.q.O.B M m { ' Z F ,XP.3 %.%.k.",
"B.7.( q r d.>XoX6 E E p d < k _ H ^.8X:XaX$Xa.$.# o o = O = Y ! ! W N V b.(.4XJXKXFX4X X(.t.q.{ R W p 2 U W W p g X.} V.aXtX9X:XB.k.+.` k k u Z + Q >XP.a B.c.i.",
"L 0 ) $.0.OXtXp.0 ` l c g c n $.P OX6X8X).h < o O i Z Z Z Z p , p x B w.[.}.'.HXKXPXdXdX(.t.w.B X.k a p ' W 2 X : Z ^ H.aXeXqX-XH.j._ W 1 @ o o 6 6.8Xu.d V.S.w.",
"j.5.x.U.$X-X>X6.v n x n M n +. .H &X6X~.i @ @ i < 6 d 4 p T T U ) ` B 2.}.|.pXNXKXSXdXXX.X}.t.m o.l l ( / p 3 3 Z 7 >.iXyXnXxX8XJ.9.~ T 2 , 6 s V.s.-X).H b h.8 ",
"e.F.E.;X7X6X=X4.j.v.n.+.O.n. .w 3.3X!.. % : i 3 Y ; u u u u 4 E j ^  .v.A..X_.<XAXFXdXpX|.H.m.b.o.M { o.l 6 R &.}.%X:X:XcXbX<XP.:X).} ` ' v w.G.{.aX7X#XK L z.C.",
"sX-X7X:XOX5XtXi.$.t.t.z.N.N 1 I 7X}.X = ! + Y O p 4 4 p S a R R ' n 4.w.b.M.(.|.VXbX%XJ..X[.V.b.q.h.z.V u R s.7XcXxXcXMXnXwX5X-X7XrXG.V.H.s.$X*X;X$X5X7XY.U.E.U.",
"tX@X3.J 8 a.tX*Xe L | ..k.w 9 iXrX8 X = , u A p a R R k R R ~ R / l m v.v.q.3.%XxXwXtXs.J.}.[.e.$.w.M.q w B.&XxXGX/.a.(.(.y.~.)./.&X>X6X8X>XaX#Xa.c.c.*X8X>X>X9X",
"1.< O ; & 0 %X7XoXL.c.K.L.D.%XcXQ.@ = ! 6 R R c ~ R ~ / ~ / ~ _ l x } { } M 2.aXeX9XuXOXF.J.H.K.H.w.g L g.*XxX1Xf , > 3 4 5 ~ ) > (.qX-XOXH.4.v b K P 0.7X7X5XoX",
"S F : U d , m pXwXuXtX:XsXyXbXxX5 1 U R k H ) c x ~ ~ ~ ( ( { ( v ( ` E _ M p.3X).U.yXcX3XJ.L.E.J.V.5.p.%XnXvXg , 4 E ' ( ` #.#.| .X&Xd.L K _ } M ..&.I OX3Xw.I ",
"A F Z 3 y i , , ~.%XxXVXSXJXCX~.3 Q T j ] _ ( l ( ( v ( { { { ] m { ) D k m (.).B C._.vXSXkX4X%X X.X.X4XBXvX!.2 ^ ^ ] l g n { K oX#XB.C.$.n q.f.8.J #.J #Xa.D ! ",
"c 4 4 2 d s T Z w k.<XZXUXLXzXr.` ( k x ] ` ` l n { { m { m m { M { E R ~ 5.V.w.%.{.(.lXIXLXLXJXSXvXCXJXZX'.J v.V ] ] ] ] n.} < OX).6.n.[.2.e.....x 4 w.aX8.j / ",
"/ 6 4 u i 6 ) @.n.S. XNXLXSX+X5.v.c x  .] o.n m } } } } } } j.} 4.{ S H ] 6.q.j X.].[.XXPXLXKXPXLXPXJXKXlXM.{.3.m.k.m.Z.S.V.h.w $Xa.e.M.e.7.m.n.} { 8 a. X:.h a ",
"Y 2 s i T _ ] j 2.}.L.%XZXbXy.&.V M { $.O.j B 7.O.O.m j.j.m v.j.6.] S w 5.6.n S p c M.`.vXvX<X+X<X3X2XZXlXM.S.t.[.N.N.}.0.4.l.C.$Xp.m.w.w.N.z.k.2.-.r ^.H.5.| s ",
"X.d a k l } } z.M.J.jXL.wXzXh o.[ m } o.O.[ j.z. .n.v.j.k.b.k.j.B x E 0 8.p.h.c z Q k pX).0 &.} B K.l._.mXa.$.J.s.F.L.m.#.$.D.,X=Xr +.}.w.N.z.w.w.d 2.OXG.] m ' ",
"v l n x x o.o.o.V 0.S.x.7X0Xw { v.} { m O.} k.N.7.N.m.e.k.b.m.m.M ~ E ] 3.i.Z. ./ f.a.C 6 | x ` } 3.Z.q oX#XI [.V.z...5.d.*X-XwX1X7 K k.J.p.c.x.%.X _.aXL D.>.' ",
"%.( ' ~ a a a 5 ] 8.c.8.*X&X4 j.O.O.v.v.v.w.b.N.r.0.0.r.[.S.v.M P ~ M h.D.R.s.f.9 J.a.y # { 4.+.S.s.Z.G 3.:Xy.:.8.p.$X=X:X&XoXyXuX< + d j.Q.Q._ & 1.eX&Xf.hXm.[ ",
"^ w j k w v h.k.g.R.E.L.>X&X+ n j.m.M.b.N.N.r.t.i.p.}.V.v.b j l $.| 2.J.jXE.,XoX$X.X4 , z ( z.9.G.r._ #.e.9XMX3X8X-X>X).m 1 > p.uXQ.@ % = ! o f &X:Xa.).I.c.#.l.",
"D.i.G.G.D.F.F.E.Y.T.T.$X;XOX+ ` x.x.x.9.B.B.H.H.K.V.m.] 0 0 ( @.z.H.a.iXE.,X6XwXtX) - < d ` w.a.t.c K Z.u.wXbXcX&Xy.0 > S K 7 h.xX5Xw % % %   s.OX8.f.B.$X,Xi.F.",
">X,X>X>X=X;X,X>X>X>X>XtXqX5Xa W V.B.c.B.K.K.V.N.A.] w 6 0 ] } v.s.pX%X$XsX9XqX9XoX> Y k 5 &.x.a.D 1 8.$X$XeXxX~.+ Z #.~ { ] r V.nXBXkX~.5.9 ~.OXF } A.I #XuX-X>X",
"V.w.6.h h h B 4.2.t.^.rXnXbXt.4 N.B.H.H.V.V.} n 6 p R ~ q 5.B.J.3X3XyXMXmXfX#X5X^.< T #.a x h.m D Z.*XOX:.I.5XH Y ~ h.] #.-.v y.nXFXSX8XU.OXeX2.* r #.m.=X@X/.!.",
"* . o * = = Z 1 : - > y.zXZXpXn 7.V.V.M.b l 5 6 a s R ( [ r.|.aXdXCXAXAX4X9.>.&X@X, ! _ q j v F v.=X-X8   u.;X#.v ] { m 5.m.z...5XcXi.f.M l (.;X` w Y.$X2.@ %   ",
"U O 1 U u Z p u K d U J /.ZXSX_.&.m [ ` x ^ #.k 8 j r 7.p.s.&XtXZXUXKXdX|.V.f.+X&Xw 2 d w H ( Z.>X7X*XW.,.P.aX1.D 7.k.$.B.r.l.L -X#XF Q 6.l I %X7XtX(.6 . o ; O ",
"i + O Z Z 2 p A D p a K w.zXSXyX} }  .$.6.5.5.9.m.A.Z.D.R.>XeXeXDXLXSX%XV.[.l (.-Xb Q &.B.|.=X-X#X/.~.$XT.-X7XoXt J C.S.1.e _ j.,X8.| n g ] 4.5X3X3.> o # O + = ",
"2 O 1 2 2 2 2 A p S k _ I /.VXcX=X^.2.e.}.}.{.D.D.F.Y.>X6XoX3.( `.'.bX0XN.%.N Q.5Xs.|.>X;X$X3.g *     f <.^.uXbXgXp.K P $.P f.OX6Xp 1 b.s F ).6Xd @ @ = ; ; O 1 ",
"U 1 1 U 2 4 T 4 p E ) D q %XeX5X;XeXyX4X%X|.a.u.T.>X=X~.i . 1 J 8 ~ `.cX#XP s y.7X-X;XoX9 = * * ; : = = . = ' Q.cXxXoX>.Z.sX;X-X9Xx @ A ~ m a.3 % = Y O * ; i 3 ",
"U O 2 2 2 4 T 5 p k Q Z 2.3XY.u.F.3XFXAXcXtX8X5X6X!.+ % . u s p | #.2 ~.tXa.<.=X6X~.u . o 1 Z Z < 6 T 2 6 2 & . < `.7X8X5XtX+XQ.).%X0.    3.C   ; ; ; + + , O # ",
"U 3 1 4 2 4 4 4 k d D S ~.#Xf.m.Z.).bXJXVXcX&X).= + @ u U ; # u u / G p /.8X9XrXU , 3 A E ! A p A i ; i p c d d & . 9.tX3.@ @     v |.~.y..X@ : + + i , 3 O O Y ",
"U 2 2 T T A R R ~ d 6 } [.0.L n.e.y.eXbX2X`.V A Y T R u # Y W 4 i p Q O 6 5XqXu.- p ~ _ ~ 0 ~ z w 5 s Q F F S c n 3 h .X@ % # # $ - * 1.;X(.@ # Y i , + # ; 1 , ",
"W U T T R R ~ ~ p E 8 7.S.K @.M -.C 1XtXB.#.z V V k a ( l j c s s U D W - z.5X@XY / ^ ) x m { { x $.| } m l _ k #.H 1.}.o # < : 1 4 2 + w.].@ F 1 O ; ; U 2 u u "
};
