/* XPM */
static char *_710168926514[] = {
/* columns rows colors chars-per-pixel */
"80 80 255 2 ",
"   c #010001",
".  c #0B0405",
"X  c #0B0B0B",
"o  c #080907",
"O  c #150909",
"+  c #06120A",
"@  c #161607",
"#  c #1B0913",
"$  c #051B14",
"%  c #1B1B1B",
"&  c #151614",
"*  c #0A0D16",
"=  c #260C19",
"-  c #2A121B",
";  c #291210",
":  c #042418",
">  c #182514",
",  c #292507",
"<  c #322E06",
"1  c #363507",
"2  c #2F3218",
"3  c #381324",
"4  c #2F0E23",
"5  c #043927",
"6  c #123323",
"7  c #262626",
"8  c #383838",
"9  c #2C332C",
"0  c #1D1B30",
"q  c #473317",
"w  c #45172D",
"e  c #491834",
"r  c #511534",
"t  c #502A32",
"y  c #673437",
"u  c #01563C",
"i  c #0E4832",
"p  c #2E4D2D",
"a  c #37683C",
"s  c #38471E",
"d  c #514D0D",
"f  c #665C12",
"g  c #726D13",
"h  c #724B31",
"j  c #4D6F33",
"k  c #717829",
"l  c #475821",
"z  c #5B1D42",
"x  c #662447",
"c  c #792953",
"v  c #732D4F",
"b  c #702351",
"n  c #085D43",
"m  c #036749",
"M  c #067753",
"N  c #35754E",
"B  c #3C5046",
"V  c #4A4949",
"C  c #575756",
"Z  c #4D594D",
"A  c #6F4A52",
"S  c #486D55",
"D  c #676766",
"F  c #777777",
"G  c #706D6C",
"H  c #5F5C62",
"J  c #887B16",
"K  c #8A5838",
"L  c #987433",
"P  c #862A5A",
"I  c #993667",
"U  c #8F2E66",
"Y  c #AD3573",
"T  c #934F50",
"R  c #96496B",
"E  c #B54A72",
"W  c #A26D54",
"Q  c #D26E6E",
"!  c #C26960",
"~  c #718539",
"^  c #5E823A",
"/  c #348959",
"(  c #02976A",
")  c #059569",
"_  c #2E956B",
"`  c #03A977",
"'  c #0EB17B",
"]  c #1EA167",
"[  c #528F4F",
"{  c #6F9451",
"}  c #74AB51",
"|  c #518B70",
" . c #51AE69",
".. c #74B86A",
"X. c #70907C",
"o. c #36C37F",
"O. c #72D276",
"+. c #56C578",
"@. c #918B14",
"#. c #A89C17",
"$. c #B3AB18",
"%. c #928E2A",
"&. c #AC902F",
"*. c #A3AA34",
"=. c #C3B919",
"-. c #CCA82E",
";. c #D4CC1D",
":. c #D6CF33",
">. c #E7D32E",
",. c #FEFF2A",
"<. c #FDFA23",
"1. c #FDFB35",
"2. c #F2E82F",
"3. c #EBE323",
"4. c #94B34D",
"5. c #98A05C",
"6. c #F5B755",
"7. c #FA9975",
"8. c #FDB272",
"9. c #CC9351",
"0. c #B2D54F",
"q. c #89D56C",
"w. c #B2D164",
"e. c #89E97B",
"r. c #97EA74",
"t. c #A9FB79",
"y. c #AFF170",
"u. c #A9D958",
"i. c #FDCE53",
"p. c #D4F252",
"a. c #FDE948",
"s. c #FBFB49",
"d. c #F1F14F",
"f. c #FFD774",
"g. c #FFC96E",
"h. c #CBF96D",
"j. c #FBFC6A",
"k. c #C6D65B",
"l. c #BBC437",
"z. c #B83D86",
"x. c #C13E84",
"c. c #B74889",
"v. c #D04C8E",
"b. c #E65496",
"n. c #D5708D",
"m. c #EE6E8F",
"M. c #DB4CA6",
"N. c #FE56B9",
"B. c #F255AA",
"V. c #FE68A9",
"C. c #FF79A9",
"Z. c #FE69BA",
"A. c #FE77B5",
"S. c #FF5BC3",
"D. c #FF5CCA",
"F. c #F95BCC",
"G. c #FF67C7",
"H. c #FE75C7",
"J. c #FE64D7",
"K. c #FF74D7",
"L. c #FF69E6",
"P. c #FF73F3",
"I. c #03BF84",
"U. c #74AF8E",
"Y. c #649F85",
"T. c #00C68A",
"R. c #01D796",
"E. c #09CE91",
"W. c #29D994",
"Q. c #2FE79C",
"!. c #02E7A3",
"~. c #01FEB4",
"^. c #02FFBD",
"/. c #0BFFB9",
"(. c #09F7AC",
"). c #32FBB1",
"_. c #02E59E",
"`. c #50D48B",
"'. c #6EC794",
"]. c #51E892",
"[. c #70EE8F",
"{. c #4BF9AC",
"}. c #6AF8AA",
"|. c #61D6A9",
" X c #01FFC5",
".X c #02FFD4",
"XX c #00FFE7",
"oX c #7BFFC6",
"OX c #888887",
"+X c #989898",
"@X c #90908F",
"#X c #A89BA3",
"$X c #A7A7A6",
"%X c #B8B7B7",
"&X c #AFAFAC",
"*X c #A4A498",
"=X c #FF9699",
"-X c #FD8E90",
";X c #FFAB8A",
":X c #FEB494",
">X c #FF88A9",
",X c #FC96A8",
"<X c #FF87B8",
"1X c #F08FAE",
"2X c #F5AFAD",
"3X c #CEB8B6",
"4X c #99FC86",
"5X c #85F993",
"6X c #8EF88E",
"7X c #A8FA83",
"8X c #90F0B7",
"9X c #AAECBC",
"0X c #A5D5A9",
"qX c #FFD291",
"wX c #D2FE8E",
"eX c #ECFA8F",
"rX c #C8CCBD",
"tX c #FF91CE",
"yX c #FEB1D0",
"uX c #FF9BFE",
"iX c #B1FBD2",
"pX c #9CFECF",
"aX c #CCCCCC",
"sX c #C5C4C4",
"dX c #D3CDCC",
"fX c #D2D1CE",
"gX c #D5D4D4",
"hX c #D9D6D5",
"jX c #D9D9D6",
"kX c #DCDCDC",
"lX c #D8D8D8",
"zX c #D0CFD0",
"xX c #E1DEDD",
"cX c #E9D9D2",
"vX c #D6E7D9",
"bX c #E2E1DE",
"nX c #DEDFE1",
"mX c #E1DFE0",
"MX c #DFE1E0",
"NX c #DBF0E1",
"BX c #E4E4E3",
"VX c #E9E5E5",
"CX c #E9E9E6",
"ZX c #ECECEC",
"AX c #E7E7E8",
"SX c #F1EEEE",
"DX c #EEF0EE",
"FX c #F1F1EE",
"GX c #EEEFF1",
"HX c #F1EFF0",
"JX c #EFF1F1",
"KX c #F3F3F3",
"LX c #F6F6F8",
"PX c #FDFDFC",
"IX c #F8F7F7",
/* pixels */
"kXsXBXKXHXBXkXAXBXGXZXmXVXVXVXZXVXBXZXAXVXZXaXBXZXZXGXZXBXZXZXAXCXZXBXAXMXCXKXKXZXCXZXGXCXAXCXAXkXnXkXlXxXBXVXBXZXCXZXSXAXAXZXkXzXMXZXBXZXzX&X$X&XgXhXkXgXBXkXlX",
"kXaX%X%XBXkXkXnXdXsXdXdXdXcXdX3XhXkXkXkXxXlXgXkXkXkXkXkXkXlXBXBXBXBXBXBXBXkXMXBXkXgXgXsXsXgXlXzXzXaXgXBXkXkXkXBXkXgXgXzXkXmXmXzXkXBXmXnXxXBXgX$X%XBXBX%XaXkXkXkX",
"ZXAXnXkXIXZXKXPXSXZXZXZXKXGXSXmXIXLXDXKXCXZXLXKXLXGXZXZXGXAXLXKXKXLXLXLXKXKXKXKXKXKXKXxXMXGXKXZXZXKXZXKXZXKXKXKXKXAXBXgXAXHXZXVXKXZXZXZXKXZXAXkXVXPXLXbXKXLXZXBX",
"AXMXPXPXKXHXZXKXZXCXZXKXHXHXKXAXZXKXZXDXHXKXLXLXZXZXZXKXKXBXZXAXZXKXKXZXGXKXZXZXDXZXKXbXZXPXKXZXKXHXKXKXKXKXKXKXHXAXBXKXHXAXBXZXCXBXnXBXCXZXkXlXZXDXIXKXBXBXCXLX",
"AXBXPXHXHXVXmXSXAXBXVXZXZXKXHXBXZXKXZXZXKXKXKXZXZXLXDXZXCXgXCXKXKXKXGXPXPXKXCXZXKXGXPXZXFXIXCXZXZXZXSXHXZXZXKXZXZXAXBXCXCXBXBXZXxXmXBXCXKXIXBXlXAXZXKXKXgX$XkXGX",
"KXBXKXKXCXBXVXHXKXCXVXSXLXIXCXkXDXFXZXZXZXKXKXKXKXLXGXAXBXBXKXPXLXPXPXLXKXPXPXLXIXPXLXLXPXPXDXVXAXZXZXCXCXZXCXDXDXkXjXbXBXBXBXBXVXSXLXIXIXKXPXZXBXIXBXlXAXlXMXCX",
"DXkXBXVXxXVXVXZXZXBXVXVXZXSXCXgXBXZXAXZXAXAXAXZXZXZXCXBXCXBXCXGXPXbXD % X V %XPXkXC % % V %XPXZXnXAXZXBXBXCXVXkXjXkXhXbXxXVXCXBXVXHXZXAXCXCXBXbXBXAXBXBXBXBXMXBX",
"kXzXkXxXhXdXdXdXhXxXxXxXhXVXBXBXMXBXAXAXMXxXlXxXCXCXkXkXAXnXkXPX&X      o     C %           V PXSXkXgXkXBXxXgXfXjXkXhXbXbXxXBXBXmXjXkXmXBXBXbXBXBXBXBXMXlXkXnXkX",
"DXDXLXKXMXkXBXZXnXAXKXKXJXIXLXKXKXKXKXGXKXKXCXZXKXLXLXPXPXPXPXHX&       .             O o     H PXIXBXCXLXKXZXZXZXAXDXKXFXDXIXLXDXMXAXDXDXDXZXKXCXBXBXZXFXFXKXDX",
"CXDXCXBXlXBXKXDXgXAXLXZXDXIXKXKXZXZXZXKXKXIXAXCXLXPXPXlX@XOXZX&X    = n.>Xt       O +X2XA .     +XPXAXBXKXZXCXAXFXDXFXFXZXCXKXDXAXBXAXkXZXZXZXKXCXaXkXZXFXZXVXCX",
"AXZXZXMXkXKXIXVXlXKXHXGXZXZXZXZXZXKXHXSXKXLXCXBXPXPXG       * &     G yXyX&Xo     G cX3XxXS     X VXIXgXxXBXBXBXZXSXVXCXBXCXKXDXZXAXCXxXCXZXZXZXKXZXBXZXZXFXBXBX",
"DXZXBXMXKXPXPXKXmXGXKXKXKXKXLXPXZXZXKXKXKXIXBXBXPXC               . C vXpXU.    + U.9XX.> |.i     V IXBXZXZXZXCXVXCXCXVXZXKXLXLXZXZXJXZXKXKXLXLXKXKXFXZXFXLXZXCX",
"bXVXZXFXKXKXKXFXkXAXKXZXZXKXHXBXkXBXmXZXPXPXPXPX@X      Z C         . / {.6     i }.{.) . i E.o     sXPXLXBXBXBXBXVXBXBXZXCXBXBXkXbXCXxXbXCXAXBXBXbXkXkXbXbXjXjX",
"VXbXZXSXVXVXVXbXBXBXAXCXBXBXdXdXjXbXPXPXsX@X&XsX&     Z *XiXN .         M 6     )  X~.u     ) m     o H KXKXgXfXgXzXkXBXkXgXgXgXjXkXaXaXlXjXgXsXaXgXjXjXfXgXgXfX",
"ZXkXIXFXDXZXZXZXDXKXLXJXKXDXCXxXZXPXCX8             B X.> ).Q.      : u &     o E.~._.:   . n n         V PXPXZXKXBXBXKXZXBXAXZXZXZXAXZXKXZXKXkXbXFXDXCXCXFXBXAX",
"AXbXKXbXZXCXAXZXCXDXAXZXKXDXZXxXPXPX7               Y.> : ~.!.$     ) XXn     5 !.~.I.      n 5 + 5       OXPXZXKXBXkXZXnXmXCXGXDXZXAXFXZXBXZXMXkXZXCXBXZXZXZXKX",
"ZXBXAXBXZXHXKXGXHXKXKXKXIXKXHXBXPX$X    . A 7     n _   n ^._.:     T.^.5     M ~./.)         5 ~. Xn     % AXIXAXhXkXZXAXZXSXZXZXZXZXKXAXBXBXlXkXKXAXAXFXKXCXZX",
"CXBXHXKXIXIXIXIXPXPXPXIXIXKXHXZXPXOX    A PXF     ( m   n ^._.5 o : ~.!.:     ( /./.m         T.~.~.~.:     +XPXPXPXPXLXLXFXDXJXKXLXLXZXAXCXZXBXAXKXZXKXKXGXZXCX",
"kXnXHXKXSXSXSXKXKXHXZXVXBXAXHXZXPX+X    8 jXU.. + ` +   m  X!.:   m  XE.+     o.].{.i o     i ).W.( ~.(     V ZX+XOXlXPXAXBXAXCXAXZXkXkXBXxXBXkXkXAXAXMXMXnXkXBX",
"BXHXSXmXVXBXBXBXlXxXmXkXmXmXBXZXPXaX    o U.}.. i ]     M /.!.>   )  XT.    : [.[.[.6       [ 8X[   M (.o   X o       $XPXMXBXnXkXgXgXlXkXkXkXkXkXkXlXlXlXlXgXkX",
"PXPXKXIXLXKXSXBXnXZXGXZXDXJXKXKXIXPXV     / 8X6 a /     / ).Q.:   ] ).'     p [.O.O.> o     ..4Xa @ o. Xi             7 PXPXLXKXGXAXCXZXZXZXZXZXAXBXBXZXZXKXZXGX",
"PXKXKXLXZXZXZXZXCXZXGXKXKXKXKXKXLXPX+X    6 }.N a a     / }.].+   W.{._     p 4X4XO.+     $ e.e.e.e. .` 5     + p &     sXPXKXKXBXkXBXBXAXCXVXBXBXAXKXZXAXAXCXAX",
"KXAXPXDXBXZXZXKXCXHXKXKXKXZXHXKXIXPXAXX     [.+. .p     [ 6Xe.X   [.5X[     [ e.e...      p r.q...p   o   @ k 2.j.d     &XPXKXLXBXlXAXBXAXCXVXZXKXKXDXCXZXZXMXBX",
"DXLXPXZXZXZXGXGXBXKXIXIXIXLXLXIXIXIXPXC     [ 6XO.>     } 7Xr.+ @ y.t.^     [ t.t...    s r.r.O.2 o     f 3.,.<.>.,     &XPXKXZXnXBXBXZXKXKXKXIXKXZXZXZXZXKXkXMX",
"BXDXZXVXbXVXVXxXgXxXAXCXZXAXZXGXKXBXPX*X    2 4Xr.$     } t.u.  , h.h.k     } t.t.}   o ~ 4.t.q.o   O $.,.<.@.,         zXPXlXgXBXkXbXbXVXVXZXVXVXBXBXVXBXBXlXlX",
"xXBXCXbXbXVXVXVXxXxXnXBXkXkXkXgXkXkXKXBX&     q.t.@   o } t.y.o , d.s.k     4.h.y.}   @ s g s.:.o @ 3.,.;.J           G PXlXaXlXBXbXkXkXjXkXBXkXjXkXkXmXBXBXBXgX",
"LXZXLXKXKXLXKXKXKXKXKXZXZXGXCXkXBXKXPXPXH   . j k.+     *.1.p.o < ,.,.k     l.2.d.*.      ~ <.;.J 2.<.f   d     o t $XPXPXBXZXKXLXKXIXIXLXLXIXDXZXKXZXKXHXGXDXKX",
"ZXKXKXKXFXZXSXSXGXZXZXZXHXGXZXmXDXLXLXPX%X    1 ~       #.<.3.@ , 1.1.J     :.a.s.&.      g 1.i.j.a.1   @ , * OXAXPXPXJXLXPXPXKXDXIXKXIXFXBXZXZXCXZXCXZXKXZXDXZX",
"ZXDXHXKXSXZXSXSXAXCXSXSXKXKXKXBXKXLXFXFXPXF   @ 1 o     #.s.1., , d.d.L   X 6.g.f.&.    o @ 8.f.9.O         %XPXPXMXBXPXAX$XsXPXPXIXLXKXkXBXKXZXCXZXZXZXDXZXAXAX",
"KXZXLXIXLXKXKXIXGXKXIXIXIXPXIXVXKXKXZXFXPXF             %.qXqX2 @ g.qX9.  O 7.;X;XW         # 2     T t     7 kXPXBXPXaXX     9 gXPXLXbXBXLXLXZXCXKXKXKXZXZXDXKX",
"BXBXCXVXVXbXVXxXCXCXCXZXAXZXVXgXBXZXbXPX@X              K qXqXq . ;X:X9.  o 7.-X:XW               R uXc.        F PXPX%           +XPXMXBXZXCXCXBXBXBXBXVXVXBXVX",
"BXZXBXVXVXxXxXhXhXxXBXxXVXxXxXxXxXBXBXPXV     : : :     A 2X2XA   -X,XQ     -X=X,X!             I P.v.=           V C     % %       F PXAXkXkXmXkXhXhXgXgXkXgXgX",
"LXKXKXJXIXLXLXZXkXDXPXIXKXKXKXIXPXLXLXPX8     T. XI.    t 2X2XW   m.<Xm.X   m.,X,XE           I P.Y     u E.5             5.3X=       @XPXCXCXZXCXZXZXZXZXDXCXCX",
"LXKXKXKXKXLXIXFXAXZXKXZXZXFXKXIXKXZXZXCX7     T..XI.    ; C.tXv.  v.<XC.#   n.C.<XE         P P.S.#     ( .X~.) o       9 rXyX1X3       sXPXKXKXKXGXKXKXZXKXKXZX",
"LXFXKXKXKXKXZXZXAXDXCXAXIXKXZXZXCXxXbXZX7     '  X)       b.H.B.  I A.Z.w   v.A.A.E       b L.B.M.=   + R.!._. XE.      Y.rX#X2XtXy     C PXPXKXZXKXKXKXJXKXAXkX",
"KXLXLXKXZXZXKXLXCXCXDXIXKXZXBXBXxXBXKXCX7     T. XM       E H.N.& x H.J.c   E Z.G.E     t J.N.4 c =   i ~._.R.~.!.+   9 0X$X*X$XyXc     V PXIXDXZXKXGXCXAXZXBXZX",
"FXKXZXZXZXKXZXVXkXBXFXZXxXBXxXkXxXVXKXVX%     T. Xm       c J.J.w = D.D.c.  I G.Z.v.  = D.L.I         M ~._.!.R.`   o _ 8X'.'.9X#X      $XPXBXBXZXBXMXBXBXZXAXBX",
"BXBXbXBXCXBXkXkXBXSXVXbXxXBXVXbXBXVXSXCX%   o E. Xu       e D.L.z   N.S.N.  x H.N.E   M.D.N.P         ` {.`.].m )   $ !.Q.|.|.8Xp     C PXkXkXkXkXAXAXZXCXBXVXkX",
"MXxXCXZXGXCXCXKXIXKXVXZXZXAXZXAXCXZXPXKX>     E.^.i       b U P U   v.J.D.4 - H.N.v.z.P.b U z.      o +.e.t.} $ (   m ^.W.`.}._       sXPXBXBXBXCXKXZXCXCXZXAXDX",
"AXBXKXZXAXZXKXIXKXCXCXZXZXAXAXBXBXFXPXLX%   o o.}.i       = 4 o =   I N.e   o M.H.A.K.N.w P M.      : 6Xr.7X[   ` + ] ).`.[.[.>     H PXLXKXKXHXZXBXBXCXZXAXAXAX",
"AXZXGXCXCXKXLXKXZXAXZXGXAXAXZXkXAXIXPXPX7     O.7Xs     . 1 f @     U Y .     3 v.Q t c z c F.      p 7Xq.t.p   ` u O.6Xq.4X[ o     lXPXKXZXGXAXbXVXCXKXKXKXZXZX",
"KXBXZXZXKXKXLXKXAXAXAXBXBXKXKXkXDXPXIXG     o 4.t.s @ #.<.<.,.1     U 4         ; 3   # . r I     o ~ h.y.r.%   $ j h.u.u.y.2     G PXAXBXBXZXZXCXLXLXLXKXKXKXPX",
"ZXkXBXGXGXKXZXkXBXBXkXkXMXBXZXPXPX+XO       o l.p.2.<.<.=.;.J .             1 -.qX9.                *.p.p.4.    o *.p.0.h.4.o   o lXLXkXkXBXGXZXxXAXBXBXMXBXZXAX",
"BXBXBXAXCXCXBXkXgXkXkXkXkXKXPX&X7         , $.3.2.@.f g   @., @ f ,       g <.<.-.f               @ :.p.s.f     X 0.p.0.p.l     D PXkXkXKXKXZXZXBXxXkXnXkXnXlXgX",
"KXGXCXZXZXZXZXFXgXBXZXGXLXJXZ         @ =.,.3.;.,.d   d   J 1 $.,.f     f ,.;.                    d a.d.2.1 o   s 2.:.p.0.+     sXPXBXBXIXKXDXZXKXJXKXKXJXAXkXBX",
"BXZXZXZXCXCXZXDXnXBXKXKXPXc.      . #.,.3.1   $.,.g       #.1 @.<.g   , ,.;.  < ;.$.              g 1.>.:.X     f a.>.s.%.    V PXBXCXKXKXDXAXZXZXDXAXxXBXCXAXZX",
"CXGXCXCXCXKXLXKXAXGXLXKXPXB     f <.=.#.d     #.1.g       <   f <.@.  #.,.,   >.<.3.@           . $.1.a.$.      L f.6.a.d     @XPXBXKXKXZXKXFXJXJXAXMXAXZXIXCXkX",
"LXLXKXLXIXIXPXIXAXHXKXHXPXZ     ;.;.  , <     #.1.J           d ,.@.o <.$.    #.a.i.,           @ >.i.a.L       9.i.i.6.+     xXPXZXLXKXKXIXIXIXKXZXKXIXIXPXAXlX",
"CXKXAXAXCXCXZXAXlXBXCXAXPX@X    #.@.          &.s.&.          @ 2.&.g ,.d   . &.i.g.d           d i.8.i.h     o 7.6.8.9.    8 PXCXkXAXVXBXxXBXBXBXAXBXxXbXjXaXaX",
"CXBXBXBXZXCXCXAXAXAXAXkXCXPXV   < d   F H   . L j.L             9.6.6.i.o     L g.g.h       .   W g.8.8.2     ; 7.7.;XK     F PXBXBXkXlXjXlXlXgXgXlXgXfXfXzXjXAX",
"IXnXBXLXLXKXKXLXKXKXZXCXDXPXLXG 0 H aXPXX..   K qX9.            L 8.g.W       h ;X:XT         X m.;X7.7.;     2 =X-X-Xq     %XPXZXZXVXbXZXZXAXMXkXBXCXZXIXKXKXPX",
"KXCXZXKXZXKXFXKXGXZXCXGXKXKXPXLXIXPXPXPXF     h :XQ             y ;X;XT       t =X=X!         x C.Q =XQ       y ,X-Xm.;   X lXKXBXMXBXBXBXBXCXAXBXZXKXIXIXCXKXZX",
"KXMXZXDXZXZXZXZXKXZXZXKXKXLXBXkXZXKXFXPXOX  . y ,XQ             t =X=Xy       - C.C.n..       v.E ! ,XE   o   v ,X>XQ     9 GXGXVXVXAXAXZXZXZXZXZXLXPXKXZXCXKXVX",
"KXgXZXFXFXZXZXKXZXGXGXKXKXLXKXBXZXLXKXPX@X    y ,Xm.            - C.C.w       . m.V.V.;     4 G.c E <XE       I >X>XE     V PXHXDXFXKXDXKXFXIXIXPXPXIXZXZXFXKXZX",
"kXgXbXAXCXbXkXMXkXkXMXBXMXkXgXaXaXkXkXPXOX    t <Xb..           . V.Z.3         b.Z.Z.e .   z.N.= b.H.I       E A.A.I     D PXBXkXVXVXbXxXAXZXCXBXkXgXjXkXgXBXgX",
"lXkXCXDXZXBXBXBXkXMXAXZXCXgXzXgXgXgXkXPX+X    w A.V.O             v.G.-       o b.S.Z.x   3 L.P O N.J.P       E Z.Z.P     F PXBXlXkXBXkXCXDXBXBXmXgXfXbXkXkXlXaX",
"AXKXIXKXDXKXIXLXGXKXLXPXKXnXZXZXDXKXLXPX%X    3 Z.V.#             E K.3       O b.N.G.E # M.L.w # D.D.v     . x.G.G.x     +XPXPXZXCXPXPXPXPXKXLXKXKXZXLXGXKXZXkX",
"KXZXAXAXBXJXJXKXkXZXLXKXBXAXKXKXZXKXZXPXsX    - V.V.-             U J.e       t R I J.S.L.F.B.3 = D.D.z     . v.S.S.r     $XPXIXbXBXPXIXKXZXZXKXZXCXZXZXBXZXBXgX",
"ZXDXDXBXAXZXZXZXkXZXKXCXBXZXKXZXGXKXKXPXgX    # N.G.w     r P     x L.r       4 3   Y N.M.# x.r = D.D.r       b.N.N.e     $XPXKXbXZXPXFXZXZXKXKXKXAXBXDXZXAXBXnX",
"ZXKXAXBXKXKXKXZXaXCXKXZXCXKXKXKXKXIXHXPXZX%   X B.J.c   w G.L.#   w L.b       - c     .     x.z = D.D.e     O M.N.S.e     $XPXPXKXZXPXKXKXKXKXKXLXCXZXLXZXAXAXZX",
"BXBXgXgXVXAXCXxXaXkXBXBXAXAXAXCXGXAXBXZXPX8     v.D.M.Y J.L.I .   3 J.c       = y           c.x 3 J.S.3     # N.D.J.e     *XPXnXgXgXkXkXxXkXkXkXkXkXkXMXkXkXmXkX",
"AXlXzXMXAXBXAXBXZXCXBXAXCXZXZXAXBXCXZXZXPXD     R tXV.L.D.r       z z.=                     #   c J.Z.4     3 v.v.c.      sXZXzXgXkXxXkXkXkXkXgXnXBXlXgXMXBXBXZX",
"KXBXkXZXDXCXAXGXKXZXZXZXAXZXCXBXCXKXKXKXPX+X    - tXtXn.#   .     z c                           R tXA.#     x z.4 4       &XPXCXZXKXKXKXFXZXZXKXKXBXkXZXKXCXGXIX",
"ZXkXBXZXZXZXKXKXGXKXKXKXKXKXBXkXBXZXAXBXLXCX7     c yXz           . .                         o R yX1XO     r b 6 Z %     7 KXPXCXKXZXDXDXCXKXKXkXgXZXZXZXZXZXBX",
"ZXBXZXLXKXLXKXKXKXKXLXPXKXZXAXkXBXZXkXhXHXPXC     A n.o           w P       o                   W VX#X        X.NXiX8X+     +XPXKXKXZXZXAXAXDXZXAXCXGXZXHXIXAXBX",
"IXCXZXPXIXIXIXLXLXKXLXLXDXAXVXkXZXIXCXFXPXC       3 3             % w                           Y.NX+X      B iX0Xw.wXX.    H PXIXLXZXZXLXIXPXIXKXZXVXHXPXKXBXKX",
"MXgXkXBXMXBXxXkXkXkXkXkXjXgXjXaXjXCXBXPX&X        + 5 N /  . .`.'.+. .O.O...5.{ { S p % .   * * $XiXY.      | iXk.k.j.5.    V PXVXBXZXKXAXAXZXBXkXBXSXKXHXBXBXGX",
"MXMXBXnXMXxXkXBXlXgXnXMXlXjXkXBXVXbXkXPX+X.   5 Q.Q.}.[.5X[.5X6X7X7X7XwXwXh.wXeXwXwXwX7Xq.[ 6 S 8XpXF       p wXp.p.j.f     F PXxXBXZXkXxXBXkXkXBXKXIXKXBXZXkXlX",
"ZXZXFXLXZXCXDXZXBXMXZXAXBXCXZXKXIXCXBXPXsX    $ ].[.[.O.5X5X4Xy.u.u.4.4.4.4.4.4.w.w.h.wXh.eXeXwX0XpXS         k d.p.g       sXPXKXnXZXCXLXPXZXZXPXIXGXAXVXLXmXgX",
"DXZXZXFXAXAXZXCXzXkXZXZXCXCXAXKXDXBXCXPXPX8     p [.6X6X .j s 2 @ .         o     * * %.5.k *.w.h.q.o           @ @       C PXLXkXkXKXFXLXDXAXIXIXBXkXAXZXGXZXkX",
"LXZXZXDXCXVXVXbXaXkXKXAXAXKXKXZXAXDXZXZXPXsX    * [. .o                               j {     @ %.&     p V             8 PXPXxXgXBXIXLXKXBXDXKXAXmXCXZXAXZXAXBX",
"LXKXFXDXDXCXVXCXkXAXZXZXKXLXBXBXKXCXZXIXPXPXC     O.a           * % 9 8 8 8 9 7 % X   @ , .   @ ~ +   . hXPXOX% X X 9 +XPXPXAXbXBXZXPXIXDXKXLXDXZXHXLXKXKXPXBXnX",
"bXkXkXbXkXkXkXkXgXkXCXCXkXaXaXkXMXBXZXKXBXPXsX    O.p   7 G $XaXkXxXVXFXZXSXDXZXkX%X&X@XG D 8 & ,   8 aXPXKXPXFXfXjXIXPXKXxXgXBXBXBXZXmXkXBXBXmXBXBXBXBXZXAXZXBX",
"gXBXVXDXBXBXZXBXCXCXbXhXlXkXCXBXBXKXKXGXCXZXPX%X& 6 B #XPXPXPXIXKXDXCXZXZXFXKXZXnXAXPXPXLXPXIXaX$XlXPXPXCXVXBXZXPXZXBXxXBXBXBXBXCXCXBXlXkXBXmXgXgXBXBXBXCXBXBXAX",
"CXCXDXLXKXIXLXKXZXZXkXxXKXIXPXDXZXPXLXLXKXLXLXPXLXaXHXPXPXkXkXAXAXIXLXIXKXLXCXkXBXAXJXKXZXMXkXIXPXPXLXKXLXKXKXLXKXBXgXAXKXKXDXDXZXGXGXAXAXDXDXAXBXHXAXAXDXBXMXKX",
"CXCXZXKXDXZXCXAXxXkXBXZXKXKXKXBXCXKXKXCXCXZXZXZXIXPXKXZXZXkXkXbXZXIXKXZXVXkXlXxXBXBXGXZXBXkXCXPXKXKXZXBXZXZXZXBXkXlXkXKXDXAXZXAXAXBXBXBXAXDXDXZXBXGXCXBXAXAXBXZX",
"GXZXKXLXVXBXKXCXAXDXKXZXAXBXDXBXZXKXKXCXAXZXKXDXZXZXCXBXCXMXkXCXFXZXxXlXlXjXBXAXBXCXZXBXBXZXFXFXCXZXZXAXVXBXkXjXBXAXKXLXKXKXDXJXZXZXZXZXZXZXDXAXBXZXCXBXZXZXCXGX",
"PXKXZXCXCXZXGXBXAXKXZXCXBXCXPXZXZXLXGXZXZXKXKXZXZXCXGXSXKXkXkXZXZXkXMXAXDXIXPXFXZXDXKXZXSXIXFXIXLXIXIXSXBXKXKXLXPXLXIXPXLXLXLXLXLXPXPXPXLXKXJXZXCXLXKXLXIXZXKXLX",
"BXgXaXgXhXhXgXgXgXjXgXfXzXlXMXlXgXgXlXBXBXMXkXkXBXBXvXjXaXfXaXgXhXhXCXCXAXCXxXhXkXnXBXBXfXxXkXkXkXkXgXaXgXkXBXBXBXCXBXlXkXlXlXkXkXMXMXMXMXMXMXZXBXkXkXMXxXkXkXBX",
"sXlXlXhXkXgXlXBXlXjXgXaXlXkXkXxXkXMXCXZXZXxXgXBXZXBXgXfXgXBXbXCXZXCXZXCXkXjXkXhXxXZXZXGXBXxXmXgXjXxXaXgXFXCXCXBXBXAXBXnXMXMXMXAXxXkXMXMXMXBXMXCXAXBXBXBXBXCXlXgX"
};
