/* XPM */
static char *_709858052039[] = {
/* columns rows colors chars-per-pixel */
"80 80 248 2 ",
"   c #1C0101",
".  c #150406",
"X  c #19161C",
"o  c #120B10",
"O  c #230102",
"+  c #2C0000",
"@  c #24090A",
"#  c #340101",
"$  c #3B0101",
"%  c #390A0A",
"&  c #27171A",
"*  c #361818",
"=  c #30110F",
"-  c #30231E",
";  c #1B1B25",
":  c #2B1C22",
">  c #251C26",
",  c #371C24",
"<  c #260F21",
"1  c #1E252E",
"2  c #24232D",
"3  c #292528",
"4  c #372629",
"5  c #2C2A34",
"6  c #2D2C39",
"7  c #262733",
"8  c #362C37",
"9  c #29333B",
"0  c #33323D",
"q  c #373538",
"w  c #440302",
"e  c #4B0301",
"r  c #440B0B",
"t  c #480B07",
"y  c #560807",
"u  c #48120B",
"i  c #57150A",
"p  c #470B12",
"a  c #461A18",
"s  c #591716",
"d  c #560D13",
"f  c #640B0A",
"g  c #661409",
"h  c #651A19",
"j  c #751C17",
"k  c #512319",
"l  c #68241B",
"z  c #76271E",
"x  c #702A12",
"c  c #4D1D22",
"v  c #691D21",
"b  c #462728",
"n  c #582926",
"m  c #442C37",
"M  c #483638",
"N  c #553130",
"B  c #6D2423",
"V  c #692824",
"C  c #742B25",
"Z  c #7B2C25",
"A  c #742C2A",
"S  c #7C2E2A",
"D  c #742424",
"F  c #6A342B",
"G  c #7C3226",
"H  c #7C332B",
"J  c #78362A",
"K  c #6A3835",
"L  c #7C3332",
"P  c #793A35",
"I  c #752C32",
"U  c #7B443B",
"Y  c #7F452D",
"T  c #293745",
"R  c #353442",
"E  c #393644",
"W  c #3B3A45",
"Q  c #3D3C4A",
"!  c #353947",
"~  c #3B364B",
"^  c #413E4C",
"/  c #443842",
"(  c #493D4F",
")  c #3C454C",
"_  c #3B4556",
"`  c #354C53",
"'  c #43424E",
"]  c #474449",
"[  c #55464A",
"{  c #444453",
"}  c #494554",
"|  c #4B4955",
" . c #4C4C5B",
".. c #44495A",
"X. c #544D58",
"o. c #57555B",
"O. c #4E515A",
"+. c #674F52",
"@. c #4A5666",
"#. c #555462",
"$. c #5C5A65",
"%. c #5D5C6B",
"&. c #575868",
"*. c #5B5C73",
"=. c #505065",
"-. c #645D68",
";. c #625E75",
":. c #5B6375",
">. c #5D656A",
",. c #63616D",
"<. c #696769",
"1. c #646373",
"2. c #6B6A75",
"3. c #6D6C7A",
"4. c #666777",
"5. c #726D7C",
"6. c #746878",
"7. c #6B727A",
"8. c #73727D",
"9. c #78777B",
"0. c #3D4037",
"q. c #892D1A",
"w. c #822C2B",
"e. c #852B25",
"r. c #83332C",
"t. c #8B352D",
"y. c #843A2D",
"u. c #8B3A2D",
"i. c #843625",
"p. c #94382D",
"a. c #843532",
"s. c #8B3533",
"d. c #853A33",
"f. c #8B3C34",
"g. c #8C3C3A",
"h. c #873839",
"j. c #923C35",
"k. c #923D3A",
"l. c #973A36",
"z. c #8C2E30",
"x. c #A3362E",
"c. c #8C4235",
"v. c #8D433B",
"b. c #874537",
"n. c #934236",
"m. c #93433B",
"M. c #9A443B",
"N. c #94493D",
"B. c #9A4A3D",
"V. c #9A4434",
"C. c #934C37",
"Z. c #A4493D",
"A. c #AC573D",
"S. c #8A3E41",
"D. c #953C41",
"F. c #A43E45",
"G. c #8B4844",
"H. c #954541",
"J. c #9B4B44",
"K. c #994945",
"L. c #9B5346",
"P. c #96524E",
"I. c #A54B46",
"U. c #A95649",
"Y. c #B55A4A",
"T. c #A75953",
"R. c #B55D54",
"E. c #A34D52",
"W. c #B7624C",
"Q. c #B76456",
"!. c #AD6553",
"~. c #82757C",
"^. c #BE6962",
"/. c #C56856",
"(. c #CF6E53",
"). c #C67369",
"_. c #71807B",
"`. c #D78272",
"'. c #6C7589",
"]. c #757483",
"[. c #7A7684",
"{. c #7B7986",
"}. c #7D7C8A",
"|. c #767688",
" X c #7C7D93",
".X c #7A7D97",
"XX c #726D82",
"oX c #827D8C",
"OX c #837C85",
"+X c #827E91",
"@X c #897E90",
"#X c #7D828D",
"$X c #7C8588",
"%X c #7D8494",
"&X c #6F818D",
"*X c #83818E",
"=X c #8A848C",
"-X c #87878B",
";X c #858492",
":X c #898694",
">X c #848995",
",X c #8B8996",
"<X c #85849A",
"1X c #8A8599",
"2X c #8D8B9A",
"3X c #848B9B",
"4X c #918D9C",
"5X c #938996",
"6X c #8D919B",
"7X c #889397",
"8X c #93929D",
"9X c #98959B",
"0X c #8D8E8D",
"qX c #A3919D",
"wX c #8B8CA3",
"eX c #938EA3",
"rX c #8D94A5",
"tX c #9593A2",
"yX c #9995A4",
"uX c #949BA4",
"iX c #9B9AA5",
"pX c #9D9CAA",
"aX c #9797AA",
"sX c #9A9BB2",
"dX c #A29DAA",
"fX c #A39AA6",
"gX c #9BA3AA",
"hX c #9CA9B3",
"jX c #A3A2AC",
"kX c #A7A5AB",
"lX c #A5A4B2",
"zX c #ABABB5",
"xX c #ABADBA",
"cX c #A5A9B4",
"vX c #B2AEBA",
"bX c #AAB4B9",
"nX c #B3B2BC",
"mX c #B7B6BD",
"MX c #B8B9C3",
"NX c #AAB9C5",
"BX c #C1BECA",
"VX c #BAC5CB",
"CX c #B6C9D2",
"ZX c #C3C3CB",
"AX c #C7C6CB",
"SX c #C9C9D3",
"DX c #D2D1D8",
"FX c #D4D6E2",
/* pixels */
"6 :X:X}.,X*X{.;X1X+X1X>X%X3X X*.' 8.5X@X1X1X3X%X1X X|.;X2X2X X&.Q #X8X:X@X<X<X%X{.OXoX;X2XwX|.&.e r.a.a.s.s.S a.h.h.k.h.z.s.S y e k.s.a.h.w.S h.g.h.k.z.s.f.Z f ",
"W ;X2X2X;X}.;X{.|.}.;X,X:X5XOX#.} 8.8XtX#X;X:X@X1X;X{.{.oX:XoX#.( [.=X>X,X*X;X1X3X:X}.;X X X<X*.t J d.k.s.r.S H S S s.s.h.f.Z i e d.c.v.a.H G z S Z h.g.f.s.A i ",
"R {.:XtX2X:X,X;X;X}.oXOX@X=XOX-.} 5.8XpXtX=X=X=X-X2X:XoX@X5XoX#.( @X,X}.#X-X5X=XoX,X:X2X{.3.|.@.u C g.J.n.f.y.b.C G G i.H r.C y t J m.H.v.f.b.b.b.z w.a.r.a.H i ",
"E oX;X8XpX,X;X,X2X;X}.{.OX+X[.-...'.<XtXdX8X=X-X;X1X+X].XX+X}.>... X1XeXyX-X$X-X>X:X;X2X{.]. X1.u V s.K.M.f.i.c.c.y.i.Z r.d.J s i V g.H.M.u.y.c.c.r.i.i.H r.A s ",
"> #.#.9.tX8X;X-X}.@XwXwX%XXX@._ ~ =.;.|.aXsXrX%X:X<X<X'.*.*.@.O.6  .1.<XsXaXwX%X:X:XtX8X*X4.O.) + $ s a.H.M.t.i.u.s.j.n.L h r # $ $ h a.K.j.r.i.i.u.j.m.L h t # ",
"O.Q 2 E $.oX5X,X2X2XwX.X&.R 2 ; N , 4 ..:.%XaXsX1XwXrX.X&.R ; & N m 6 _ :.rXlXiXpXaXyX5.| 6 ; R +.* + $ h a.M.V.p.k.d.F u   O b [ = + w h a.j.n.l.j.r.V p O O b ",
"BX:X .8 5  .<.oXtX{.&.~ > & b J W.J k 4 q O.3.eXtX9.&.R > , n U !.J a 4 E  .].4XiX:X%.6 ; 1 o.6XAXOXM   + r z s.m.A u +   > -.zXVX8.M @ # p V f.j.A u O . : >.9X",
"nXmXjX8.{ 5 7 $.1.{ 7 > 4 J U.).(.W.C.k b q q >.<.) 2 X , K L.(.(.A.g.V , 5 W ,.*.Q X ; { 7.kXAXNXbXhX<.M + # d d w   o | #XhXCXNXbXgX<.b # $ s g #   X | 7XVXCX",
"*XpXlXnXpX1.) 7 T ; u l !.).!.C.d.K.U.c.i t s k 9 & a l C.^.R.K.u.L.Y.Y.f.i a b 8 o R 9.:XyXlXiX;XdXzXnXiX>.3 o o o ] OX,X9XkXuX5XdXxXxXuX$.8 . . o q =XBXZXlXtX",
"pX2X2XgXcXcXiX].2 m T.Q.T.I.u.C L g.v.U.B.c.+.F > N T.Q.Q.U.H.h.v.n.M.U.U.T.G.n > 2.bXNXtXfXdX:XyX,X4XjXkXzXiX,.; 2.MXmX9XiXdX,XtX2X2XcXhXkX9Xo.X 9.BXBXzXtXoX].",
":X4X2X2X6XiXcXaX, I R.M.f j w.c.d.v.f.I.B.K.P.b.% I Q.U.B.c.S.E.G.b.c.n.j.U.E.S : 8XVXuX[.].:X3X3X:X=X,X6XjXjX{.] iXVX8X].{.:X,X:X:X,X2X,XjXkX6.] gXMX].#.4.<X1X",
"*X:X;X>X,X,X3.{ b s D.e.f v a.v.y.c.f.n.n.f.C e # B M.u.c.b.h.D.c.f.C.B.f.s.w.e > *X7X].oXOX].{.*X4X,X,X,XoX,.0 W *X:X].+XoX].|.:X6X3X-X-X:X8.^ ) -X2X4.-.].@XwX",
"{.].:X2X{.>X2X{.4 u n.n.f.S.w.A a.y.y.j.J.I.w.y $ V c.H b.b.d.z.s.r.r.f.c.j.e.y 4 ;X$X4.,XtX;X#X[.{.;X1X*X2X4X%.W oX}.3.1XeX;X+X'.{.*X,X5X:X5. .Q +XtX1X1X+X}.}.",
";X{.+X;X:XaXpXrXN s d.f.f.g.a.y.r.r.r.r.j.H.S h r F b.G J J d.g.s.k.f.s.f.g.G g 8 }.>X].;X1X<X:XoX{.}.:X;X9XiX[.Q }.1X{.;X1X;XwX$X9.*X,X:X@X}.&.Q }.eX;X:X;X;X}.",
";X;X}.|.:X3X].5.b s s.c.g.f.s.c.s.r.G G d.d.Z D r B f.f.f.G Z w.S a.a.f.g.v.G y / ;.:XrX,X@X;X>XeX;X].{.4X2X[.&.' 2.2X8X3XoX}.2X,X{.XXoX1XeX+X*.' oX2X:X:X;X,X:X",
"2X:X2X+X}.>X X].N s w.t.a.u.p.i.s.j.y.b.y.z h B t v k.k.J.u.u.t.H S S s.s.r.Z g / ;.yXlX2X:X1X<X@X2X:X X}.;X}.-.{ <.9XiX5X,X:X:X#X2X5XOX@X+X4.=.{ {.;X;X-X*X-X*X",
":X*X-XoXoX+X+X|.b s w.l.l.r.y.d.i.s.s.u.f.Z j z y z t.n.B.u.s.k.v.y.H Z Z y.e.g 0 }.}.tXiX2X;X;X:X;X.X.X.X:X=X,.] OX>XrXsXeX2X}.,X:X+X.X&XrXcX2./ |.%XrX%X+XwX*X",
"*X=X,X].,.4.5.3.b p v D.K.B.k.t.y.i.s.f.f.a.l t # t h t.M.M.d.w.i.f.l.s.w.Z h t 5 3.1.:XlXiXyXoX%X;X@X5.,.2.3.@.` &.6.5XaXuX3X2X@X:X;X6.-.[.%X@.` :.6.aXdX2X>X2X",
"2X3X4X:X5.| 2 5 4 @ # u B m.I.I.c.H.U.H.l r O @ -   # t h r.f.b.y.t.l.E.E.L %   5 7 R #.3.eXiXiXoX4XtXoX,.] 5 5 6 0 ] o.5.fXpX6X:X5X4X{.-.W 5 ; 6 R Q #.OXdXpX4X",
"eXtXoX#.q X 5 5.8X| =   + s H l.K.L.L d # @ 4 9.9X] & O $ l A b.N.j.D e # = M ~.2X~ 2 8 R ,.{.yXqX4X'.@.T 3 a +.H p 3 R _ 4.OXiX9X:X].@.R & a v.A % 3 T _ 1.oXfX",
"|.4.Q o ; o.9XSXCXcX9.] @ . # s h.h + O 3 <.9XDXSXiX9./ & O $ s A s + . & >.iXDXSXdX%.} 6 7 ^ 1.#X&.T ; 3 N B.(.(.p.s & 7 ! _ XX}.&.T ; , L U.(.(.y.s : 2 T  .3.",
"} ; ; o.2XmXZXkXrXxXMXgX4.q @ + # O & o.<.8XzXfX9XxXbXuX<.4 O # %   o o.uXVXMXgXyXxXkX2.| q X R _ ; & K N.!.Q.Z.Z./.Y.y.k * 2 Q ` 1 & K N.Q./.I.U.Q.R.H s & 2 ! ",
"7 ] 9.nXMXlX9X6XoX5XpXbXbX7X2.4 & [ =XmXuXpXdX1XoXyXaXxXbX8X<.4 o [ 0XVXVXlX2X{.}.4XlX,X*X2XX.0 5 b U !./.Y.I.h.s.N.U.Y.Y.A c > q N d.Q.W.U.J.w.S.P.U.Y.U.z b , ",
"3 kXAXzXdX4X8X9XqXqX5XwXrXbXnXOX9 cXMXlX*X2X4X2X8X8X1XeXaXxXbX4.) xXZX9X5.6.@X:X=X9X,XnX8XpXZX1.t U.Q.Y.Z.s.g.E.G.H.j.l.Z.Y.R.g y U.!.Y.Z.j.G.P.G.G.s.M.U.U.Y.g ",
"0 :XdX,X4XtX2X2X4XtXyX4X,XtX;X} R :XpX].{.|.|.*X2X:X2X2X*X5X;X{ W 2XyX$.&.[.,X;X>X,XtX2X2X2X&X..r d.E.s.c.v.n.v.g.H.J.N.f.v.H w w G.J.s.n.v.v.k.v.H.J.j.c.H.B e ",
"6 oXtX{.oX;X*X;X;X*X;X8X2X,X5.{ Q ;X:X3.:X:X{.].{.,X,X*X:X,X8.Q W ;XyX|.].oX-X;X%X}.5XeXyXwXXX! $ a.M.w.J a.s.d.h.h.s.c.f.d.h $ $ b.H.r.y.d.f.s.g.a.j.f.f.g.h w ",
"R ;X3XoX;X:X3X:X;X;X;X:X;X:X{.O.' {.oX|.2X:X:X;X{.[.*X,X;XpXdX1.Q }.tX,X2X+X{.}.:X;X4X1XaXaX].@.u L k.r.y.f.f.g.h.f.a.u.f.d.V t t h.k.r.f.d.f.g.s.r.s.u.s.a.l y ",
"R oX*XoX;XoXoX{.;X>X:X:X;X:X+X%.{ [.,X:X;X{.,X2X;X+X{.oX*X:X|.#.{ oX4X;X3X:X:X;X}.{.{.].+X1X}.&.p A s.r.J G Z Z y.f.f.f.f.f.H d u L s.r.y.H H Z a.f.n.f.f.f.C s ",
"W ;X:XeX2X*X*XoX].{.}.;X:X:X}.%.{ 5.4XtX:X;X*X:X2X;X}.*X;X,X{.%.^ ;X2XoXoX*X,X;X,X>X;X:X;X'. X&.u S k.m.b.r.r.a.r.Z r.f.y.y.A u i L g.n.v.y.r.s.H w.r.f.f.a.C s ",
"W {.;XpXtX*X;X;X:X;X}.oX*X;X}.&.{ ].tXiXiX4XoX:X,X;X;X;X}.:X;X#.Q {.:X:X:X*X:X:X;X;X;X1XoX7. X&.r S s.K.b.y.s.f.d.w.H t.r.h.H d r S k.J.N.H d.g.a.S w.w.r.r.A s ",
"^ ].|.tXtX2X:X:X;X:X*X}.}.oX{.-.' 3.{.4XiXyX:X;XoX2X;X5.8.|.8.%. .|.{.tXaX:X;X*X}.:X1X2X;X].|.:.p D e.H.N.a.d.f.g.g.s.y.Z Z C d u B w.B.N.a.h.f.g.g.t.t.i.H C d ",
"> { ^ 5.,X8X,X;X;X,X4XtXoX,.| R 6 }  .5.eXjXpX3X;X,X,X|.$.#.X.0 5 } X.{.uXyXtX4X1X2X4X2X}.&.{ 6 # e e D c.v.f.a.a.f.c.m.Z i e $ # e y z g.c.g.s.f.f.k.n.w.y e w ",
"{.$.6 8 o.8.,X,X1XrX=X,._ 1 X s u.k 4 Q @. XyXdX>XeX.XXX{ 5 = b G k 3 ! *..XpXfXyXlX4X%.] X X >.9.M @ $ d e.u.V.p.p.Z s %   o >.$X8 O $ s z.f.k.l.k.a.s +   o o.",
"SXkX3.^ 5 q o.}.eX7.] q 3 & Y U.`.f.V b E { &.%X8X|...9 ; - J Y.`.C.B * q _ :.1X4X].( ; ; ' 9.nXFXfX<.b O $ l G T.N.l #   [ ,XmXDX0X+.m O # l a.h.h #     [ =XAX",
"jXlXnXtX1.W 5 Q *.! X - F P.^./.Z.R.R.B p 4 8 ] :.6 < * N L.Q./.I.R.T.H n a 5 @.&.> X ^ %.$XzXnXjXbXbX7Xo.- O # t r = M <.=XzXmXdXnXcX7Xo.* + $ *     M _.VXZXxX",
":X,XdXnXzX4X-.^ 7 > N G.^.^.U.i.x n.U.J.w.B n b 9 3 K L.W.^.U.g.r.c.!.W.I.w.c b > 5 $.iXjX9XiX-XoX9XhXbXbX=XX., O * -.jX9XuXdX:X{.gXgXbXbXOX[ =   - 2.bXAXbXrX}.",
"tX4X,X2XpXlXxXpX& n Q./.V.a.A H G.P c.U.A.V.E.j.= K Q./.A.n.c.S.G.h.t.M.I.U.I.e.> -XSXnX,X,XiX8XpX3X1XaXyXnXnXoX8 9XSXgX7XuXrXuXtX2X,XiXdXmXBX6.M iXSXcX#X{.oX@X",
"*X4X,X,X;X4XyX*Xa h A.q.t s L S.a.D.f.B.c.c.B.z # z U.B.b.b.b.P.B.I.H.g.a.B.Z.g > ,XxX*X].}.}.}.2X:X5X4X:XeXtX1.R >XxX#XXX|.{. X;X1X5X5X@X5X5X&.q fXlX&.O.7.5X5X",
"}.oX;X,X2X2X[.| n d l.y.C S a.f.k.s.u.n.J.c.z w w h l.z.p.c.b.G t.i.d.L.H.g.z w 5 oXoX5.,X>X|.|.}.:XoX*X5X-X2.8 ) }.}.].eX@XXX:XOX:X;X:X1X5X6.~ ~ }.eX{.{.].oX:X",
"{.{.:X;XoXeXyX4X4 a N.c.g.z.e.C G u.f.t.H.U.F s % n H.s.y.c.i.u.P c.i.q.y.d.A t 3 ,X*X2.:X3X<X:X[.oX;X>X#X6XgX9.W <X.X4.:X@X5XoX[.oX#X>X3X;X[.#.{  XtX>X,X#X#X}.",
":XoX|.;X<X2X<X.Xb s D.k.t.g.g.S.z.w.f.L a.m.w.j w V d.H a.a.h.I z.S.g.a.d.g.w.f 8 OX;X;X;X;X:X:X1X[.].;X:X3X<X;.Q |.:X;X:X;XwXwX;X|.|.;X1X>X{.&.Q %X3X;X3X:X:X#X",
"2X*X{.{.;X<X|.'.M s s.s.r.u.d.P g.s.H r.r.H z l p V h.f.j.e.a.a.S H a.a.d.c.G g 0 -.4XlX>X#X}.,X5X:X{.OXoX:XoX%.{ 3.yXtX@X=X;XoX4X,X{.OXoX:X+X%...}.,X=X:X*X-X:X",
"-X:X2X*X>XwX X].M s s.u.y.i.d.b.J u.y.f.y.z x h w B a.M.I.t.f.f.b.G G H r.s.G i / ,.2XgXtX>X:X:X*X0X:XOX=X5XoX&...;.4XiX8X0X=X-X~.0X:X-X:X5X+X#.^ +X5X*X*X=X5X=X",
";X;X:X].3.}.{.#Xb s w.k.n.u.J y.y.u.i.y.s.H J l r B a.j.I.p.u.i.y.y.i.e.i.s.H i q oX*X,XpXtX4XoX,X=XoX].6. X;X4...|..XtXpX6X0X~.=X-XoXXX3. X+X;.} ].;XwXyX*X[.oX",
"2X;X>X|.3.,...O.* + d H K.J.n.f.t.j.j.M.f.V t $ # # d B v.c.c.c.i.u.n.N.g.D t $ ; X.$.].tXaXpX1X;X;X<X|.:.*.#.] ! &.*.'.rXsXaX>X=X:X<X'.:.:.@.' R O.4..XrXaXwXwX",
"2X4XtX;X%.0 ; ! +.* + + s a.K.E.I.J.L.H s + O b [ @   # s C c.c.j.n.h.L s O O N X.> 2 ^ %.}.pXiX<XwXwX.X=.q 3 4 m < R ..:.%XaXsX<XrXwX'.=.q & b 4 , 5 ..XXrXsXsX",
"4X;X,.R ; 2 $.gXbX9./ .   $ v a.K.g.n #   & -.kXZX5.q @   # s G n.I s #   & $.zXMX-.E 2 6 { 2.:XuX#X:.Q 3 a F U.G.i a 4 8  .:.:XuX#X&.R : c F L.N.s % 4 Q  .3.7X",
"4. .1 X | -XvXVXCXhXgX7.8 @ $ e h r O @ [ $XbXVXNXxXtX,.m O # e h r O @ [ gXVXVXMXvX5X .R 1 6 #.2.W ; ; b b.U.(.(.U.L a : 5 ^ #.:.R 1 > N G.W.(./.U.A , & 2 R $.",
"6 > E ].mXBXlX9X2XjXzXvX9X$.2 o @ o / oX;XuXgX9X:XjXxXvXpXX.2 o . o q -XVXZXdX4X;XzXkX9.%.&.1 1 0 , k i.!.Q.T.v.H.U.Q.U.q.t = 4 R * i c.!.Q.T.n.B.U.!.A.Z e = 4 ",
"2 5.vXMXzXgX4X,X9X5X8XjXlXvXtX$.: ~.MXvX8XgXdXoX6X:XyXkXjXlXpX| - ~.AXZXzXtXoX|.>X:X9XfX;XaXwX_ : K !.W.Y.J.C.v.v.v.B.U.U.L.U - * +.!.Q.U.B.n.j.c.m.B.U.Y.P.K , ",
"q yXBXdX,X5X8XyXuX8X8X8X2XjXjX2./ dXBXtX7.[.1X2X8X=X:X,XtXkXlX2.] kXmX8.o.3.@X2X:X>X4XkX5XgXxXXXp H.Q.A.j.g.m.J.K.G.b.c.k.T.P.k r T.Q.Z.M.g.m.K.G.v.c.v.B.T.G.k ",
"0 ,X8X}.,X8X,X;X,X2X8X4X,X,X|.' R ;X:X].oX}.}.oX*X8X2X:X2X{.-.0 ^ ,X2X,.1.|.;X1X;X2X:X9XuX;X4.! w s.V.t.s.G.g.s.g.v.N.C.l.s.D $ e M.l.e.g.S.h.p.S.b.N.B.k.s.j w ",
"6 ;X4X*X2X;X}.*X:X;XoX;X5X4X8.' ) ;X}.3.4XeX+X|.9.}.;X*X;X4X4X| E :XaX:X:X+X}.+X3X:X:X4XdXaX3...w y.c.i.d.S.h.t.r.a.y.f.k.k.D w w b.n.r.S.S.a.u.k.a.d.d.n.s.l e ",
"0 :X:X|.*XoX;X:X:X:X;X;X*X>X}.&.) #X>X].@X<X1X:X}.|.*X,X,X8XdX4.! ;XwX;X1X;X+X X#X X=X*X4X4X'.&.r L u.G L L h.f.s.g.d.f.j.s.D t $ b.L.y.I P d.n.k.g.h.d.j.s.B i ",
"R ;X;XoX2X*X*X[.}.*X:X2X:X,XoX$.' 7.4X:X:X}.-X6X2XoX[.}.,X}.[. ._ #X2X+X5X5X2X;X.X;X{.[.;X;X.X*.r L t.p.c.L H Z w.r.d.g.f.a.Z i w L n.u.L I C z w.L b.f.s.s.D s ",
"E oX:XtXtX*X:X;X{.{.{.*X:X;X|.,.' 2.iXfX4X;X>X$X:X2X*X{.;X:X*X#._ #X:X:X=X*X>X;X2X:X:X4X{.3.%X&.d a.l.l.k.a.f.t.L C A h.s.t.C i d a.l.j.M.h.d.t.G z A d.s.s.S s ",
"W {.;XtXpX:XoX:X:X>X'.'. X:X+X-.Q .XwXrXuX7X0XOX5XoX%X<X X1XoX-._ #X;X7X;X}.<X<X*X=X=X,X{.|.1X&.f w.i.B.L.i.a.g.c.u.r.Z Z t.w.f y s.n.B.B.y.s.f.f.r.Z S H r.t.g ",
"6 %.3.:XyX2X,X,X>X,X5X5X:X{.XX@.] $.XX%XlXpX5XOX;X:XOX6.1.5.4.@.) %.XXaXsXrX,X=X=X:X*X,X2X].1. .# t z n.M.u.f.d.y.f.j.g.s.A s w $ i D n.M.u.d.f.y.n.g.k.s.C h $ ",
"{ W 8  .|.,X2X*X#X5X5X1X7.{ T 2 b M / #..XaXlXeX*X,X4X[.$.^ 9 5 b m q %.+XsXjX,XeXiXiX1X1.0 7 q M O $ d Z k.m.L b.y.f.s.h #   & M O # h w.m.k.H y.b.g.w.s #   & ",
"lX5.Q 6 Q $.oX8X9X5X].@.T ; * V J.V a 8 { *. XaXfX:X'.@.T & b F J.F 4 8 ( 1.:XgXpXeX}.^ 2 > ) 9.vX-.4 + $ h L H.b.L F p   . ] 0XzX$.* + $ B a.H.N.L V r     M $X",
"BXxX8X1.R 5 { 4.{.&.T ; < n B.(.).R.v.n b q _ '.+X@.T ; : N B./.).E.H h 4 q ..'.oXo.2 ; q ,.8XDXAXzX5X+.* + w B A r O . 4 9.zXSXAXzX,X[ * # w D V r   . q 9.bXSX",
"4XdXvXlX-X$.0 7 _ 1 X N K.Q.W.U.n.U.Y.e.i a 8 ! _ 7 & N N.!.W.W.K.U.Q.I.G a 4 ) ^ X 2 -.9.9XkXgX5XjXbXcX-X[ % # # O * ,.hXVXNXiX4XjXMXhXOX( % # # O & <.cXVXMXpX",
"5X,X8XjXxXkX*X$.8 4 U !.W.U.c.C L v.B.Z.l.H L n 3 m P T./.Y.N.r.H.j.B.Y.Y.M.F c 5 X.0XmXuXuXzX*X2X2XuXcXxXdX~.( < o.pXZXMXgX2X2X:X6XrXxXxXdX~.M & -.kXSXVXtX+X|.",
"6X8X2X5X5XdXxXkXu J Q.A.x l H v.a.b.b.L.B.B.Y.x.$ d.Q.Q.M.j.H.P.N.H.N.y.M.A.Y.q.X fXAXkX*XoX2X6X6X,XwXeXtXjXbX$X) gXZXiX}.[.3XtX7XwX2X2XwXxXbX9.) cXMX;X1.6.1X:X",
"-X,X:X:X:X2X}.=.4 s I.l d z r.f.u.y.g.H.v.k.S f # V K.s.n.c.v.f.c.m.N.N.H.v.S e , ].uX[.OX|.|.[.;X:X3X4X,X4X}.} W oXtX8.{.oX}.{.3X:X;X2X,X;X5.R ~ ;X8X&.%.].;X3X",
"].#X;X2X2X1X%X4.4 d Z.n.a.w.H a.a.i.y.v.K.J.w.y % l H.t.f.d.a.s.r.r.a.d.f.v.e.e 8 +X7X5.5X2XoX{.{.oX*X*XoX;X|.| ^ ;X;X4.,X1X{.{.|.;X;X,X:X,X*X .W *XiXoXoXoX{.*X",
"#X#X{.oX:XwXgXuXm y l.v.h.y.G w.i.y.s.s.H.H.r.y % l c.w.s.y.d.s.c.b.d.s.s.s.S y 8 {.#X7.:X2X:X:X{.oXoX:X,X2X{.&.^ |.;X[.,X2X:X:X[.oXoX;X4XpXpX3.Q {.tX:X,X;X}.oX",
"*X*XOX}.:X>X|.4.8 h l.a.L f.u.a.G r.r.H f.f.Z l u V g.a.y.G r.r.i.y.a.f.k.k.w.f m 8.6X2X@XoX2X:X:X+X{.}.:X:XOX1.{ 5.4X4X}.oX2X,X:XoX{.}.*X:X|.X.{ oX2X;X,X,X;X*X",
",X>XoX[.oX3X:X|.m v t.d.a.f.f.f.f.f.a.r.a.G z V % V f.k.m.i.r.a.G H Z r.s.h.z.g m 2.7XgX5X;X,XoX:X>X}.oX;X;X5.#.{ 2.4XiX;X;X2XoX3X:X*XoX*X:X*X,.^ {.1X}.*X:X:X:X",
";X:X5XoXoX:X#X'.M h e.g.v.r.H f.s.s.f.c.d.C l z $ B a.B.L.v.f.s.u.f.i.D r.f.H i 8 5.%XiXdX2X;X:X;X,X:X}.*X4X2X3.' 8.2XpXpX8X;X;X;X,X:X*X*X:X{.&.{ {.,X2X3X;X*X;X",
";X#X*X].4.3.XX'.8 y j h.G.H.c.s.i.r.r.f.h.H h s % s D s.N.c.d.r.y.f.a.d.f.H l y / 6.7.,XfXyX2X1X;X:XoX5.2.}.tX}.^ 4.[.:XiXyX;X:X:X;X}.3.4.].5.%.} 8.[.tXpX4X;X#X",
",X*X4X:X1. .) 0 & w y g a.L.I.k.M.M.H.v.J i e $ + w e g r.f.v.k.s.f.f.v.J i $ $ < ^ ) 1.oXiXjX1X*X:X4X;X&.| ^ 2 6 ^ { 4.:XpXpXtX;X,XeX{.-.| Q 6 7 ( ' 2.,XpXiXtX",
"6X8X*X2.| ; > %.{.q . @ % h l.I.E.U.N.l r   . -.-X5 . + r l e.x.k.m.a.h #   X <.9.5 ; 6 { 3.>XiX0X9X+X;._ 3 & Y l * 3 `  .XX5X9X0X9XoX&.) 3 * Y k = 3 ) @.'.,XkX",
"-X9.| 2 X ^ -XMXFXuX$.4   + w l v.V $     [ 9XBXFX5Xo.4   + y B a.l # O o [ -XAXAX,Xo.W 2 6 &.7.5X2.) 7 & b b.^.^.C % & 5 E #.7.5X,.) 7 : n G.^.).V % & 7 ) @.9.",
"$.5 o 0 8.vXBXzXgXbXxX0Xo.*   O r + . 0.<.$XvXMXgXxXbX-X+.&   @ u O . q 9.MXZXvXkXmXjX%.' 9 ; { @.5 & a U T.Q.Y.U.!.T.A a < 9 ` @.> & b +.U.Q.Y.U.Q.E.A a & 9 ..",
"7 q ,.gXBXMXdX-X#XuXcXxXkX*X| ;   4 <.gXuXuXjX@X#XuXhXnXcXoX| ;   4 <.bXCXbX8X*X{.uXkX*X}.2.T 7 1 4 P P.Q.Q.I.z.r.L.!.!.K.D = 3 5 m P E.Q.!.B.z.J U.R.U.M.h * & ",
"7 5XZXMXdX2X2XiX9X9X-XtXpXxXxXXX8 9XAXkXeXtXtXeXfX5X,XpXaXNXMX%.q dXAXzX,X}.oX;X,X,X8XkX4XpXMX*.= G.Q.W.L.C.H.F.J.d.Y B.U.R.P.h * P.^.!.B.C.k.F.B.s.c.B.U.R.E.d ",
"0 tXxX8X4X4X4X8X5XyX4XiX,XwXfX;.Q 8XvX@X6.OXoX}.@X:X,X8X>XtXaX&.R sXlX-.X.5.:X:X,X,X4XpX:X3XpX&.e n.U.V.V.v.g.G.D.H.B.c.i.B.k.e e C.U.p.n.n.S.H.H.J.M.u.J L.M.y ",
"8 ;X2X*X3X:X;X;X@X:X1XtX6X,X]./ ~ .X+X6.eX@X5.oXoX5X*X>X4XoX;.8 Q ;XtX].[.].{.2X-X;X2X,XiXtX%.R y L f.w.u.n.d.J j.j.f.N.c.H h e t c.k.w.t.f.d.J a.g.p.Z.B.J i w ",
"R }.2X*X=XoX:X*X:X1X;X*X;X,X9.X.^ 1X X4.3X>X5XoX|.#X*X>X*X4X9X-.( |.uX%X>XoX}.oX,X}.:X8XtXwX'.#.t L g.h.P J u.x.u.J P d.k.I.k.u t a.H.h.P Y u.x.y.y.P H f.g.D y "
};
