/* XPM */
static char *_709858080779[] = {
/* columns rows colors chars-per-pixel */
"80 80 177 2 ",
"   c gray12",
".  c #2C2D2D",
"X  c #232325",
"o  c #3C3C3C",
"O  c #323536",
"+  c #312F30",
"@  c #3E3E42",
"#  c #423F41",
"$  c #3D4241",
"%  c #3F474A",
"&  c #424344",
"*  c #474946",
"=  c #4A4B46",
"-  c #45454A",
";  c #49464A",
":  c #45494B",
">  c #4B4B4C",
",  c #484647",
"<  c #504E4F",
"1  c #4D504E",
"2  c #52514F",
"3  c #4D4D51",
"4  c #474B56",
"5  c #514E53",
"6  c #4E5152",
"7  c #495257",
"8  c #535354",
"9  c #585555",
"0  c #565956",
"q  c #585956",
"w  c #555559",
"e  c #59575A",
"r  c #56595A",
"t  c #5B5B5C",
"y  c #615E5D",
"u  c #5E615E",
"i  c #62615E",
"p  c #5E5D61",
"a  c #535760",
"s  c #615E62",
"d  c #5F6162",
"f  c #5F6468",
"g  c #646464",
"h  c #696665",
"j  c #666966",
"k  c #696966",
"l  c #656569",
"z  c #69666A",
"x  c #656969",
"c  c #6B6B6B",
"v  c #716E6D",
"b  c #6E706D",
"n  c #73716E",
"m  c #79716F",
"M  c #6D6D71",
"N  c #716F72",
"B  c #6E7272",
"V  c #747373",
"C  c #797575",
"Z  c #7A7876",
"A  c #757579",
"S  c #79777A",
"D  c #76797A",
"F  c #7B7B7B",
"G  c #827E7C",
"H  c #827A74",
"J  c #7F817F",
"K  c #83827E",
"L  c #7D7D81",
"P  c #817F81",
"I  c #7E8284",
"U  c #848383",
"Y  c #898685",
"T  c #868887",
"R  c #8B8985",
"E  c #858589",
"W  c #89878A",
"Q  c #858A8A",
"!  c #8C8B8B",
"~  c #918E8B",
"^  c #918D84",
"/  c #8D918D",
"(  c #93928E",
")  c #8D8E91",
"_  c #918E91",
"`  c #8E9193",
"'  c #949493",
"]  c #9A9694",
"[  c #979894",
"{  c #9B9996",
"}  c #949699",
"|  c #99969A",
" . c #969B9C",
".. c #9C9B9B",
"X. c #A29D9C",
"o. c #A59B9A",
"O. c #9EA19D",
"+. c #A2A19D",
"@. c #9D9EA0",
"#. c #A29EA2",
"$. c #9EA2A3",
"%. c #A4A3A3",
"&. c #AAA5A3",
"*. c #A6A9A6",
"=. c #ABA9A6",
"-. c #AAA7A9",
";. c #A6A9AC",
":. c #ACACAB",
">. c #A4A7A9",
",. c #B2ADAC",
"<. c #B1A8A6",
"1. c #B3B1AE",
"2. c #BAB2AF",
"3. c #AEAEB1",
"4. c #B2AEB1",
"5. c #AEB1B3",
"6. c #B4B3B3",
"7. c #BAB6B4",
"8. c #BCB9B6",
"9. c #B4B6B8",
"0. c #BAB7B8",
"q. c #BDBBBA",
"w. c #B7B8B9",
"e. c #ACB0AF",
"r. c #C2BBB6",
"t. c #C3BDBC",
"y. c #C8BDBB",
"u. c #BFC0BC",
"i. c #C5C1BE",
"p. c #CBC2BE",
"a. c #BEBFC1",
"s. c #C4BFC1",
"d. c #BFC1C2",
"f. c #C4C3C3",
"g. c #CBC5C3",
"h. c #CCC9C6",
"j. c #C6C6C8",
"k. c #C7C9C9",
"l. c #CCCBCB",
"z. c #C7C7C7",
"x. c #D1C6C4",
"c. c #D3CAC6",
"v. c #D8CDC7",
"b. c #D4CDCA",
"n. c #D9CECC",
"m. c #D0C7C8",
"M. c #D6D1CD",
"N. c #DBD2CE",
"B. c #DCD8CF",
"V. c #CECED1",
"C. c #D2CFD1",
"Z. c #D8CFD0",
"A. c #D4D2D2",
"S. c #DDD5D2",
"D. c #DDD9D5",
"F. c #D8D6D9",
"G. c #DDDBDB",
"H. c #D6D7D6",
"J. c #CFD0D0",
"K. c #E0D4CE",
"L. c #E1D6D3",
"P. c #E2DAD5",
"I. c #E3DCDA",
"U. c #E9DEDC",
"Y. c #E5DBD7",
"T. c #E5E1DD",
"R. c #EAE1DD",
"E. c #E5DFE0",
"W. c #DEE2E5",
"Q. c #E5E3E2",
"!. c #EAE5E2",
"~. c #ECE9E5",
"^. c #EBE7E8",
"/. c #F1E5E4",
"(. c #F2ECE9",
"). c #F6EAE8",
"_. c #F3F1EE",
/* pixels */
": ` *.{ ] ] ( / R ^ G G F U F 8 % p L >.3.-.&.....X.X.' ..5.Q % - L -.] [ { X.] [ ] ' ! ' ! E U J K Z G ~ E 5 3 4 e Q >.=.%.%.-.%.+.X.{ [ =.Q % : w p M L E L w ",
"x 9.H.I./.)./.!.!.~.T.T.T.H.6.Z - L ;.V.A.A.D.N.D.D.D.D.T.E.$.: 4 @.l.D.D.D.!.).~.~.!.!.!.!.R.T.T.I.U.L.g.q._ $ 4 L :.z.A.M.A.A.D.A.S.I.T.T.$.% M $.0.z.Z.D.A. .",
"V 6.M.v.L.L.P.U.I.R.T.D.M.M.6.F # Y i.K.T.T.Y.U.L.Y.T.I.Q.F.| # L 9.3.A.M.b.S.S.P.P.K.P.P.I.Y.Y.Q.c.A.Y.7.#.:.t & ! f.D.T.L.Y.Y.P.P.L.Y.I.G.| $ U N.U.S.P.U.I.o.",
"S 7.D.L.K.L.n.L.S.S.B.h.l.D.u.( = Z i.Y.N.N.K.K.L.L.B.N.I.Z.#.w A #.4.D.P.S.S.S.K.K.K.K.N.K.K.P.H.t.g.I.n.,.:.I # P y.D.K.K.L.n.n.L.L.L.P.N.%.t ^ I.Y.m.x.M.v.K ",
"l =.R.Y.K.Y.L.L.P.P.I.M.D.I.M.=.s z r.R.N.K.L.K.L.L.N.N.Y.c.#.p g ! p.T.I.N.L.B.K.K.K.K.K.K.N.K.D.b.N.S.U.Z.6.[ 2 v r.R.v.K.K.K.D.L.L.K.L.m.| p +.!.Y.n.K.L.B.( ",
"g &.P.K.p.K.N.B.N.B.B.c.g.D.D.8.N s ,.R.N.K.K.L.Z.K.K.B.Y.8.] t l T i.I.B.N.L.N.L.K.K.K.K.K.K.K.h.c.S.x.A.b.6.t.k i 7.R.N.K.K.K.P.L.L.K.L.r.) g ] P.Z.c.n.m.M.~ ",
"c +.D.P.K.K.K.P.K.B.v.M.b.D.c.=.M z &.T.K.B.S.S.n.N.L.v.B.=.R r z ! 2.T.B.B.L.L.B.N.N.B.K.K.N.b.M.p.N.N.n.c.,...N z 1.T.B.B.K.B.b.b.N.S.S.:.L p R h.N.Z.n.D.Z.Y ",
"c ' v.T.K.K.K.P.N.N.c.N.N.M.b.=.d V *.H.I.M.b.Z.N.N.n.M.D.:.T 6 c ! ( P.K.Y.Y.N.D.S.S.D.D.D.M.c.B.M.n.n.c.Y.r.U z N %.A.D.D.N.b.D.b.N.S.S.-.L g [ D.D.n.n.I.F.E ",
"z | r.P.(.Q.E.D.K.D.R.T.P.Q.N.o.j c %.6.I.^.I.Q.T.!.~.6.Y { ) 5 s ] | q.M.G.G.~.~.U.Y.Y.S.N.Y.U.!.I.Z.P.E.Z.o.] z N #.6.G.!.Q.Q.T.T.~.1.R [ U z | Q.Q.g.D.T.{ H ",
"C ~ U R | &.q.g.c.D.&.+.h.c.i.&.j V ] E ..-.4.7.=.:.X.N < M S w v ] K T R { ..%.,.7.y.g.c.B.g.<.X.s.m.g.m.g.&...g c ' ! @.:.6.6.1.1.+.c 0 b V V X.:.Z._.Q.X.y z ",
"v H h y g g V C K K k i n n n ( k B F u e e y y u t e p h M s # k K k g t i i l i c V n F R F u y C V c C U T [ l c Z r 9 e s y q 9 t i k i w c C y ~ m.r.C 9 y ",
"9 s s h v v k l i j n b b V l k r 0 t 1 w 8 t 9 e e p s l 5 5 p q l w i l z g c n c c c j j b b V g g c n l t b i t g 8 e 9 9 w 0 q t q t 8 < l v e s S V s s t ",
"# ; , < e y l h i j t j j 1 = = 0 1 0 8 t w w > 8 3 - ; 7 a a 5 & > & > > ; : 8 u 1 0 d u u g x l l c g t t 3 & = & > 1 t r 5 5 6 8 8 > ; ; ; 4 < g y w t > - o ",
"c c s w w 5 > > r > 2 q 1 8 I [ ;.e.e.e.:.*.=.%.3.$.L > @ w w ; w l M B c B M B x i u d u 8 $ . d r t 3 - > l E $.$.:.e.6.,.:.:.3.*.-.e.%.Q l & # e > > l l V A ",
"j.f.s.9.3.>...| g , # < C 7.A.l.k.k.k.z.z.l.J.A.j.J.V...M - @ L 6.q.k.k.j.f.a.w.u.6.1.*.%.O.` Z ; < 6 - N -.k.H.k.k.J.k.k.k.z.z.k.k.k.j.k.A.a.} r > , W a.f.l.f.",
"f.a.f.f.j.l.V.H.z.R # S A.l.q.f.f.d.k.k.J.l.k.k.d.q.u.V.l.A & 6.G.k.a.d.d.d.a.f.f.f.z.l.z.l.M.A.4.z # V l.F.q.u.d.d.d.f.k.l.l.b.V.k.j.f.d.d.k.V.C.V 8 9.G.d.d.d.",
"l.Z.M.N.M.D.D.i.d.a.p D H.b.i.b.M.n.N.L.I.I.I.Y.A.A.p.b.z.N p ;.7.M.D.A.b.D.m.m.M.B.v.B.M.B.k.u.a.9.3 A A.M.g.f.N.N.A.L.S.P.Y.U.Y.K.K.B.p.p.p.h.j.D x ,.t.B.D.v.",
"N.A.b.M.D.P.D.t.>.3.d A f.M.D.T.P.P.D.S.S.S.S.N.P.U.A.S.%.g L a.+.i.S.P.c.n.n.L.h.v.N.P.I.D.i.*.@.6.p B q.c.D.B.I.P.S.N.n.S.D.P.K.N.P.P.T.T.D.M.[ d J 1.6.I.P.N.",
"A.S.n.D.P.I.S.p.>.3.V D 6.z.B.S.P.P.S.S.S.D.S.S.S.L.P.l._ z E 9.h.D.D.Z.y.c.N.I.B.M.S.L.P.I.i.*.>.5.c Z :.q.c.M.D.S.S.D.D.S.A.S.K.B.K.K.B.T.M.1.} D ! q.c.T.g.r.",
"N.L.S.P.S.S.P.b.9.w.I U q.M.M.A.N.A.S.L.P.S.S.S.D.n.G.r...V > L M.T.D.D.n.S.N.S.B.B.B.N.N.D.M.u.9.5.S E 6.g.D.M.N.D.P.P.L.L.S.L.B.B.B.B.T.B.h.8. .Z * / D.R.B.N.",
"Z.L.P.L.N.N.Y.L.5.3.I F 1.A.B.h.c.b.n.S.D.L.P.P.D.A.n.8.9.A X l 1.B.S.Y.L.S.n.L.B.B.B.N.S.L.I.q.$.3.I D %.h.T.h.m.c.c.g.b.N.L.P.R.R.B.B.T.h.p.8.9.G . n M.D.N.P.",
"N.L.S.S.S.S.I.N.` ) A x ' M.I.M.c.x.m.x.g.g.m.c.b.S.g.t.6.M > Q <.P.S.N.n.n.n.Y.M.B.N.K.L.L.I.-.L ) V g ! 7.T.D.N.A.b.c.m.g.g.g.p.p.p.K.B.i.p.u.6.V 8 R h.I.B.B.",
"L.S.n.S.L.L.Y.m.} ) D g ! c.T.B.I.Y.L.A.b.c.c.b.N.P.A.f.| z M | #.L.P.Y.L.L.N.N.K.N.N.K.N.L.D.X.Q ) A l T <.D.I.P.Y.Y.P.L.A.n.c.p.p.v.M.D.g.M.7.} l B ' t.T.P.B.",
"L.L.Z.L.L.L.L.m.@.` D g ] M.D.D.N.A.D.D.P.P.Y.I.P.S.R.i.S c A W &.S.D.L.n.K.Y.K.N.K.U.K.K.A.M.X.` } D t K 8.P.M.S.S.S.S.L.D.P.P.R.K.T.P.T.M.T.:.U c c ! f.R.D.v.",
"L.L.L.L.n.Y.Y.y.] ' A i ' ,.M.T.U.Y.Y.!.R.T.P.U.G.7.B.i.R l c ' o.y.!.D.h.I.H.N.Y.n.Y.N.n.Y.n.o./ ! F q ( ..6.G.U.U.I.I.U.I.U.U.I.I.T.T.1.p.R.=.! g c ! 4.E.S.P.",
"E./.E.Y.c.b.I.Y.' ] F c F V $.k.m.c.c.m.h.v.B.N.z.q.M.6.! l C ' R ,.G.D.b.T.!.~.Q.P.n.m.L.).N.o.! ( Z g ! b Z 6.c.m.c.c.c.c.c.c.M.b.M.c.7.u.c.,.! c V ! o.n.Z.b.",
"r.7.4.m.~.Q.q.R ] ' Z V U g c V n n V n n Z F F n Z / ( | g A W ( =.M.c.8.r.7.7.1.g.T.(.I.4.~ ~ %.( Z n T j c D c n n n n n V n G Z G Z J K ( +.` u c _ X.m.L.y.",
"c k h U X.[ Z q U ' U j V c Z B Z n c n b k c c b c i D ] t A W ] ~ ] ~ C c l i c K [ %._ z t V ( / E c k j Z V V V b b b b c b l h k v n i i R } t N ' W ~ ^ n ",
"l c g d l l M S r F E l t h Z U J b x g g x l d c b g c U t E ' i 8 t g i g c c g k g t g n n c t U E d t c V S J D B M j g d d z c c z N h t N W t S ! g e g h ",
"g l p g l g l s t x M g t g g l d d l p d c g > . 1 g j B t L L g q u j g g g i g g g g c b c e d c c p p l s g l l l g g g g x c p # O ; p l l D p S L t r g g ",
"s z g s w 5 8 8 t 3 & @ , : > ; 8 w t p p d p - O * i r t 6 f t g g g d u u j g y y y g g e e g t > ; > & > 3 > : : ; ; ; ; : : 4 # . X + > 5 3 ; & r p g g j d ",
"e 5 - 5 c W @.| ]  .| ` ) ' ) P r & ; e 3 - - ; 2 $ & o - $ # 4 1 6 6 = : * & $ 9 8 , & * > 9 p p c d c M M c A V V S L P U E E W W ) ) E S M N M l s 3 3 : 0 u ",
"3 & S 3.z.l.c.z.V.l.l.l.V.J.J.A.8.~ 3 $ 6 e v n D F I Q ` }  .$.$.O.O.` ` Q ! A 5 s L P _ | :.1.u.u.q.w.q.f.j.f.k.j.z.k.l.l.k.k.J.l.l.k.l.k.k.k.k.u.7.,.| L 6 = ",
"3 P l.l.q.i.z.t.f.z.z.z.z.f.u.q.g.l.9.g A a.i.g.k.l.l.l.J.l.l.l.k.k.l.k.J.J.G.J.p _ C.C.C.j.i.u.q.u.f.l.A.k.z.u.f.f.f.z.l.z.l.l.f.z.z.f.f.q.7.6.6.i.i.i.A.A.E $ ",
"- ..G.V.s.z.M.l.M.B.B.D.D.M.c.p.8.Z.k.M | ^.l.t.l.c.M.M.l.h.h.c.h.c.M.c.S.z.q.6.e W F.s.4.q.z.l.v.M.M.l.M.P.R.I.G.I.I.I.D.D.I.I.D.I.I.I.D.S.P.I.A.D.c.l.b.F...8 ",
"> } V.F.D.D.S.G.S.P.P.P.P.P.P.L.G.m.>.d ` f.c.B.D.P.P.P.Y.R.U.U.T.P.B.T.T.8.&.=.s E G.A.b.I.G.!.R.R.D.N.v.N.N.c.N.L.B.b.v.v.N.N.v.b.v.n.M.B.P.Y.H.D.I.U.b.i.%.V ",
"3 ! 7.m.H.D.A.S.N.N.N.v.N.N.K.L.D.t.' l ! >.f.T.P.K.K.N.N.N.K.N.N.K.K.P.N.=.o.+.g L l.H.I.!.P.L.K.v.n.L.L.v.x.v.n.K.N.n.v.N.N.N.K.n.v.v.v.v.v.x.h.p.c.Y.L.m.<.v ",
"e { t.l.M.P.P.S.Y.L.L.K.K.L.L.Y.S.8...V ] 6.7.D.K.B.N.K.K.K.K.L.K.R.T.D.S.7.=.&.c E 6.t.h.B.N.K.L.B.n.L.L.N.N.Y.K.L.K.n.b.N.K.N.c.n.n.K.L.K.n.n.M.c.g.L./.g.] y ",
"< ! t.D.b.l.c.m.L.S.L.K.S.S.D.K.M.2.%.c F 6.r.P.L.N.K.L.Y.U.U.U.R.U.M.h.H.u.1.O.d ` q.A.P.P.K.N.b.S.Y.S.N.S.L.S.Y.S.Z.n.n.n.c.v.n.Z.S.n.c.m.x.x.D.K.N.K./.y.R h ",
"9 v X.G.P.c.c.b.m.h.c.c.c.N.N.M.8.q.7.j 1 ..i.B.S.S.L.L.Y.L.B.N.N.v.M.M.H.u.$.Q d ] 6.b.Y.S.K.Y.g.N.L.P.L.P.L.D.D.n.c.n.A.N.b.N.n.S.S.n.g.g.c.A.M.N.v.x.L.y.! s ",
"5 N ' A.Y.L.Y.K.M.N.c.p.p.N.M.N.B.2.] r 8 -.h.P.N.N.S.v.c.N.v.v.v.N.c.M.D.&.R J u O.q.M.I.P.L.p.K.K.K.P.B.K.K.K.c.n.n.n.Z.Z.Z.n.A.n.g.i.p.M.B.N.N.K.K.c.P.i.( i ",
"> c &.A.P.N.N.K.P.S.P.T.P.P.P.P.B.q.E e M -.8.I.p.p.M.N.B.S.v.v.v.B.b.D.B.&./ V i %.1.f.Y.v.c.p.Y.P.K.N.K.K.K.K.c.n.n.n.n.N.N.L.x.x.v.M.v.N.n.b.v.v.v.v.T.i.( j ",
"> c | q.I.R.Y.Y.D.D.D.P.T.T.M.i.P.8.F t U ..=.n.q.i.M.c.v.N.b.N.n.A.b.N.M.+.' V t ' ! 7.R.B.T.R.N.K.N.S.P.P.N.N.D.S.D.D.S.b.n.m.n.n.n.n.N.n.N.N.K.K.M.D.R.c.] u ",
"- V Y ! t.S.S.B.I.D.G.P.B.T.B.q.B.7.E z D ~ &.7.6.M.T.D.c.B.N.M.b.D.c.D.z...{ D > A ! i.~.R.R.R.R.R.~.R.I.B.M.N.b.n.Z.A.A.A.D.I.Y.E.E.Y.S.P.D.S.b.Y.T.B.h.7.] h ",
"8 U P h Z G U Y U F T ! R / ! R X.+.T x S ] 6.q.[ 6.G.I.T.T.T.T.P.P.H.I.f.' ' V & c | 4.<.| { { { { ] ( R K K K K K Y K P R ~ ] o.,.r.y.m.N.n.i.n ^ X.R V Z ! c ",
"9 V c h v l k g c l i g l g g k i ! Q d I ' { { Z K [ O.+.,.,.1.7.t.b.U.b...[ B - p | | z y i i j i i i g l h i k k c c z i y y g c N N F U U Z i g c g s c E z ",
"t y i N P E U V c c c j n c c C 9 m U r U T n K O.R T K K K K K K Y ~ { ..! ` B - 5 W P k v v b k j h h k k h i v C F Y T U G Z B c l g s z j j b c c b c l V t ",
"y i s g M V l l p d t t 0 & $ u i k F 0 J J c K / Q / ^ ( [ R ! ( ^ R Y Q ! Q g 3 5 A N y l i i i u u t 0 q u g t i i h g h h h d d d x l g f j f j d i l e s 3 ",
"> > p e f w > 3 > 0 i c k o . O l d a 6 w M N z p p r r r d b D S S S E J g 8 : ; > g t = $ = = 6 8 r s s 5 4 : p a w 4 4 & - - ; ; 3 3 ; 4 w p s s p e r > : * ",
"t ; $ 3 = 1 L ! { O.:.1.,.:.5.Q $ o @ 8 c S P E L V c B B c r * 5 p s > : t t p a - - 6 = 2 K ( [ O.6.0.6.3.3.I % @ @ e M A S L P Z A A S V s , 5 a e - - p g g ",
"3.4.U p o J W.J.k.h.h.g.p.H.W.$.> L | 6.d.j.l.j.l.J.V.k.l.z...g > - 8 6 I 6.6.t.:.:.J 0 o J H.k.j.V.l.s.z.F.W.;.: L ..6.s.l.C.l.z.M.J.z.z.z.#.g ; ; e w U 9.6.9.",
"l.l.4.>.j K A.H.M.G.D.I.T.k.u.I  .A.l.f.q.0.0.0.q.6.q.i.q.%.&.1.l > o x s.Q.z.l.C.Z.q.+.c K l.J.l.E.P.S.Q.V.q.E ' V.k.s.0.0.s.4.8.7.q.i.t.,.&.,.g > # z 0.E.z.l.",
"I.A.c.q.c Z u.H.!.Q.L.Y.T.i.%.J | l.f.l.C.Z.Z.F.M.M.A.T.T.8.{ X.>.S o g q.A.m.P.I.A.c.0.v n q.H.G.T.I.Y.E.y.+.J O.h.i.c.F.Z.A.S.N.v.M.T.T.8.] o.;.S o t t.H.n.D.",
"A.U.~.7.g V e.i.T.M.n.c.D.g.e.K ~ P.I.I.I.I.I.L.D.I.N.n.U.R.c.2.s.>.e M 0.c.b.A.A.E.!.8.k V 7.l.T.b.c.b.S.z.1.T ^ T.T.R.I.P.P.P.T.R.B.v.R.R.c.r.f.>.t c 7.c.Z.N.",
"Y.n.U.8.h q +.D.B.c.n.c.S.v.:.K ~ I.S.r.2.Z.Y.L.b.N.Y.Y.B.N.P.R.6...l n 6.L.U.P.P.M.D.7.h 2 #.F.T.c.M.N.Y.n.,.F K T.B.r.1.v.L.L.N.B.B.P.v.v.L.U.6. .c V ,.S.E.L.",
"m.n.Y.7.i = ,.B.M.c.N.n.U.p.R c Y D.U.S.g.L.S.N.P.N.B.N.n.L.Y.c.` V e k X.S.Y.P.c.M.I.8.h 8 %.G.p.v.K.v.S.t.R v K P.T.M.p.Y.L.N.K.v.N.K.N.P.Y.n.} V t k #.D.U.L.",
"v.v.D.2.h N %.:.7.M.B.M.T.q.R V R M.p.n.L.L.S.S.S.L.Z.L.S.L.Y.n.{ V r c @.D.N.n.n.m.Y.2.g v *.:.7.M.D.b.Q.r.R N ^ B.g.n.S.L.S.L.L.L.Z.L.L.L.L.N.{ C w c #.S.Z.n.",
"N.N.I.2.C V ..9.=.M.T.T.D.1.K v R D.c.S.L.L.L.S.Z.L.Z.S.N.S.P.n.{ J p c @.A.n.c.n.N.U.4.m V | 7.=.c.T.I.P.2.P v ^ B.v.A.L.S.N.L.Z.S.Z.L.Z.S.L.Z.] Z p M #.S.n.v.",
"N.B.P.&.k N ) :.K { 7.i.Z.t.! g Y D.D.L.K.N.S.A.K.S.S.L.S.S.L.Z.[ K u c >.L.N.N.n.D.I.&.k n ' :.K +.7.i.A.q.! h R D.L.D.S.N.N.L.S.S.S.L.N.S.L.Z.] Y s z #.F.N.K.",
"h.b.U.2.v v E A R R R R ] ..R v R D.Y.L.L.L.L.S.L.L.S.L.S.L.Y.A.{ R d x #.A.N.N.m.n.E.7.k v Y V ( R Y Y ' ..Y M ^ D.P.P.S.L.S.L.S.L.S.L.L.L.Y.Z.{ Y s z -.A.N.n.",
"n.b.c.:.c M E A R T R R W ! V z ~ D.P.S.L.L.L.S.S.L.S.L.S.L.P.n.[ Q f M ` l.P.n.Z.c.b.,.c c Q V K K R T W ! V c ~ H.P.S.L.L.L.S.L.L.N.L.S.D.Y.n.] Y l c ' l.P.n.",
"I.c.,.' c t D E V V V F P Z s l ' M.P.N.L.L.L.A.Z.Z.Z.Z.n.N.L.n.( I x d A f.(.Y.E.b.:._ c p D U V n V J U F s z ( Z.P.Z.S.L.L.S.n.N.Z.N.n.N.L.b.~ U x g V t.(.Y.",
"i.<.] F w @ : 3 q t t h l r & l ( b.L.L.L.N.Z.n.n.Z.n.Z.b.N.D.c.( T d r c &.l.p.y.,.] F e @ : > q t u j l e # z ] n.Y.S.L.N.Z.Z.Z.Z.n.n.n.n.S.b.' U d r c =.c.y.",
"K C G N w B  .} { +.%.:.>.S & l _ Z.Y.L.L.n.n.n.Z.N.n.K.N.N.D.c.[ / u r B U G H Y C F c w V  .[ ..+.%.:.%.S & g ( c.E.L.L.m.n.n.N.N.N.S.n.Z.S.M.[ ! d r N T G H ",
"F S t r U 6.z.H.k.f.i.p.H.A.B 7 Q h.Q.Y.n.m.g.M.M.N.A.n.N.A.S.N. .Q r r L S U E L L t r E 6.l.D.b.l.g.z.A.C.M 3 ! h.U.Y.n.x.p.M.N.N.b.A.N.N.A.N.` ) a e L A U U ",
"8 8 t Q 4.3.6.b.b.g.u.7.u.j.A 7 ! l.I.n.c.x.c.v.b.N.N.b.N.N.N.n. .Q x 6 d c l M w 3 e E :.:.,.c.c.g.p.8.f.j.A 8 ! l.P.A.c.m.h.c.b.M.N.b.S.N.S.n.@.E l 3 g l z c ",
") | %.4.6.,.8.b.S.Q./.c.i.h.U e E f.D.c.n.n.c.c.c.b.N.n.n.S.N.b.@.I d & 3 g V P ! | %.4.1.,.8.M.D.L.H.z.f.k.L r U g.D.c.v.Z.n.c.b.n.N.N.n.S.n.N.@.Q g - > t V U ",
"z.A.l.t.t.b.L.A.x.U.).Y.B.M.U a U g.L.m.N.B.M.M.b.b.n.M.n.N.N.A.[ T d Z >.:.q.f.l.H.A.s.t.M.P.M.c.N.P.N.A.A.U t U g.S.b.N.S.n.N.n.b.M.N.N.N.N.A.| E p V %.,.y.f.",
"c.C.M.D.D.U.U.A.c.n.K.K.U.c.V w ! c.Y.b.N.n.c.D.N.n.M.N.b.N.A.L.[ I j ..G.A.i.f.l.b.A.A.S.I.P.N.c.N.N.D.Q.C.S 8 ! c.I.c.N.M.M.B.n.N.N.b.n.A.S.L.| U g ..G.A.i.i.",
"G.D.D.P.D.N.B.N.Y.L.n.K.U.g.N w F h.Y.n.S.Z.c.N.S.A.Z.n.N.b.N.L.{ Z b [ q.1.X.q.H.D.P.P.L.B.N.N.L.P.N.S.!.g.V < F h.U.b.S.N.v.M.A.N.A.N.b.b.S.S...S V | 7.2.X.r.",
"D.S.N.N.N.K.L.N.n.B.K.K.U.x.F r c i.S.p.n.L.n.b.N.N.N.N.n.c.b.D.' V J =.e.q.k.T.D.P.S.n.S.L.P.K.K.N.n.N.I.g.Z e c t.L.y.n.S.B.c.N.N.N.b.b.b.n.A.| V U %.6.i.h.T.",
"N.S.K.P.Y.K.N.K.B.D.K.K.Y.g.U 0 n i.c.,.y.n.S.M.N.n.N.A.n.c.n.A.' Z F 6.:.i.Q.B.S.S.D.L.L.N.N.K.K.N.S.D.U.g.K 9 B y.n.<.t.n.B.c.b.n.N.n.b.c.n.n.] V K 2.,.i.T.D.",
"A.N.n.N.N.A.L.L.L.Y.K.K.I.h.K i m <./.Y.h.L.I.Y.U.A.L.N.A.y.,.n...Z / e.7.f.k.h.S.S.N.n.N.S.S.S.Y.L.L.L.I.c.F y n &.~.I.h.D.I.T.U.L.P.Z.N.t.<.N...F / 6.6.f.h.k.",
"S.S.N.N.N.N.S.S.n.n.n.Y.R.l.F i v 1.T.h.,.8.8.8.g.c.N.R.).P.c.Z.) Z E ] +.q.i.i.S.S.S.A.n.A.S.S.v.n.n.L.Q.l.U g n 2.Q.h.1.2.2.7.g.c.c.E.(.D.n.b.! F T [ %.6.i.i.",
"M.b.M.A.n.A.D.G.Y.U.L.Y.P.t.U s R ( J q 9 y u i g k K { ' i.(.q.U F F U [ u.k.k.A.N.Z.n.A.S.D.L.U.U.L.Y.D.s.G g R ( G y 9 y i i i c G ..[ i._.q.L Z F U ] q.l.g.",
"' ' ] ] ] { ..#.t.y.,.,.:.X.P M ^ k = 2 j h j i g t 8 q 1 j O.O.L S A Q } +.+.{ ~ ] ] { { { ..X.y.s.,.4.,.@.G l ^ k * 2 h h h i j t 8 q 1 j O.O.F D D T ' &.+.{ ",
"U W E E U U U U Y ~ G U U E S s b 0 2 b V k b j x b b c j u u B E N l ) ' ' T U E Y W W E U U U G ~ G T U Y Z z v t 8 c Z k k k k b b b j u u V U B x _ | ) R U ",
"U U E U P U U U U ~ U E E U A w 0 r u u e 9 g u u t g t u j t u P M e W E J F U U U U U I L U U U ~ J T U E N r 9 e e i q q g i u t j q u j 0 t Q M e E ! G P U ",
"S A M B A S S S V F J Q F A s 5 8 y t t t y i 8 0 t q t c >   . z M e U E Z F L Z S V M A A Z S Z J J T Z V s 5 9 u t t t t y 8 t t q t c 8   . x M a U U F F P ",
"s p 8 3 8 e p a d g x V p 5 5 5 9 q 8 9 t 9 9 y e q 8 y q > & . - l 3 l x c g g p a w 3 3 e r t t g j V t r 5 5 w q 9 w t w 8 t q 8 e t w = o + ; f 3 l x l g g "
};
