/* XPM */
static char *_709858110345[] = {
/* columns rows colors chars-per-pixel */
"80 80 208 2 ",
"   c #080F1F",
".  c #0E151E",
"X  c #0C1514",
"o  c #13181E",
"O  c #0E1421",
"+  c #0F1928",
"@  c #111626",
"#  c #141B25",
"$  c #1A1E25",
"%  c #151C2C",
"&  c #1A1E2C",
"*  c #171E31",
"=  c #1B1F31",
"-  c #1C2126",
";  c #1D222D",
":  c #17212A",
">  c #1D2333",
",  c #1E2832",
"<  c #1F263A",
"1  c #1E293A",
"2  c #152032",
"3  c #21242C",
"4  c #23292E",
"5  c #2A2B2B",
"6  c #242727",
"7  c #222634",
"8  c #292634",
"9  c #242A35",
"0  c #2A2B36",
"q  c #222639",
"w  c #252B3B",
"e  c #2A2D3C",
"r  c #2B3236",
"t  c #26313A",
"y  c #2B313D",
"u  c #33333E",
"i  c #333B3F",
"p  c #252C42",
"a  c #2A2E43",
"s  c #2B2F4B",
"d  c #263042",
"f  c #2C3344",
"g  c #2E344A",
"h  c #2E394A",
"j  c #323545",
"k  c #383746",
"l  c #333A45",
"z  c #31364A",
"x  c #38364A",
"c  c #343B4C",
"v  c #3A3C4D",
"b  c #383C47",
"n  c #2F3552",
"m  c #313652",
"M  c #353C52",
"N  c #393E52",
"B  c #353B5A",
"V  c #3A3E5A",
"C  c #383E60",
"Z  c #413E4E",
"A  c #433F51",
"S  c #2F414D",
"D  c #3A424E",
"F  c #3C494F",
"G  c #354152",
"H  c #3C4254",
"J  c #364159",
"K  c #3D445A",
"L  c #3E495C",
"P  c #3F4953",
"I  c #3F5258",
"U  c #3D4362",
"Y  c #41404E",
"T  c #424455",
"R  c #484456",
"E  c #424956",
"W  c #4A4957",
"Q  c #41465A",
"!  c #4A4559",
"~  c #434A5C",
"^  c #4A4C5E",
"/  c #504A5D",
"(  c #47505F",
")  c #4B515E",
"_  c #414661",
"`  c #454C62",
"'  c #4A4E62",
"]  c #414769",
"[  c #444B69",
"{  c #494E6B",
"}  c #544D64",
"|  c #465164",
" . c #4B5265",
".. c #46516B",
"X. c #4D546A",
"o. c #4E596C",
"O. c #4F5867",
"+. c #515466",
"@. c #595066",
"#. c #525A65",
"$. c #51566B",
"%. c #5A546B",
"&. c #535A6D",
"*. c #5B5B6E",
"=. c #474D71",
"-. c #4C5473",
";. c #4F5A74",
":. c #4C557B",
">. c #4F5A7B",
",. c #515773",
"<. c #555C72",
"1. c #595E72",
"2. c #545C7A",
"3. c #585E78",
"4. c #50567A",
"5. c #61586D",
"6. c #625E74",
"7. c #685E76",
"8. c #5C636D",
"9. c #56626E",
"0. c #556174",
"q. c #5A6275",
"w. c #586877",
"e. c #56637B",
"r. c #5C657A",
"t. c #5D697D",
"y. c #616476",
"u. c #656B76",
"i. c #61667B",
"p. c #69667D",
"a. c #62697D",
"s. c #6A6B7F",
"d. c #67767B",
"f. c #525C81",
"g. c #585E86",
"h. c #566381",
"j. c #5C6583",
"k. c #5E6A81",
"l. c #5C668B",
"z. c #5F6A8B",
"x. c #57608B",
"c. c #606783",
"v. c #636D83",
"b. c #696E83",
"n. c #646D8A",
"m. c #696F8A",
"M. c #706E86",
"N. c #736F88",
"B. c #657185",
"V. c #6A7285",
"C. c #66728A",
"Z. c #6B748B",
"A. c #6D798E",
"S. c #72758B",
"D. c #727A8D",
"F. c #707686",
"G. c #636D91",
"H. c #686E92",
"J. c #667392",
"K. c #6D7591",
"L. c #6E7992",
"P. c #6F7A98",
"I. c #707792",
"U. c #737C94",
"Y. c #797E93",
"T. c #757E99",
"R. c #787F9A",
"E. c #817D96",
"W. c #76828F",
"Q. c #758195",
"!. c #7A8395",
"~. c #76819A",
"^. c #7A849C",
"/. c #7D899D",
"(. c #7B8996",
"). c #7787A1",
"_. c #7D86A2",
"`. c #7E89A2",
"'. c #7F8CAA",
"]. c #80869D",
"[. c #828C9D",
"{. c #888F9F",
"}. c #808490",
"|. c #84979E",
" X c #8087A2",
".X c #828CA4",
"XX c #858DA9",
"oX c #888FAB",
"OX c #868BA8",
"+X c #8591A4",
"@X c #8993A7",
"#X c #8691AA",
"$X c #8A94AD",
"%X c #8E99AE",
"&X c #8B96B0",
"*X c #8E99B2",
"=X c #8995B5",
"-X c #929CB4",
";X c #959EB8",
":X c #949BB1",
">X c #95A1B3",
",X c #95A0B9",
"<X c #9AA4BC",
"1X c #9EA9BC",
"2X c #A3AABC",
"3X c #9EA8C1",
"4X c #9CA5C2",
"5X c #A0AAC5",
/* pixels */
".X X`.`._._.^.^.~.Q.Q.U.L.A.Z.Z.V.n.b.b.t.&.o.o.&.P % X.S.(.!.Y.!.!.}.(.!.!.!.!.!.W.D.S.F.V.b.a.i.c.t.a.( > L o.O.o.9.9.;.9.o.0.;.0. .$.D N Q.#X$X#X+X#X#X#X#X.X",
"`.`.^.^._.~.~.~.~.Q.Q.U.A.A.Z.Z.V.a.a.a.r.q.<.&.$.v a a.U.Y.Y.!.D.Y.D.Q.Y.U.D.D.S.Z.V.V.V.B.u.a.i.r.q.r.o.q c ^ | |  ...O.o.o.o...X. . .f L +X#X#X$X#X`..X`..X.X",
"_._.^.^.~.~.~.~.U.U.U.A.A.Z.C.B.n.a.t.q.t.q.<.&. .l Q V.S.a.b.U.D.D.D.D.D.D.D.S.V.V.a.b.a.u.a.r.t.q.9.q.*.d , H I ` L | | | I .. .^ | Q 9 O.$X.X^.`..X`._..X.X.X",
"~.^.^.^.~.U.U.T.A.A.Z.Z.B.B.B.k.a.a.q.1.<.<.<.X.| l *.V.y.$.,.b.S.F.S.S.F.F.F.F.a.a.a.y.w.a.t.q.r.*.q.*.r.c % f U ~ | ` ` ` | ` ~ H H e < a.+X).J.~.`.`._..X`.~.",
"U.U.T.T.I.K.Z.Z.B.C.C.v.B.k.t.e.0.r.r.3.<.$.$.o.E c y.a.q.$.<.i.a.a.b.d.v.s.a.a.v.i.y.y.y.y.r.3.q.*.q.#.q.T # q g g c c M c c h t w q # j D.T._.T.~.^.^.^._.T.Z.",
"C.Z.A.A.Z.C.n.v.v.B.v.t.t.k.r.<. .<.r.<.o.<.o. .l H a.u.a.w.i.a.u.a.a.y.i.i.a.a.u.a.t.t.r.q.q.1.*.*.q.+.&.b & 7 & > , 9 1 , > > > , ; & x Y.K.T.^.~.T.T.U.T.U.C.",
"J.C.C.C.n.n.v.v.k.v.k.r.t.t.e.;.` o.<.<.<.<.X.` w ( r.q.u.a.a.a.a.a.a.a.a.y.y.a.y.y.r.q.q.q.1.&.q.#.*.+.) y 7 7 , 7 7 8 9 7 7 7 9 9 9 8 e a.U.K.T.T.A.A.A.U.K.K.",
"L.Z.C.n.C.n.n.v.k.v.k.t.t.t.e.o.` <.<.<.<.$. .K w  .q.&.r.q.1.r.r.r.y.q.r.r.q.q.q.q.*.q.*.*.1.*.*. .+.+.^ 9 8 9 3 7 7 4 3 9 9 9 9 0 8 0 .  .~.C.A.A.K.K.C.C.Z.K.",
"C.C.C.B.B.B.v.v.t.v.v.i.q.q.q.q.q.:.<.<.X.*.` 9 t &.#.+.r.*.q.1.*.q.9.*.9.1.q.q.9.1.1.*.*.&.&.&.$.} &.+.l ; , t e e y f f f c c c c c D , , y.D.C.A.L.A.C.A.J.C.",
"B.B.B.B.v.v.k.k.a.t.t.q.r.3.<.<.e.2.<. . .O.H % l &.*.O.$.&.r.1.*.0.r.q.0.0.&.&.*.*.&.*.&.&.$.+.' ' +.Q t 9 t l f l c c N N N H P H T Q z = c F.C.C.C.J.C.A.C.C.",
"B.v.v.v.k.k.t.k.t.r.1.q.q.t.q.<.,.<.,.$.&.Q y > c O.#.$.#.$.1.1.1.*.&.&.*.*.1.*.*.*.*.&.+.+.} ' ^ @.` x 9 w l l c c D H H H K K H H ~ ^ ~ w % <.C.k.B.Z.Z.C.C.C.",
"v.v.k.v.k.k.j.t.t.r.y.r.q.<.q.<.<.<.$.$. .c , q l P ) +.+.` &.1.*.&.#.+.$.1.*.&.*.&.&.$.+.' ' ` ' +.P e q f l c c c H H H P Q Q G H ^ Q  .K < c k.B.k.k.B.C.v.v.",
"k.v.v.k.j.t.t.t.r.r.q.0.<.<.<.<.<.&.' N j 7 7 7 w x T ^ ^ ' } ' q.r.y.r.*.*.*.$.+.+.} } ' ' ' ` W T j 7 y c c c H H L Q ~ ` ` ` ` |  .| X.o.P * U w.C.t.c.B.v.v.",
"k.k.t.t.t.t.e.q.r.q.<.<.<.q.<.o.` K z p q 7 7 8 = q j v T ' '  .^ %.*.$.^ ^ ^ ` '  .' ' ! Q A A v u 9 8 c N N H P L ~ ^ ` |  . .X.O.O.$. .&.$.1 d o.v.t.i.a.a.b.",
"t.t.t.t.t.q.q.e.3.<.<.0.<.o.' ` z s q q w w y j a e w e v T Q ` ^ %.%.' ~ ^ ' } ^ ! Q A N x x k j e 9 f v N H K Q ~ ` |  .{ X.-.&.X.o.<.X.$.q.` < J o.r.t.t.c.r.",
"t.r.r.e.0.e.e.0.1.r.q.<.` M g p w z s 7 w k Y Y R A f 7 a x x x H Q E T T Q A z x v x N x x z z 0 9 8 j D H K ~ | |  .X.X.o.o.<.3.<.<.<.q.<.<.c.h p K <.q.q.t.q.",
"t.<.<.<.q.<.<.t.i.1.' V g s s s j 7 7 f N P H Q `  .| Q f > w c N x v k x A N x l l y 0 9 9 7 7 4 4 y H H K | ~ |  .O.$.*.<.q.q.q.r.w.t.w.t.w.r.r.w f | ;.t.e.j.",
"c.r.i.r.t.v.r.&.Q N z s z s s g 7 7 f H Q ~ ^ X.$.&.*.<.O.H d ; a j v j y e e p 9 w 0 e e u j y 9 ; f H K ` | ) O.O.o.&.0.t.a.t.a.t.v.v.v.v.v.a.a. .w N  ...h.r.",
"&.r.D.v.3.o.H z m s s s c j w w w j P ^ ^ |  .o.1.y.r.t.a.q.| f 7 = 9 9 3 7 9 e j f j c H T H T r , y ~ ` ` O.#.9.$.&.0.r.b.n.b.B.B.B.Z.B.V.B.B.a.B.h p H U ,.r.",
"X.q.v.$.N g p f m m z z g q 7 e v Q ` ` | X.&.$.t.n.y.a.a.V.V.q.v 8 4 3 4 u l c v v H E H v N P i 7 h ~  . .$.9.q.q.q.r.b.V.V.Z.Z.A.A.A.A.L.A.A.Z.v.<.p d U K ,.",
"<.3.3.K p q p z g m g s w 7 0 l P ~ ~ ^ O.0.0.0.j.A.S.I.Z.V.A.Z.1.b e 4 0 l D H c M K Q H M H ~ l 7 c { $.&.&.r.r.t.v.V.C.C.I.I.L.L.U.U.Q.U.U.I.Q.B.L.L 1 M M ~ ",
"~ $.1.K p s p g z f a q w w l b K ^  .o.$.q.t.t.c.J.T.^.~.A.U.A.y.~ f 7 0 c c H P ~ | ` ~ L ` O.y 9 H o.<.<.<.q.r.b.C.S.A.Z.S.T.T.T.Q.~.~.~.Q.~.~.A.A.k.g 1 H x ",
"s H ` c s g z m f t w q 9 c T H L | &.0.0.r.v.v.n.U.P.^.`././.Q.<.| c w z K H _ ~ `  . .' '  . .t 9 L o.,.r.3.a.a.V.S.I.P.Y.R.~.^.^.^.`._./.`._.~.L.J.A.` < c N ",
"c z j s f z s p : # ; 7 w F $.~ ~ ` $.q.t.B.C.Z.L.T.L.T. X#X#X^.3. .c w z L K ` ` '  .X.;.<.<.X.y 0 H  .X.q.r.V.V.V.S.I.R.^.^. X`.`..X`..X.X`.`.).Q.Q.Q.0.p = x ",
"z s a z j 7 % & p v f : , F $.K Q ` &.0.t.C.J.Q.Q.).).).).'.~.P.:.&.c t D F E ^  . .$.<.<.<.-. .8 8 l ~  .X.;.t.V.U.!.R.T.~.`..X+X#X+X#X#X#X&X).Q./.K.:.{ ~ w 0 ",
"z z f q * = M $.Z.D.8.t : f K K ^ | &.0.w.k.B.W.Q.~.).~.Q.W.A.k.2.o.z w D L ~  .{ 1.3.r.3.<.` K 8 0 j v K | o.e.3.b.I.T.T.^.'.$X+X&X&X*X*X&X&X).Q.h.-.-.r.1.f ; ",
", % % q ~ b.].$X+X@X(.E ; q c K ( o.0.0.w.k.B.A.C.Q.~.~.Q.).~.A.2.{ j a Q ` |  .{ <.<.$.$. .K f 7 8 e f c K | X.j.c.c.n.Q.`.+X`.#X=X&X$X#X).P.Z.>.>.h.-.,.&.b 4 ",
"+ y #.U.*X;X;X=X].^.[.a.f > w l J L X.;.e.w.C.P.).).).~.Q.J.z.h.,.{ s f T ~ L _ [ [ _ ~ ~ T l 7 9 9 9 w f G Q ~ -.2.n.K.A.Q.(.[.#X#X~.~.Q.z.h.>.l.>.4.<.<.` t . ",
"9.W.>X1X,X$X'._.].U.R.Y.' 7 9 f m J U U =.-.>.h.z.G.J.G.G.l.2.:.<.~ w w c c M K U K Q ~ P l 0 4 w e d d w p c Q [ ..2.t.v.K.~./.'._.C.z.z.k.f.-.f.f.l.k.~ % + l ",
"1X<X>X$X'.#X'.).!.T.H.Y.i.f ; t g n V U [ -.4.h.l.z.H.H.n.g.:.=.c c 7 9 f l M M M x V N f , ; w a h H H j e d c | ` ` ..e.k.A.P.'.).n.x.l.l.l.g.:.n.j.c % 1 $.@X",
"&X=X&X$X+X'./.~.Y.T.K.K.m.Q , - , 9 7 w w f f l J P K Q M f p w ; 9 4 4 e u j a j u j 0 7 = w j c G H Q Q D e > d G | o.....>.l.J.~.J.j.z.G.G.l.C.;.p % K /.5X4X",
"&X#X'.`.`./.(.~.U.I.K.n.m.1.u - 5 5 6 6 4 - 6 - - - $ $ & - 3 8 3 0 4 6 8 7 q q 7 7 7 7 q p z c N Q ` T D N j e : ; f U >.h.f.:.:.n.n.x.z.J.H.G._ > f D.1X4X-X=X",
".XQ.~./..X~.Q.U.U.Z.Z.c.q.1.F > > q y e y f f f f f f f j f f j f y e w w 0 , , 7 8 8 4 9 e N V ~ ^ K c c c t # @ y - X i | -.l.x.x.l.G.K.m. .e % r./.*X&X$X$X#X",
"+X^.(..X(.Q.L.Z.m.c.b.c.q.q.H 9 w f c c c c H x c c b c c c c z c l l f f f w q 3 7 9 9 e j N N N x D ~ z % ; c <.V.q.i X # h K ..0.j.-.V a 4 o <.+X+X#X+X#X.X`.",
".X/.~.~.U.A.C.B.a.r.r.3.3.<.T 0 f c v M c N N T N H N H N N c c v c c l c f f d 7 7 3 3 9 j x N c F c , * g <.I.XX#X.XA.b @ @ > t t f t , ; 4 o V.@X(.~.Q.^.^.`.",
"U.Q.Q.A.Z.C.v.k.i.r.r.3.<.&.v 9 z c N c N H N N P T Q H v H N N H v c c c j f y a q 7 7 9 e j j l 9 2 w  .I. XXX).'.'.$XY.T $ 5 - t y Q #.q.#.f q.~.!.~.U.T.U.L.",
"C.A.Z.B.B.v.k.t.y.r.r.2.1.X.j 9 N V H H T Q ~ Q K ~ ' ~ ~ ^ ~ Q T N N N c c z f j a 8 8 9 e w e # : H a./..X_.R.t.'.=X`.OXb.e 6 t D ~ e.v.C.k.M 0.~.Q.Q.Q.~.U.Z.",
"Z.A.Z.B.v.v.k.k.t.<.3.3.,.` f w H Q ~ Q ` ` ` ~ N Q ' '  .X.' ' ' ~ Q Q H N N c j f f 0 7 ; $ 3 h 0.~.(.U.~.^.^.A.+X*XXX#X XQ O N  .` >.l.P.~.J o.Q.A.Z.k.C.U.I.",
"C.Z.B.k.v.v.r.t.q.3.3.,.o.~ f y Q _ ' ' { +.X.{ Q ' ,.&.$.*.$.{  . .' ' ~ ~ H N m z e 7 $ 3 u T L.~.~.Q.~. X.X/.*X'..X=X&X#Xa., g ` ` e.Z.).(.G ~ A.W.k.o.e.C.C.",
"B.B.k.k.k.j.e.t.q.<.<.,.X.H y y ` ' X.X.$.*.<.$.+.3.1.1.,.1.3.*.$.+.' ' ' ~ Q Q N z e $ $ j *.!.K.K.K.~.~.(.(..X'.$X#X&X$X+XQ.S w | <.B.L./.|.( L Z.A.B.r.n.L.n.",
"v.c.c.a.r.r.r.3.<.X.<.X.| c < c Q ~ X.1.&.&.q.q.1.r.r.6.r.3.1.1.<.1.,.&. .^  .T b 0 9 2 a a.T.m.A.L.T.~.^.^._..X`..X$X#X$X-X'.w.7 ~ 0.C.).).%XN K B.Z.C.B.v.B.v.",
"a.r.t.q.q.<.<.<.<. .X.| ~ l 9 H ' Q ~ X.*.t.y.r.c.i.a.a.a.c.c.a.i.3.&.1.$.` ^ c y ; : w O.Z.A.K.Z.L.U.~.^.^.`..X#X#X#X#X#X,X&XL.b f o.k.J._.U.s J B.B.v.v.w.B.r.",
"a.t.q.q.q.<.<.<.| K Q K G d q T ' ` ` X.X.<.y.b.b.b.b.b.b.b.a.a.r.6.1.3.*.` H g w % , ^ Z.A.k.A.K.U.T.~.^._.`..X#X#X$X#X#X-X-X'.) q | k.k.L.q.w G e.t.r.B.w.r.r.",
"q.q.q.<.<.<.o. .` H H H g 9 w ~  .{  .' ' $.<.q.b.b.m.F.Z.b.b.b.m.b.c.1.` V z w , > P v.Z.C.C.C.K.U.T.~.^._.`..X.X.X$X$X$X%X-X$Xn.f M | U o.L > G <.&.<.r.a.t.q.",
"<.9.&.o.X.` ~ K ~ H N c e 7 e ^ { X.$.X.o.X.$.,.r.i.a.m.I.I.D.S.m.b.1._ N z a q % c r.V.b.v.A.A.L.U.T.~.^.^.`.`.OXOX#X$X#X$X*X*X/.` p N E J D 2 c | X.| $.&.q.q.",
"$. .| ( ~ ~ L H H z d w 7 ; e T ` X.,.<.,.<.,.,.&.,.1.a.b.F.b.b.1.&.' m z x w q w &.B.k.a.B.B.A.K.U.T.~.^._.`..X.XOX@X$X#X$X-X,X.Xk.p , f 1 d 1 1 N | +.| ` O.q.",
"^ L L L K H H G f p q 7 7 q 0 u Q _ [ { ,.3.<.<.&.&.$.1.r.y.3.3.$._ V c z f > q | V.b.w.B.B.B.B.K.U.T.~.^.^.^. X.XOXOXOXoX$X:X;X`.C.K # y F #.k.K g c ` | ^ `  .",
"K P K K F c d w w 7 7 a j j 0 = m _ ' ' { $.<.i.3.1.,.<.1.r.r.3.{ A N z g p q N c.c.t.v.t.B.A.B.L.U.T.~.~.^.`.`.[..XOXOXoX$X$X$X&XU.r.- Y 9.w.A.].P 9 c ~ ^ Q H ",
"Q c V z p w 9 0 9 w c L ( L P G , w G  .o.[ [ =.3.r.i.3.$.1.r.' g n g H h * f a.q.r.r.a.t.t.v.V.C.I.U.!.~.!.^.]. X XOXOXXXXXoX&X%X~.Z.c p o.q.t.Y.D.H > c ~ ~ Q ",
"G d s p p p , ; 0 ~ ^ c N ( |  .^ l w M ' ,.X.=.` ' +.3.3.3.3.Q s g M M < w O.r.1.q.t.c.y.i.a.V.Z.S.D.T.Y.Y.^.^._.OXOXOXOX.XOXOX-X~.V.&.p  .<.y.Z.~.n.z 2 g M c ",
"w < q , % # ; 4 P ^ P c c | X. .&.&.~ g h _ ,.,.[ { { { { 3.,.B g K H w < K r.$.<.0.r.y.a.i.a.B.V.C.A.I.U.T.Y.~.R.R.^. X XOXOXXX%XA.e.B.g H o.r.i.S.!.<.q > w a ",
"0 > > w c F y # P | ` ~ O.o.o.o.o.*.0.X.B g m ` 2.-._ B _ -.-.B N Q p > H <.<.o.1.<.r.r.r.k.c.b.n.m.A.S.D.U.T.!.T.R.^. X_._. X.X#XC.&.V.M g ' o.r.t.C.i.V > > w ",
", l ~ q.S.S.&.e > ~ 0.&.9.0.;.0.q.0.q.r.0.X.M d _ { ,.=._ U _ U ~ f & a &.&.` <.<.<.r.r.r.t.y.v.v.b.V.Z.S.I.I.Q.T.R.^.^.^.].OXXX^.C.r.B.[ p ~ ` o.<.<.<.^ w > q ",
"E w.Y.#X+X[.!.v.p , L w.&.0.B.w.k.V.B.r.v.C.e.F p s K X.X._ V H 9 & f ^ O. . .o.o.<.1.q.q.t.i.t.i.v.B.V.Z.Z.D.I.Y.T.U.Y.^. X X!.B.B.k.b.q.p c P ` X.U H H p w v ",
"!.!.(.OX XR.OX XB.d d o.w.k.U.C.U.A.A.Z.B.t.t.B.+.c p f H ~ g w , : F &.` X.<.o.` o.<.<.q.q.r.r.r.c.v.n.n.V.C.S.I.I.T.Y.~.U.m.q.B.B.q.a.q.h p z K V g s h c ` a.",
"W.U.R. XK.l.P.OX(.t.d d 9.t.k.^.~.~.~.(.~.D.F.B.b.y. .a > g ` u.8.y b ) ' ` { ` H ` &.0.<.q.q.q.r.r.i.c.a.V.Z.Z.C.D.U.A.y.<.r.c./.U.2.c.q.V > w p < p h K q.V.Y.",
"S.I.!.Y.I.n.Z. XXX Xa.w f &.r._.!..X(.V.[.(.~.~.~.K.k.h 1 e.~.T..X| p  .| ~ | `  .X.$.$.&.*.1.q.0.q.0.r.t.d.B.B.V.c.r.e.t.v.C.Z.B.A.y.3.<.L t : > d T &.b.b.m.S.",
"V.Z.S.U.U.S.R. X_.OX~.o.d H 3.j.T._.Q.n.^.[.~.Z.e...L d G r.C.I.I.X.f E ( ~ ..X. . .$.$.&.&.9.q.0.q.0.0.0.q.q.e.<.0.r.k.k.t.e.0.X.c.c.3.[ M 0 9 N | *.q.a.b.b.Z.",
"Z.V.S.A.D.T.Y.R.R.'.XXU.K q Q { c._._.h.3.-.[ U M M l < N *.<.r.V.t.N H | | ` .. . .#.+.o.o.$.&.0.0.<.o.<.0.<.o.0.e.e.2.o.X.| ..-.-.,.{ ~ z 7 t ^ &.r.1.1.c.v.c.",
"b.V.Z.C.S.I.U.I.T.T.U.^.n.g p ' ] G.H.] C C U U B H y @ 2 c Q ,.<.q.H c ^ ` ~ '  . . . . . .o.$.o.o.<.&.<.o.X.` |  .` ` U U ~ ` ] B C U V a 7 b (  .$.$.1.r.i.i.",
"0.a.b.B.C.I.I.A.A.C.C.K.~.<.q V ] 4.2.U [ ] U B w q f H H j e g K  .H D E P L ' ~ ` |  . . .X.&.o.o.X.{ { { ` H B H K ~ L L K K U U ` ` c = e E ^ ~ | $.3.3.q.t.",
"<.r.c.v.c.b.m.m.b.c.K.m.T.b.g , K L ` K U n h M ` ,.V.{.{.D.<.H d f f b ) ) ~ K K ~ ` |  .` ^ ~ ` ` _ K K K L V ~ _ U _ L L K K U ^ H c w 7 j ! H G Q o.$.<.1.3.",
"<.q.t.t.r.c.c.r.t.k.K.n.C.m.Q % > > d f v c | u.L.Q.~.(.+X>X<X$X` z = 2 D ^ ~ z H H K Q K H G N V V V M V K L U K K L Q U K V B c f 8 3 ; 7 x Q c c P  .X.X.<.<.",
"<.$.&.<.r.r.c.k.t.v.j.m.H.r.` 7 4 t b F #.#.8.y.n.J.Q.!.~.).#X-X2XS.c . 9 x N h g f c h h c c N c V V K K _ K V K K B m z g p p r r i r 3 3 a V c H ` X.` ' o.o.",
"<.<.0.0.0.3.h.c.w.t.t.t.C.w.h t f H ( |  .o.0.0.t.k.Z.D.~.^..X.X*X,X'.o.1 : w k j c g c x z m x z j k f j j e e 0 8 8 e 9 a G K ....0.q.N % , d Q Q Q ` | ' ;.X.",
"X.o.<.<.<.q.r.r.t.k.k.k.k.0.h w G c c D L | X.X.0.w.v.C.L.~.^.`.'.'.%X%Xa.f % 7 y a w w a a f a w e e e w w e w 0 8 8 c c H L ~ X.o.&.w.0.f @ , j N Q ` ` ` <.;.",
"O.X.&.*.<.<.<.3.<.0.e.t.k.,.g w H f f c L | o.<.0.0.w.B.Z.U.~.^././.`.%X+XB.v # 3 7 e e 0 k x k A A A T Q ! T T x e a b H c K ^ 0.r.r.B.S.9.w % > s M ~ ` ` ` ~ ",
"Q ^ | X.$.&.,.<.&.;.-.[ X.L f w c c G L ~ ~ ..o.&.0.e.t.C.L.U.T.P.(.~.A.(.{.d.V 3 3 r j k Z Z R T R Q ! ! ! A A Z u 0 x H H | &.w.w.V.B.V.Q.<.* 7 w q w c N K Q ",
"c D N P Q Q Q K N h m n m c w w y c V H P ~  . .o.o.;.0.t.v.B.C.L.Q.U.L.Q.~.L.C.u 8 u x Z Z R ! } @.@.5.@.@.} } W j 0 N `  .<.t.t.B.W.L.A..X(.K & 7 7 7 q w p f ",
"w w w w f a f d l z M N M x w 7 7 w j z M ~ [ ' o.o.9.0.0.e.t.t.C.B.B.A.A.C.C.C.! 0 u A ! / / @.%.5.5.7.7.6.6.5.%.k e x ~  .&.0.B.C.K.~./._._.b.8 $ 7 q , < , 9 ",
"# : & & > , , > 0 9 w q q 7 = 6 q q w w z c H K ( O.o.9.9.;.0.r.0.t.k.k.w.k.k.k.R w x ! @.5.6.p.p.p.s.s.p.p.7.6.} j 7 w z V ` ..;.e.j.J.G.G.l.l.v ; & 4 & > > > ",
") ) E T H v c z e 7 e 7 7 7 6 3 & % = q w s g M S L | | O.X.<.r.q.e.t.w.h.w.e.e.j w Q '  .1.i.M.S.S.S.S.N.m.b.a.A a 8 p w w h J :.I 2.>.-.f.:.:.e $ Y u.u.q.&.O.",
"*X:X$X#X.X_.^.~.L.K.n.c.<.,. .` D c j w > ; w l h g m V M K [ X.-.X.X.{ [ _ B M 8 k A / } @.5.7.N.N.E.E.E.E.6.A x = & = f G G h 2 d c f y f w : H L.#X&X,X-X*X:X",
",X,X,X;X:X*X$X$X&XoXoX X X].~.~.D.V.a.*.~ l q , e f z N N m c V M c h g g z g f 8 u k v A / +.%.%.y.7.b.m.*.x N q e @.N.!.@X%XQ.| 1   l }.d.; t ~.<X3X<X<X<X<X;X",
"*X*X*X*X&X&X$X$X$XoXOXOXOX[.[.^.[.U.V.Z.B.*.c > 7 0 e w a z z f g f d w q > > 2 & @ @ = 8 x Q } } *.7.6.} ! x j q 1.oX:X;X>X*X$X>XS.H t r.F.t E ;X3X<X;X,X,X,X;X",
"%X%X$X$X$X#X#X#XOXOX X^.^.~.Y.U.Y.m.v.C.U.Z.1._ 7 = 8 0 7 7 = = , w f D H Q ` |  .^ P N z a q > z N ' ' } Q s q %.].$XOX+X'._._.@X.X(.o.d 9 % w.;X;X*X*X;X$X#X*X",
"$X&X$X$X#X#X#X.XOX.X X X X^.^.!.R.I.m.S.C.m.b.a./ 8 - r 3 7 v ~ 9.q.d.D.!.(.[.[.[.(.(.D.b.&. .~ z a q w T c 7 Q R.R.~.T.~. XOX_.(.Y..X!.o.q 1 (.;X;X-X-X:X~.K.`.",
"#XXX#X+X.XOX.X`._._.R.R.R.Y.U.I.R.I.Z.m.b.a.c.v.y.D 9 : 3 #.]..X.X+X@X@X+X[.{.+X(.W.[.+X(.Y.Y.Y.y.&.Q y > q N s.n.C.A.A.U.L.I.T.U.I.t.q.a.S G +X*X*X*X&X&XT.Z..X",
"XX#X#X#XXX.X.X.X X_.R.R.R.U.U.I.I.b.b.m.V.u.a.y.<.X.t : F Q.$XXX@X+X+X.X{.+X.X/.d.r.F.(.!.D.I.F.D.F.V.&.> > O.q.&.t.t.B.A.c.<.m.t.k.2.0.r.d ..>X*X$X$X#X&XXX^.$X",
"OX.X.X.X`.`.^.^.R.R.R.T.T.I.S.S.F.b.b.b.a.q.$.O.e.| : t d.(.Q.OX/.^.~.`.^./.^.^.V.u.V.!.D.S.S.m.b.p.u.s.H q | #.9.o.0.w.0.o.<.q.r.;.<.2.| M Z.@X%X#X$X.X$X*X#XOX"
};
