/* XPM */
static char *_709858072027[] = {
/* columns rows colors chars-per-pixel */
"80 80 256 2 ",
"   c #002E79",
".  c #063A91",
"X  c #00478A",
"o  c #05588B",
"O  c #024A99",
"+  c #065798",
"@  c #135993",
"#  c #086598",
"$  c #12669A",
"%  c #096C93",
"&  c #034BA6",
"*  c #045AA8",
"=  c #035BB7",
"-  c #1353A8",
";  c #016BAC",
":  c #0869A7",
">  c #1569A9",
",  c #0875A9",
"<  c #1476AB",
"1  c #016CB3",
"2  c #016BBB",
"3  c #0766B7",
"4  c #1368B9",
"5  c #0272B4",
"6  c #0273BB",
"7  c #037ABD",
"8  c #0A78B8",
"9  c #157CB4",
"0  c #1777B7",
"q  c #2C75B0",
"w  c #375F8D",
"e  c #036CC2",
"r  c #096BC7",
"t  c #126CC7",
"y  c #0274C4",
"u  c #027BC3",
"i  c #037CCB",
"p  c #0C7CCD",
"a  c #0875C8",
"s  c #1579C9",
"d  c #037DD3",
"f  c #0A79D4",
"g  c #127CD3",
"h  c #157AD4",
"j  c #036ED5",
"k  c #1874D0",
"l  c #0885BA",
"z  c #1785BA",
"x  c #1389B1",
"c  c #2D89B8",
"v  c #4F8EB2",
"b  c #6FA5BA",
"n  c #0283CC",
"m  c #0986C7",
"M  c #1484CB",
"N  c #1888C7",
"B  c #0996CB",
"V  c #1996C9",
"C  c #0382D3",
"Z  c #0B83D3",
"A  c #0B85DB",
"S  c #038CDC",
"D  c #0B8ADD",
"F  c #0789D6",
"G  c #1384D4",
"H  c #138BD4",
"J  c #148BDC",
"K  c #1A8CDC",
"L  c #1986D7",
"P  c #0C9BD3",
"I  c #0B95D7",
"U  c #129BD5",
"Y  c #1493DC",
"T  c #1C93DC",
"R  c #1B9BDE",
"E  c #1696D6",
"W  c #2387C8",
"Q  c #2697CA",
"!  c #2294DC",
"~  c #2598D8",
"^  c #3597D8",
"/  c #308ED0",
"(  c #08A4D8",
")  c #14A3DB",
"_  c #19A5DA",
"`  c #13B2D8",
"'  c #26A6D8",
"]  c #37A6D9",
"[  c #35B5DC",
"{  c #2BABD6",
"}  c #018BE4",
"|  c #0D8CE1",
" . c #018BEC",
".. c #0686E9",
"X. c #128EE3",
"o. c #1A8AE3",
"O. c #0392EC",
"+. c #0A97E9",
"@. c #1391E6",
"#. c #1C93E3",
"$. c #1D9BE2",
"%. c #1594E9",
"&. c #1898EA",
"*. c #038CF2",
"=. c #0487F4",
"-. c #0897F4",
";. c #169BF4",
":. c #118FF3",
">. c #2195E4",
",. c #239CE3",
"<. c #2799E9",
"1. c #2896ED",
"2. c #0AA9E8",
"3. c #1CA3E3",
"4. c #1BACE4",
"5. c #18A8E8",
"6. c #09B6E8",
"7. c #1DBBEC",
"8. c #18B5E9",
"9. c #0AA9F3",
"0. c #18A7F6",
"q. c #0BBCF5",
"w. c #09B6F5",
"e. c #1DBBF3",
"r. c #17B9F7",
"t. c #23A3E4",
"y. c #2AA3E5",
"u. c #2BACE4",
"i. c #2BA4EC",
"p. c #24ABEA",
"a. c #2CABEB",
"s. c #24A6E8",
"d. c #37A8E9",
"f. c #2CB4ED",
"g. c #24BBEB",
"h. c #27B6E9",
"j. c #36B8E9",
"k. c #27A9F6",
"l. c #35A9F7",
"z. c #23B3F4",
"x. c #22BCF4",
"c. c #2CBCF2",
"v. c #2AB4FD",
"b. c #28B7FA",
"n. c #33B5F3",
"m. c #34BCF3",
"M. c #34B4FE",
"N. c #33BBFC",
"B. c #3BB9FA",
"V. c #4B96CE",
"C. c #52AAD7",
"Z. c #6CB1D4",
"A. c #45AAE7",
"S. c #47B8E9",
"D. c #4BBCFD",
"F. c #44B9F9",
"G. c #54BBFA",
"H. c #54B1E7",
"J. c #65B8E8",
"K. c #649BD4",
"L. c #18C6EB",
"P. c #06C8F7",
"I. c #1CC4FB",
"U. c #18C7F7",
"Y. c #08D4F9",
"T. c #1CD2FC",
"R. c #19D7FA",
"E. c #10CBEB",
"W. c #28C5EB",
"Q. c #39C5EB",
"!. c #23C3F4",
"~. c #2CC4F5",
"^. c #23C4FB",
"/. c #24CBFC",
"(. c #2BCCFB",
"). c #28C8F7",
"_. c #33C3F4",
"`. c #3BC4F3",
"'. c #35CBF5",
"]. c #34CCFB",
"[. c #3BCCFB",
"{. c #38C6FA",
"}. c #23D4FD",
"|. c #2BD3FC",
" X c #22DCFD",
".X c #2AD8F9",
"XX c #34D5FB",
"oX c #3BD3FC",
"OX c #34DBFD",
"+X c #3CDBFC",
"@X c #38D7F5",
"#X c #2FD6ED",
"$X c #2BE1FB",
"%X c #39E5FC",
"&X c #3CF1F7",
"*X c #16E0FF",
"=X c #44C7EC",
"-X c #4BC4FD",
";X c #44CBFC",
":X c #4CCBFC",
">X c #46C7F8",
",X c #52CCFE",
"<X c #5BCCFE",
"1X c #56C6F9",
"2X c #43D3FD",
"3X c #4CD3FD",
"4X c #42DDFD",
"5X c #4BDAF8",
"6X c #54D3FE",
"7X c #5AD4FD",
"8X c #5BDBFE",
"9X c #54DBFB",
"0X c #52CCEC",
"qX c #67C9FA",
"wX c #75CAF8",
"eX c #63DBFE",
"rX c #68D7FC",
"tX c #77D9FD",
"yX c #73CDEA",
"uX c #42E2FE",
"iX c #44EBFE",
"pX c #4AE8FC",
"aX c #57E6FD",
"sX c #49F3FC",
"dX c #55F3FC",
"fX c #4CE9ED",
"gX c #68E6FD",
"hX c #76E9FD",
"jX c #66F5FD",
"kX c #78F7FE",
"lX c #73C1DC",
"zX c #87BBD9",
"xX c #87D8FA",
"cX c #96DBFA",
"vX c #85CCF1",
"bX c #ABDAF0",
"nX c #87E7FE",
"mX c #98E7FC",
"MX c #87F5FE",
"NX c #99F7FE",
"BX c #8CE6E9",
"VX c #A6E8FB",
"CX c #B7E9F9",
"ZX c #A9F7FD",
"AX c #B3FDFF",
"SX c #BBFDFE",
"DX c #B7F5FC",
"FX c #AFEDE9",
"GX c #A2CED6",
"HX c #CBFDFE",
"JX c #C6F8FD",
"KX c #D8F9FD",
"LX c #C9EDF0",
"PX c #E8FCFD",
"IX c #F8FCFC",
"UX c #E7EBF7",
/* pixels */
"l m 2.r.7.4.P ( B l t.a.>.L 0XmXOXOXOXOXoX+XoXoXoXoX].[.[.[.`.j.W.c.`.a.<.>.~ ,XqX1X-XD.M.F.eXyXxXxXwXtXgXeX8X9X$XR.L.dXhXyXeXeX7X7X7X6X9X6X5X5X=X5X9X5Xc._ B l ",
"x ) b.I.8.( P P l l p.t.G d.rXrX.XXX|.OXoXXXoXoXXXoX[.'.{.`._.`._.m.u.~ <.>.~ -X-X1XD.F.B.:XgXhX8XaX5X4X#X#XL.E.P.U.` W.gXgXeX8XeX8X7X6X3X>X=X=XQ.=X2X3X9X;Xj.4.",
"8X[.I.w.) P V B l l z.D N G.hX5X#X|..XXXXX].[.[.'.{.[.{._.`.m.N.n.y.~ >.1.o.<.-XB.D.d.n.:XeXgXpX%X%X$X.X XR.R.Y.U./.L.( Q.gXeX7X8X0X6X6X6X=XQ.Q.=X=XQ.Q.>X5X3X3X",
"9X[.w.2.) B B l % l &.S ^ tXgX#X|.|.(.'.].'.'.{.{._._.m.`.B.n.a.<.,.<.<.1.>.,.j.B.M.n.F.8XaXpX#X+XOXOXOX.X).}./.!.L.L.6.` 2XaXqX8X1X,X6X,X>Xj.[ j.j.j.j.j.Q.Q.2X",
"j.!.9.2.) B l B , M A @.1XhX5XT.(.(.'.(.'._._._._.N.m.B.B.n.i.i.1.<.<.<.1.o.>.n.k.s.B.7X9XuX$X$XOXOX.X|.(.(.!.W.L.8.6.q.( ` 5XeX6X6X,X,X,X6XS.{ ' u.{ [ j.[ [ [ ",
"j.~.8.2.U B l 5 7 m D A.tXgXQ.T.).).~.~._._._.m._.m.m.N.n.s.,.>.1.<.T #.%.o.<.eXD.m.[.8X5X.X#X.X|.}.|.|.(.).!.!.8.g.7.6.6.( { 8X6X7X6X,X,X,X>X{ { ' ' { { { [ { ",
"{ h.2.( P B l 5 B I t.qXhX9XW./.~.!.~.~.c.m.m.c.m.n.f.a.<.,.&.>.<.! T &.1.A ~ kXMX6X3X2XXX|..X}.|.}.).).!.W.7.7.7.g.7.4.6.( P W.6X6X,X,X-X,X,Xu.Q _ Q { ' ' ' ' ",
"{ ' 7.2.P l 5 l +.&.>XxXxX5X6.x.!.!.c.c.c.c.c.n.n.a.t.~ $.1.1.<.>.<.$.Y %.Z N <XrXH.>XOXI./.|.T.(.~.).!.!.W.7.g.8.) 4._ ( ( B V 6X,X:X,X-X-X,XS.z z V Q V V V ' ",
"c _ 8.( B m l E ,.A.yXNXeXh.e.g.g.x.x.f.f.f.n.d.y.<.>.! #.<.<.>.~ <.1.K F F I b.>X;X|.T.U.!.}./.).!.!.!.!.g.7.7.8.4.) ) ) ) B l ' 8X:X;X:X>X;X-XQ x z c V V W Q ",
"x U 5.+.B m M y.S.rXmXNXeXh.7.g.g.g.h.h.f.f.a.t.,.>.T #.>.>.>.>.H ! K G F +.r.b.F.2X).L.U.U.!.L.U.U.!.g.7.8.8.4.` _ ) U P P P P l f.6X:XB.-X-X-X{ x l x x z N N ",
"N E s.5.B n / d.1XmXAXNX0XW.~.g.z.p.p.p.i.s.,.Y T T ! #.#.T T T ! H g i C +.z.M.-X;XL.E.U.L.U.7.g.7.8.8.4.4.4.2.) ) ) P U V B l ; 8 -X7XF.;X>X>XF.z < x 9 x x l ",
"~ ~ #.$.H H d.A.Z.FXHXFXlXj._.' 4.p.p.t.$.#.T T T T #.T T T H T ~ M i n C | k.v.D.2XL.6.L.7.8.7.7.8.8.8.4.` ) _ ) U U U H m 7 5 * : ! 1X,X>XB.N.7XQ $ x < < l z ",
"L L L o.L ~ A.H.b bXPXLXvX0XS.] s.s.$.R Y H K T >.#.K T T H T K M u 7 n F @.k.l.F.;XL.6.8.8.8.8.8.8.4.` ) ) ) ) U ) U H l 5 1 ; 8 ; 2 d.:XN.B.;X7Xz % , < 9 N E ",
"K h h k G ^ G.J.zXLXPXPXVXwX<XS.s.$.Y J H J K o.o.K K L H T T N 5 7 n n F &.i.l.l.{.q.6.6.8.4.` 4.4.3._ _ _ ) P E M m 7 1 ; 1 3 1 5 2 m H H R ;X6XQ , 8 s L T #.",
"g h k s s / H.Z.zXLXIXLXcXrXG.A.T H Z J K K J J J o.J H K E M 7 5 7 n S D #.<.i.l.N.6.6.` 2.` ) ) ) ) U U U E B M u 1 1 1 1 1 6 7 a p 7 7 7 m N.,X' 7 m L | J H ",
"f r t 4 0 W ^ C.Z.zXFXGXvXH.{ Q G Z H K J L L J J #.J L L E m 1 6 m n B I H o.i.M.n.2.( ( 6.4.) ) ) U P U H B B 1 1 1 1 5 3 1 5 7 i 7 7 m n F 3.-X' Z C A d H B ",
"t 3 3 4 > q ^ A.Z.Z.lXlXJ.A.^ N Z Z Z D H H D Z J o.J p ! N : , 7 n C | L N ! ~ k.0.2.( ( ( P U P U U E M m 6 2 1 2 1 ; ; 5 6 y i 8 , 7 C n F S yXmXA.Z X.Z d F ",
"y ; * O O 0 / ^ V.V.C.v ^ ~ L m J Z Z Z Z Z Z H o.d G T N 5 ; 8 7 i C | M s N ! &.5.U ( ( ( P B P B B m 7 1 1 1 2 ; 1 1 1 5 u i u 5 m 7 n C 7 d.ZXZXC.H $.T K M ",
"! N s * * 0 ~ Q Q / / c Q N M m p d Z Z p Z Z Z G u V ~ 7 ; ; 6 7 i d d a , W N y.R ) ( ( B P I H m 7 1 ; 1 1 1 1 ; 1 6 5 7 M 7 , 7 i u F n N nXZXDXJ.T i.<.<.~ ",
"y.,.~ W 8 N ~ ~ N W c 0 z N u i p n p Z Z Z Z Z 6 N ~ l ; ; 6 2 y j d p 3 < z z W , , l B V E F 8 6 1 1 1 5 1 1 ; 6 6 2 u m s ; ; u u n i s wXJXVXZXyX,.k.i.l.<.",
"y.,.t.~ N N N V W N 0 > 0 s 6 e y y y i y a p i m ~ z ; ; 2 e e r j d j # $ x < $ X X # ; 8 8 1 1 1 3 1 5 1 1 5 1 6 7 u G M 5 ; 6 5 n S y C.SXCXVXZXtXk.v.k.l.k.",
"l.i.y.t.R V l l W 0 4 > $ 0 s r e y e 2 y p G G <.V ; ; 1 2 3 e e r j ; o @ $ + o @ @ o o + : * : 3 1 3 1 1 1 6 u 6 7 H E 6 ; 8 7 l n y ! cXSXCXZXZXnXB.v.k.M.k.",
"M.M.i.s.' _ x x x 8 8 : o z L f p p d g g L K ! ~ M 1 1 6 2 e r 3 r 2 * o o o o @ $ $ # $ $ $ : : , 0 8 6 6 u p Z i K ! M ; ; 7 7 n 7 8 wXDXbXJXDXDXmX1XF.B.F.M.",
"M.M.f.s.' { V x x x z 9 o c 1.o.L L L G G g p p p H p 2 r a t r t r 8 : % o o # + # % @ $ $ $ > > : ; 8 M H A F C H d.~ ; ; l 5 5 C 2 A.ZXVXbXJXDXDXAXqX<XG.D.M.",
"F.F.l.s.4.` ' V V B { E s o.h | g h G G h g Z p p h g y y h s k V.q q w $ @ $ @ $ : $ # $ < > % < : > > < x W ] d.F.~ ; ; 8 5 7 S ; c xXVXmXVXJXJXJXJXVXwXqX<XD.",
"D.F.m.z.h.4.' _ V x [ j.G h h g g h f h p h g p G a i A s k V.V.K.K.q q q # # % % $ > $ $ : < : 0 < < < < $ , < d.d.z ; 5 5 7 m y z yXmXcXmXcXJXHXHXKXJXVXnXwXqX",
"D.-X{._.W.g.u.u.' V j.:X! r h h h t h h f a f f s y j C K A.J.K.zXZ.v v q % # # : : > > < , 4 0 < 0 < 9 0 9 < < < z : ; 7 7 u n 6 A.nXcXxXmXcXSXHXHXPXPXJXVXvXqX",
",X:X[.~.~.g.f.f.u.V Q.;Xd.a t t t t k j t j h f t s a g ~ ^ C.vXbXGXb v v v > $ * + : < 9 9 9 9 < 9 9 9 z 9 9 0 $ z 8 5 7 u u i ! tXxXvXxXcXVXDXMXVXLXKXJXVXxXrX",
":X;XoXoX|.~.c.f.4.u.Q.=XS.M = t r t t t t t t t g a = 0 K.cXCXLXIXPXLXLXbXVXmXvXC.c $ o : , 9 z 9 9 z 9 0 z z z 9 c z 7 u i u i G.xXwXwXxXxXNXBXaXkXmXZXNXMXgX8X",
"2X2X2X+XoX]._.c.p.W.=X=X>X! * t 4 4 = 4 t t t t j = 4 vXKXIXIXIXIXIXIXPXLXSXZXVXAXZXBXC.c : : 8 < 9 9 z z z s z z 8 8 u n i i i.rXqXqXtXxXtXMXgXsXjXkXMXhXaXpX@X",
"@X@XoXoXoXoX'._.c._.=X=X;XA.= - = = * = t 4 r t * V.VXPXPXPXPXPXIXPXKXCXbXmXmXmXFXmXZXAXZXcXZ.c x < < z N N N N W c N n i i E <XqXG.qXwXwXtXjXfXiXdXdXgXaXuXuX+X",
"'.'._.W.'.oXXXXX{.`.5XQ.=X1Xt & - * > 4 = & = t bXPXPXLXFXAXNXMXNXmXBXmXVXVXVXVXmXNXNXVXZXAXSXAXtXH.Q z 9 N W N N N m n i Z ~ 1XF.<X<XJ.wXtXgX&XpXpX0XaXpXoX@XoX",
"'.'._.Q.h.c.[.{.~.3X1X=X=X;X^ . - O - 4 & * C.ZXZXMXaX%X%X$X%XiXjXgXaXpXpXaXjXMXFXSXCXZXZXVXZXZXLXHXSXBX] l M / W z N T Z n i.D.D.D.G.qXqX8XpXfXuXuXuX4X4X@X@XoX",
"'.'.W._.m.m.c.` ( `.7X0XQ.>XS.- X & - O * A.MXeX#XE.R.R.$X%X%XpXaXfX%X$X.X#X#X@XaXhXNXAXHXDXSXSXSXNXyX<X;Xa.H m V U $.1.R F i.B.F.D.G.G.>XpX&X&X%X+X4X4X4XoX'.#X",
"`.'.c._._.m.f.R 7 a.rX>XQ.Q.1Xs   - . X Q hXgX#XY.*XR.*X*X$X$X%X%XOX$X$X X X}. XY./.'.9XMXAXSXFX9X;Xn.B.{.{.p.~ W ~ d.F.l.&.k.M.F.D.D.F.3XaXiX%XuXuXuX@XoX@X'.[.",
"_.`._.n.f.f.f.R i R ,X0X=XQ.6XQ . . X Q kXdXT.T.R.$XOX X}. X$X X|.OX|. X}. XR.}.T.Y.E.E.L.pXgXH.r.b.N.N.v.~.`.m.A.A.d.l.;.:.k.k.0.0.a.a.3XaXuXXX@X4XuXoX'.[.;X`.",
"m.m.m.n.s.t.3.E n Z >X>X=Xj.;X] .   q MXjX#XR.R.T.}.}.!./.|..X.X}..X|.}.(.}./.}.)./.R.R.E.I.].N.b.N.N.N.N.{.:X-XG.G.d.>.! ~ B.F.D.qXxXVXSXAXnXhX5X'.oXoX'.[.`.`.",
"B.m.a.u.t.t.y.Y d n j.:X=XS.Q.f.. q rXhX'.E.R.R. X X}.}..X|..XL.T. X)..X|.|.|././.^./.(.^.].2Xc.m.N.M.N.N.F.0XwXvXvXJ.vXyXvXVXDXJXKXPXIXPXKXHXFXgX3X'.oX[.'.`.j.",
"n.a.y.y.,.,.s.t.C n ' :X=Xj.n.p.9 eXkXoXT.T.!.}.}.).).R.T.}./.T./.|.}.!././.I.I././.b.e.b.~.[.b.m.N.B.N.N.1XvXCXUXKXJXJXJXJXHXHXHXKXHXSXDXJXKXJXgX3X[.[.Q._.`.m.",
"a.t.R y.y.T <.#.F l m >XS.j.j.a.aXeX4XU.U.)./.~.T.U.T.)./.^./.{.{.(.(.L.)./././.!.U.U.R.U.I.^.N.N.b.b.b.N.qXCXIXPXKXCXmXnXrXeX9X9XfX#X#X#X5XgXqXA.S.>XoXW.'.{.f.",
"i.t.' $.$.R ,.,.Z i S c.>X[ j.:XgX[.!.U.I.I.I.I.^.^./.!././././.^.^.^.^.^.^.^.^.x.!.!.e.e.z.b.(.M.M.v.k.wXUXIXHXSXZXMXaX.XR.Y.Y.Y.P.Y.Y.P.P.U.I.G.G.>X{.`.c.f.i.",
"y.y.,.,.$.R $.,.H C S 4.j.j.=X8XoXQ.L.r.U.U.I.^.!.I.I.I.I.!.!.U.^.^.^.^.^.e.^.x.x.!.I.e.e.e.b.b.v.v.r.{.mXZXFXBXZXnXgXpX.XR.Y.Y.P.Y.P.Y.P.q.q.r.G.D.D.`.m.f.i.p.",
"s.t.R R R R R R H C S 2.n.=X3X9XW.g.7.U.U.U.I.!.I.!.!.I.^.!.^.^.!.!.x.^.!.^.e.x.x.x.e.e.e.z.b.z.v.b.5.,XkXgXaXaXhXgXaX+X XR.Y.U.U.P.P.P.P.P.w.P.{.F.G.F.f.4.s.y.",
"s.t.' $.R R R T $.n F I m.6X3X_.e.q.q.L.U.e.7.g.e.e.e.e.e.e.x.e.e.x.x.x.x.e.e.e.x.z.x.7.e.z.z.v.b.0.m.eXjX.X$XiX5XuXOX|.T.U.U.P.U.P.P.P.P.q.q.w.r.N.G.F.j.h.4.i.",
"t.t._ $.R R Y Y T n n k.3X3Xm.5.r.r.e.e.e.e.x.b.b.!.b.b.b.e.7.r.e.x.e.e.7.e.8.e.z.0.0.8.e.p.5.s.k.5.6XhX5X X XOXOXOX}.T.T.P.U.U.q.I.q.q.q.P.q.w.q.z.D.D.B.f.5.u.",
"3.3.$.R U $.Y I V R 5.[.3Xa.Y +.0.9.0.5.5.5.0.k.z.e.b.r.b.v.v.v.v.v.z.b.z.k.v.z.v.v.z.k.5.0.k.s.5.n.gXaX#X}.T.].T./.T.U.U.I.P.U.P.q.w.q.w.q.w.w.w.r.B.D.{.n.p.s.",
"s.3.3.R $.U U F ] >X{.;Xa.C d } ..F S I D @.+.@.&.&.&.;.0.0.k.k.0.k.k.k.k.0.z.k.0.k.z.8.5.5.t.s.R ,XaXOXT.T.!.|.U.T.I.U.I.I.U.q.w.q.w.w.w.w.w.w.w.w.z.N.F.n.a.3.",
"4.s.3.) $.R E I 1X7XN.N.H Z :.=.X.o.o.J #.&.%.:.@.&.@.@.@.@.@.%.%.%.+.&.&.&.;.&.&.0.&.+.&.Y #.R f.gX5XL.Y.T.)./.!.!.I.I.r.q.q.q.P.q.w.9.w.9.9.w.w.2.5.n.D.B.a.4.",
"' ' 5.$.&.$.I <.:Xc.pX'.n J J D X.| X.X.@.@.@.@.@.%.%.@.&.%.&.%.%.&.%.%.@.%.%.%.| #.:.:.+.V V +.=X5X|.U.I.U.U.U.U.I.U.r.r.r.r.r.w.9.9.9.9.2.9.9.9.v.;.F i.-XN.) ",
"4._ 5.2.5.U U j.[.[.4Xc.n X.D X.| X.X.@.| @.@.@.%.@.%.%.@.%.%.%.%.#.%.%.%.%.@.X.+.o.o.:.%.V V t.aX2X^.U.I.I.U.U.r.U.r.r.r.q.w.w.w.w.w.9.9.9.9.9.r.0.+.H ,.n.N.a.",
"8.4.2.5.5.U u.3X_.@X+Xc.C | D } | | | X.@.X.@.@.@.@.@.@.@.%.@.@.%.%.%.%.%.@.%.%.+.#.#.J | M N S.5X^.r.I.r.^.e.e.P.r.q.q.w.9.9.9.9.2.9.9.9.9.9.9.9.+.I Y H s.n.n.",
"7.0.5.p._ U >X8X~.'.+X'.n d %.S | | | | | X.| @.@.@.X.@.@.@.@.+.%.%.@.%.X.%.%.%.+.%.K H O.+.,.8X|.r.q.q.q.r.r.r.w.8.r.9.w.r.9.r.2.9.2.9.9.-.9.-.+.I @.3.R R a.f.",
"t.R >.~ L V qX1XQ.W.#X;XT d ..} D D | | | X.| | X.X.@.X.@.X.@.X.X.X.%.@.@.@.@.@.O.X.o.+.9.-.b.2XE.w.P.r.q.r.r.r.r.0.w.9.9.9.9.-.2.O.O.O.O.O. . .Y I $.3.t.t.y.u.",
"N a s W 0 W rX1XW.'.Q.2Xl.G d F A D D D D | | | X.| X.| X.| @.X.X.X.X.X.| o.X.X.X.o.+.-.O.9.{.(.w.q.r.q.q.q.w.2.9.9.9.O.O. .} } } } } } }  .O.-.Y $.$.$.i.s.u.a.",
"8 a s s s W qX<Xc._.`.F.l.l.A n S ..A | | A D | | | X.X.| X.X.X.| @.X.X.| | | | X.} ;.-.S :XhXj.9.r.9.-.9.O.O.O...} }  . . . . .*.*.*. .O.O.+.+.#.<.$.t.p.u.u.j.",
"9 0 0 s s , j.S.c._.m.' ^ G.k.n A A D A D | | | | | | | X.| D X.@.X.X.| | | | | X.S 2.} H nXZXQ *.=.d =.=. .-.=. . . . . .*.*.=.=.*.=. . .@.%.+.#.$.3.s.u.u.a.j.",
"< > q 0 4 s J f.Q.j.a.<.<.y.A.d.C d C A D D S | } | | D A D D X.X.X.| g X.| f d +.| d j c ZXnX.. ...=.=. . . . .}  . . . . .*. .-.} *. .O.0.Y Y #.,.u.t.h.f.d.S.",
"0 4 t 4 8 m H c.W.j.R <.<.<.y.d.<.J d A A } A } A A } | | D D D ..g J ..f d f | } d d e V.ZXtXd  . .=.d =. . . . .}  . . .*.*.*.*.*.O.-.0.+.D Y i.R s.u.' j.j.S.",
"3 * * * 3 0 H d.c.p.T #.k.<.,.~ l.%.Z d F A ..D | | | D A A D D X.X.A d j d d X.d y r * H.AXqX..d =. . . . . . . .}  .}  .*. .*.-.*.O.0.5.I S R $.$.p.u.d.S.j.h.",
"= = 4 s M M n p.s.H M o.%.&.1.1.>.<.#.Z d A A A S A D A D D D D A d d e u Z G d e e = : yXNXS.*. .=. . . . .*. . . . . . .-.O.O.O.} ;.0.D D @.&.T p.p.t.F.d.j.>X",
"6 8 N ~ ~ V N ' ^ / / d.<.Y o.<.K >.#.A d A A d C C A D A A Z p d d i i Z L f 2 3 = O > xXnXS.=.*. . . .*. . . .*.*.*.*.O.O. .O.-.:.v.&.F Y $.&.~ i.s.f.W.{ H.nX",
"lXtXxXcXmXmXcXmXkXMXmXnX1X~ l L K T #.J J d A A ..A A C C C d Z J L A L L g e = = & X W hXtXB.=.*.O.*. .O. . .O.-.-.-.*.O.-.-.+.9.v.v.D n D I $.~ y.a.u.V [ BXDX",
"HXHXSXZXNXMXMXkXjXkXMXrX7Xn.H L K G A J A Z A C C d d C A J #.#.#.o.L L g r = = O X O d.rXrXn. .-.-.-.O.*.*.-.-.*.*.-.-.-.;.0.0.5.0.+.A C Y Y $.y.y.t.' { yXAXAX",
"kXjXdXsXsX&XsX&XfXjXgX1X3X;X1.f p g G G f Z f d C A | #.1.&.#.J g f a a t 2 * & O X > G.<X8Xa.=.-.-.-.-.-.-.-.-.-.-.-.;.9.9.+.-.F n i A o.,.$.R 3.t._ j.hXZXSXFX",
"dXsXpXpXsXsXpXiXfXaXrX<X;XN.z.H u p f f a a p N o.<.>.! ! K L N h g f j t * X X X $ W S.F.,Xv.S -.;.-.-.-.-.9.-.0.0.+.+.S S S S S A i H F.D.F.d.l.K =XMXMXkXdXdX",
"dXsXsXiXiXiXuX%X%XaXrX1XB.b.f.R y y y a e y g L A o.&.#.o.X.A A h a r r = & O . 4 : 9 d.A.D.M.0.-.;.;.;.0.0.0.0.} S D C C C C C C C i <.-Xn.l.l.,.d.gXMXjXjXdXdX",
"sXsXiXiXuX%XOXOXOXpX6X-Xm.f.f.~ r 2 r 2 e r g G Z G L J L J G Z s r t 4 = O & - - & r F.l.l.l.^ 0.;.k.;.;.%.} d C n C d C C n C d i C M.D.1.A.l.Q aXkXjXdXdXdXdX",
"iX%X%X+X%XOX%XOXOX4X;X`.n.u.' N 0 3 = 3 2 a p a s N M M M L M p h j = - & - > > @ . . h 1.1.h 1.1.&.1.J i y e i i i i i C C n d C u #.l.d.l.l.o.0XkXjXfXsXsXfXsX",
"uX+X%X+XOXOXXX(.).+X[.m.f.' ~ N 4 : * 3 e r p y a p p G G G p y j r = & & q q q w w v vXqXl.o.h ! 1.1.h 1 ; 2 a i y i i i i i i y d i.l.1.1.<.d.hXjXdX&XsXiXiXpX",
"+X+X+X+XXX(.).7.W.[.>Xj.{ E Q s 0 3 * = 2 r r r j j j j a r e r 4 4 k K.zXcXLXbXKXPXHXVXrXF.<.h h ! 1.L 2 = 3 3 y u u u y u u y 1 K i.<.l.>.Q rXjXdXiXsX%X%XuX5X",
"oX@X'.'.).W.7.4.h.>XQ.j.{ ~ ! W 9 > * * = = = = = y k / ^ K.J.J.cXVXJXUXUXIXIXIXPXCXyXj.a.F.l.p h h K h 2 * : 4 2 2 6 7 2 6 y 6 5 ,.<.1.1.! S.hXpXfXiXiX%X+XoX4X",
"2X'.'.c.g.h.8.8.=X:Xj.{ ' ~ ! L c < ; * = = = = V.xXmXcXCXJXKXKXJXLXUXUXIXIXIXIXbXxXqX-XF.l.k.:.f h h ! 4 & * : 3 1 2 2 2 2 2 1 M ,.<.1.J ~ jXkXiX%X%X+X4XuX[.oX",
"~.x.8.h.z.8.4.5.j.3X[ { ' <.~ N M 0 > O O O s H.NXNXkXgXaXdXaX9XaXaXhXmXDXPXPXUXCXcXqX-XM.v.i.' h t h o.j = 3 4 6 8 s p g L L h H &.%.L ~ 1XkXpX@X%X@X@XoXoX[.[.",
"f.h.8.4.5.5.5.3.'.3X[ { i.<.~ Q M 0 + O - k F.gXaXdXfX%X$X$X.X.X).#X0X0XBXZXJXLXcXwX1XB.v.k.i.~ s 4 r h f r h h L o.o.1.#.@.X.o.L o.o.p S.kXdXfX@X$X@X@X].'.`.{.",
"p.4.t.p.3.) ) P 2X5XQ.n.k.l.~ L 0 0 > > / G.5XsXpXuX%X%X$X$XOXOX.XOX@X5X0XnXmXmXtXqXF.M.k.k.>.L W 3 e h j e g a M u i p m y u i 8 N 7 V gXkXfX#XOXXXOX].'.c.f.h.",
"t.t.4._ 5.P I 3.[.2X[.m.1.k.>.M 0 < 9 / S.9XiX&XaX4X4XuXuX+XoX2X+X'.'.5X0XrXhXwX,X-XB.v.k.1.! V 9 5 3 r r e r r e e y W ] C.J.lXtXgXS.0XkXaX.X.XXX].(.~.c.z.5.4.",
"3.3.R U P I ) z.g.h.m.N.k.k.K V q 9 Q Q.uXiXiXiXuX+X+X+X4X@X@XQ.[.~.m.{.m.-XrXG.F.M.k.5.$.K N z x ~ 0 = = = = = N A.wXmXSXSXSXSXMXhXeXgXjXfXL.T.].~.c.z.h.4.5.t.",
"$.U I S B ( 0.7.` P 4.M.l.1.N Q qXS.'.&X&X%XOX4XuXuX+X+X+XoX@X@XoX_._.{.m.F.1X1X<.i.i.l.d.n.j.d.F.B.r O - s C.qXVXCXSXDXZXNXnXnXrX0X8XgXkXhX@XW.h.8.` _ 3.5.2.3.",
"Y I F B I 8.e.` ) B 3.M.k.! N 0XkXpXuX%X.X%X4X4X4X4X4XoX2X2X2X'._.~.~.^.c.f.u.<X<X<X<X1X1X-XF.B.k.l.^ A.yXmXNXNXcXVXVXNXmXhXrX0XeXeX0XeXhXgXjX4Xh.p._ _ _ 3.$.Y ",
"I I F P 8.b.2.( I B 3.l.1.K / nXdX#X%X$X.X%X+X2X@XoXoX[.[.XX{._._.N._.x.c.' Q <XhXtXqXG.1XD.F.N.1XrXxXmXmXxXmXnXnXnXnXnXtXrX9XaX9X8X8X0X7XrX9XaXaX2Xh._ U U I P "
};
