/* XPM */
static char *_709858089416[] = {
/* columns rows colors chars-per-pixel */
"80 80 256 2 ",
"   c #06061A",
".  c #150319",
"X  c #090812",
"o  c #240419",
"O  c #320B1D",
"+  c #070823",
"@  c #180B26",
"#  c #0A1728",
"$  c #17162B",
"%  c #1C1C33",
"&  c #1B1834",
"*  c #141433",
"=  c #260728",
"-  c #340329",
";  c #26162B",
":  c #370A37",
">  c #221C35",
",  c #241D39",
"<  c #2A1A38",
"1  c #351937",
"2  c #290D37",
"3  c #052838",
"4  c #192538",
"5  c #17353D",
"6  c #14282D",
"7  c #232136",
"8  c #25233B",
"9  c #29253D",
"0  c #252A3D",
"q  c #2B293E",
"w  c #2D2532",
"e  c #33253C",
"r  c #292A34",
"t  c #451938",
"y  c #472439",
"u  c #391C44",
"i  c #2A1B43",
"p  c #1A2B43",
"a  c #173947",
"s  c #0C3548",
"d  c #2B2641",
"f  c #252B42",
"g  c #2D2B43",
"h  c #2E2E49",
"j  c #262642",
"k  c #332543",
"l  c #322D45",
"z  c #3A2B44",
"x  c #332E49",
"c  c #3B2C4B",
"v  c #3A2446",
"b  c #2D334B",
"n  c #283648",
"m  c #333146",
"M  c #35324C",
"N  c #39344E",
"B  c #333A4D",
"V  c #3B3549",
"C  c #3B2A51",
"Z  c #2A3A54",
"A  c #353451",
"S  c #3A3652",
"D  c #343A53",
"F  c #3C3A54",
"G  c #3E3C59",
"H  c #353958",
"J  c #3F3F62",
"K  c #1E1C41",
"L  c #422D4C",
"P  c #442647",
"I  c #44364D",
"U  c #462C53",
"Y  c #423553",
"T  c #423C56",
"R  c #423D5A",
"E  c #4A3C5C",
"W  c #493656",
"Q  c #56385A",
"!  c #562D4C",
"~  c #493D62",
"^  c #563A62",
"/  c #5A2954",
"(  c #184857",
")  c #0F4B53",
"_  c #29465A",
"`  c #3C425C",
"'  c #364659",
"]  c #294E54",
"[  c #165966",
"{  c #105667",
"}  c #3A4965",
"|  c #275566",
" . c #3A566A",
".. c #2E566E",
"X. c #16646A",
"o. c #0C6D71",
"O. c #2C6875",
"+. c #317178",
"@. c #00665D",
"#. c #44425D",
"$. c #4A445D",
"%. c #464458",
"&. c #53475C",
"*. c #52515F",
"=. c #454361",
"-. c #4B4563",
";. c #444A64",
":. c #4C4965",
">. c #4D4B69",
",. c #484969",
"<. c #534464",
"1. c #534A65",
"2. c #524D6B",
"3. c #584868",
"4. c #4D526C",
"5. c #445669",
"6. c #54516D",
"7. c #59556A",
"8. c #5A4A72",
"9. c #4B5773",
"0. c #565371",
"q. c #5A5573",
"w. c #5C5A75",
"e. c #5D5B79",
"r. c #555A75",
"t. c #464A70",
"y. c #64566B",
"u. c #654A72",
"i. c #625C7B",
"p. c #675878",
"a. c #6A4C6E",
"s. c #486779",
"d. c #596478",
"f. c #487079",
"g. c #64627C",
"h. c #69455F",
"j. c #2C827C",
"k. c #08857D",
"l. c #277884",
"z. c #3D7A83",
"x. c #386D84",
"c. c #187887",
"v. c #675A82",
"b. c #507588",
"n. c #676582",
"m. c #6B758A",
"M. c #5A5D80",
"N. c #8B6E8C",
"B. c #1A9897",
"V. c #118F8D",
"C. c #278787",
"Z. c #2B8A96",
"A. c #2A989A",
"S. c #358D8F",
"D. c #10AA9A",
"F. c #2CA29B",
"G. c #359BA2",
"H. c #19A7A7",
"J. c #1AB5AA",
"K. c #0EB4B0",
"L. c #24BDB7",
"P. c #38B8B6",
"I. c #30ADAA",
"U. c #1B9BAB",
"Y. c #479798",
"T. c #538A8E",
"R. c #6B8D95",
"E. c #5298A5",
"W. c #7893A3",
"Q. c #4AB6B7",
"!. c #52ADAF",
"~. c #70AEB2",
"^. c #66A09D",
"/. c #06C4B8",
"(. c #0FC9B5",
"). c #35C4BB",
"_. c #2BC5BA",
"`. c #57C7BB",
"'. c #2ABAC4",
"]. c #4EBAC7",
"[. c #71B5C3",
"{. c #17CBC4",
"}. c #17D5C7",
"|. c #16DBD3",
" X c #28CDC8",
".X c #38C8C8",
"XX c #27D5CB",
"oX c #36D4C8",
"OX c #39D8D6",
"+X c #2BD6D3",
"@X c #16E7D3",
"#X c #34E8D9",
"$X c #15FFED",
"%X c #39FEFA",
"&X c #33EEE7",
"*X c #33D9E7",
"=X c #4AC7C6",
"-X c #54C8C9",
";X c #48D9D8",
":X c #55D8D8",
">X c #4CD4CC",
",X c #78C7CA",
"<X c #67DADA",
"1X c #6DD0D3",
"2X c #46E5DE",
"3X c #57E2DB",
"4X c #4AF9DA",
"5X c #69E7DE",
"6X c #50DEE2",
"7X c #72DDE6",
"8X c #48E7E5",
"9X c #5AE9E6",
"0X c #58F6E9",
"qX c #44FFF6",
"wX c #59FAF9",
"eX c #4CF7EB",
"rX c #68E8E9",
"tX c #76E7E9",
"yX c #6BFEFE",
"uX c #65FBFA",
"iX c #77FBF9",
"pX c #70F3ED",
"aX c #8DAAB6",
"sX c #839CA3",
"dX c #88B9C5",
"fX c #8DD1D4",
"gX c #ACCFCF",
"hX c #8FDDE2",
"jX c #ACDBE7",
"kX c #89E6E8",
"lX c #96E8EA",
"zX c #96F6EC",
"xX c #83FDFD",
"cX c #89F8F9",
"vX c #94FEFE",
"bX c #9CFEFE",
"nX c #99F9F6",
"mX c #91EDF1",
"MX c #A7E7E9",
"NX c #A4FEFD",
"BX c #ABFEFE",
"VX c #AAF7F8",
"CX c #B4FEFD",
"ZX c #BBFEFE",
"AX c #B5F7F9",
"SX c #B4EDF0",
"DX c #91E1DE",
"FX c #C3FEFF",
"GX c #CBFEFF",
"HX c #C8F6F9",
"JX c #D4FEFF",
"KX c #DCFEFF",
"LX c #D6F5FE",
"PX c #C3ECF3",
"IX c #E8FDFF",
"UX c #F7FDFF",
/* pixels */
"G J ,.,.=.<.>.<.^ e.;., i 9.z...} ( # . ^.cXCXzX*X*X*X;XA.) Z F :.1.2.6.0.q.q.w.e.q.e.q.8.M % f x b A G #.>.4.w.$.g x M M F F R -.R R ~ =.-.-.-.-.-.-.:.=.S M S ",
",.<.<.,.2.2.2.2.8.a.9 | fXbXNXKXvX=X[ 5 B.3XGXMX|.|.#XJ.Z C G :.:.:.>.2.8.q.q.w.q.w.q.e.0.G j h M D D %.;.4.r.d.R 0 M A M T T #.=.R -.-.:.:.2.2.>.>.>.>.>.R A A ",
"-.2.2.<.2.0.q.0.s.% g.PXBXVXJXZXuXV.Y.cXD.o.2X5X X X X| : C ' h.-.-.:.2.2.2.6.0.8.q.0.0.6.#.d f M M G #.#.#.#.#.T g S Y S R F #.-.-.-.-.-.-.-.-.2.6.2.>.>.,.R S ",
",.,.,.9.r.4.0.M.<.4 ~.JXKXJXnX0XoX) b.dXT._ X.f.+.O.| n / -.Z T R =.-.2.2.2.>.1.,.>.,.:.>.` g 0 f b M D M M b b N g N R R #.%.-.-.-.2.2.2.2.2.0.>.6.6.6.6.>.-.G ",
"#.r.0.2.3.u.p.u.W < S.tXHX7X/.+XQ.A @ . @ P t ! P Q L 0 N Y S _ G R ~ -.-.-.-.-.=.=.~ =.-.F h 8 g l h l h x M S x d g x F %.-.:.,.2.2.2.2.2.8.0.6.0.q.0.2.,.~ A ",
"z <.y.3.Q ~ ^ C e 5 a [ B.{.&XwXpXfX~.!.b...S 1 1 P e S D h G I R G G E R =.R -.~ =.G =.#.D h f h h h x M S S %.S d 8 9 k D R $.2.2.2.0.q.0.0.0.w.w.0.>.#.R F A ",
"; X $ d.W.R.b._ O r . n P.wXuXwXwXvXpXuXwXqX(.T.fXf.6 q ' M L F F F F T G R R ~ ~ G G #.G A g f d x M S S S G F R S h 9 j g x M ~ =.2.0.w.i.e.q.0.:.#.G A A S A ",
"# 5.aXFXZXbXbXtX] X 5 `.GXFXvXvXuXwXyXuXuXwXH.fXBX#XX.: 1 G L Z S S F G R G R G ~ G G R F h d d x x A S S S G G R R S M k d j x x M F -.1.:.-.#.S A x A A S M d ",
"-XpXnXHXLXGXxXuXT.X +.&XmXIXnXCXCXzXxXvXvX=XB.tX!.C.( 4 h z z V S S S S S F F T T F F F M l d l m M N N S T R -.#.:.#.R R S x j q z V V F F V e b q I e M z % 5.",
"tXnXPXUXUXZXpXwXS.o C.|.&XNXvXzXZXJXVXrX;XH.C.Y.5 3 4 g l l m V x S S N N V V N S F F V l q d l M M N S F F R R #.>.2.8.6.2.-.x , q g l V T M q g v w 5 B W Z ].",
"nXBXJXUXUXMX=X8XF.# l.}.:XmXbXZXFXhX>X XL.Z._ _ 0 % , z z k g g l M M V M M M V M N V M g 9 d M l V S F R R -.-.-.-.2.2.q.q.8.G 8 q q 8 0 l l q 9 x S 7.2.` z.iX",
"iXuX0XnXGXlX>X+XA.6 l./.OXxXbXnX>X+XOXI.+.t.2.p.u.W < < , h m q l l x M M M M M M M m l d 9 l m M M F G R ~ -.>.2.2.2.0.0.e.e.R l x M h 8 8 d l S -.2.<.q.Z ,XiX",
"8X&X&XeXpX6X+X|.A.# { V.#XqXqX+X@XL.+.~ ^ ^ q.8.q.1.M 7 9 h m l l M M M m M M m l l g q q k h l M V S F R R -.2.0.0.q.i.i.n.n.>.M M Y G M 9 j g -.-.:.;.<.u dXwX",
"#X&X&X*X6X X{.{.V.^.jX1XA.A.).).Z. .L ^ u.q.2.0.4.0.;.b f f q l M M x l l l k d g l g q g g l l M M F R -.-.2.2.q.q.0.q.0.p.n.q.F S G %.R S x M t.R F :.C 2 O.:X",
"wX#X&X8XwX2X XB.!.VXJXpX) o ; a 1 P <.;.,.2.E >.;.:.$.B 0 8 0 m m k g g q d d q 9 h l g 9 g l l M S T $.-.,.2.2.-.-.~ R R ~ 2.2.T T R R $.%.F S M N <.k f dXlX=X",
"[.=XXXJ.Z.+...Z ].1XQ.C.6 O w o e B ' %.E E ,.#.R W R T l 7 0 g g q 9 8 9 q d d 7 k M l 9 d l M M S Y %.R R S S M F M M A l S F F #.-.-.#.=.S x x W u 6 aXIXVX>X",
"].) @ ; X o ; 7 f 0 8 0 g k k 9 8 x S S ` R F F N S S F l 7 7 7 8 8 8 g M l l l l q g 9 8 9 l m V V M V l l h m b M h M A M M g M -.2.-.0.#.N g z V   R.JXFX7X8X",
"Y.s ; ; r w e g n g g l z M x z 9 l l x M S A A F N M V q 7 7 9 > 9 l N M M l N l m l l q 9 9 d q q q 0 0 g h g h M h M h f b g Z E a.<.` -.I , 1 @ a kXbXtX:X.X",
"X.4 < q q V L N B M M N F N N c l q 8 0 h h x M x l g 8 8 7 > > 8 M T T N N N S m M m l l q 9 8 9 g l q 9 f b M b A A b h q d f c -.&.` T L 7 5 k + b.cX9XOX.XV.",
"f i P S ] F N Y F G G F F N N c S g 8 d h h x A M M M m m m 7 7 S R %.T F G F S M M M M M k g 9 q m V M l b A S A G A M b g g h < R 0 B B 0 V 9 P < [.xX X).l.( ",
"c L Y S V F R R R G R F F S S F S h 8 h x A A S G ` #.G %.` g g $.-.#.%.R #.R F N S M M M M x g l 9 l N R #.` G G G S B M M m d 8 @ ' fXb.7 L G z 9 R.E.X.) 6 1 ",
"c N F S ` %.R E #.~ #.R R G R G B d 0 M S G G ` =.#.=.#.;.%.m M -.:.,.-.-.-.#.R %.Y S S M M M l l 7 g #.4.:.,.=.` S G S F B f 0 c T.bXCX] 4 F W ] S c 1 < = 1 z ",
"l M S R ~ ~ =.~ -.-.-.=.~ #.R R g 0 g B G #.,.,.:.>.6.:.2.:.M #.>.2.2.2.2.-.-.-.#.T G S N M M M l 8 N 6.q.4.6.6.:.=.#.` G B j 8 hXZXGX,X3 #.^ =.R 3.W S V ; v g ",
"D B D ~ ~ ~ 2.8.3.2.2.2.:.=.=.G g d b D ` =.6.4.r.4.w.r.0.:.B #.0.2.2.2.2.>.>.-.%.#.T F S N N M m % x 6.e.7.6.4.4.>.4.#.G M 8 8 Q.cXvX,Xp E 6.5.8.~ H b M < g Z ",
"A G ~ :.>.2.e.6.8.8.2.2.2.>.R A % 8 f b D G $.4.e.M.n.M.0.A M 2.p.q.q.q.6.6.6.:.,.~ ~ G M 1 . X @ = M n.e.p.e.M.d.1.,.~ A Z 1 @ o ] J.F.V &.r.t.S 0 q %.7.F 8 M ",
"R -.=.>.>.2.8.2.r.r.e.e.6.G h , g #.:.S j b ' #.,.r.e.4.S f j Y -.2.w.i.w.q.6.:.5.;.>.-.% m m.^.x.+ k m.r.9.0.u.$._ H b } @ 6 m.W.b.3 . 1 g.y.C g M %.4.4.M 0 F ",
"~ -.,.8.8.6.q.i.d.d.r.w.2.A f S :.q.q.#.M M M h D ` G h m V m V Y R -.1.1.6.6.4.-.2.<.U * b.JXKXxXS.4 k =.' E T Y Z #.H 7 ' gXKXJXtXZ...` <.! a 9 M F F m 7 8 G ",
"#.-.2.6.2.0.w.i.g.n.g.:.M g F 2.q.6.:.6.2.G g 8 M D M g I %.%.I S I N N F T T %.W ~ C u b Y.FXIXrX0XZ.4 d v U | } E C u $ T.IXIXhX+X{.K.X.y z 5 8 S #.R x > 8 k ",
"h A -.2.2.i.n.i.p.1.E S k S <.R $.$.-.-.$.x j S ` $.:.%.V &.&.%.&.&.E V V V 9 l ' g x 2.4.9.,XCX-XL.L.C. .n.4.Z B 2 i K   R.KXJXrXL.K.K.) 1 < 1 S >.w.w.6.#.M j ",
"d 8 g S -.q.6.R M 8 $ , M N S &.E <.E N l x M R -.4.i.$.V *.y.*.1.1.&.T E T e z S Y W <.^ ! 7.Q.J.Z.<XBXZXFX~.* + } [.`.a m DXcX+XL.{.D.' t 9 Y 6.7.0.q.e.g.0.=.",
"6.F 9 , M N j 9 a R.R.B $ D :.M E L k < , x F R =.-.q.<.z $.p.y.y.1.y.&.*.%.e m @ T #.n h C , n @.1XNXvXtXiXI.# T.HXbX&Xj.  j.XXH.K.D.@.z L G 5.>.:.>.2.0.q.w.w.",
"q.w.2.N 8 % x n.SXAXKXjX' # B F l $ , d > > C R -.=.i.2., z y.p.p.y.y.&.&.I $ . sXDXlX-X=XV.3 - 4.lXxX6X@X(.X.r.VXIXyX/.k.b.E./.K.H.{ - O ] :.~ :.=.:.6.2.2.2.6.",
"8.0.6.:.L & ) bXUXUXmXqXOXZ < w @ Z Q.uX].Z K g :.&.q < U c L y.g.y.h.&.z 7 5.DXHXUXUXZXpX2XQ.X.[.xXOX X|.).3 m.CXmXD.).SXGXNXcX9XJ.O.5 c Y } H -.-.-.:.>.2.2.2.",
"-.>.2.R P 9 6 [.IXVX:XL.2XY.. X Y.kXvXiXiXvX[.J S ; ( aXFX~.P &.&.%.Q e ' sXAXCXAXKXIXAXkXpXrXQ..X8XL.{.}.V.* N.cXJ.,XIXKXzXzXNX;XU.+.a T Y ~ J =.=.-.-.,.-.-.>.",
"2.#.=.#.c < # T.uX[.P.{. XZ < ~.uXxXxXxXiXbXmXY.  5.HXBXuXiXT.c h.%.m m ~.BXZXVXSXHXnXkX7X5X:XP.O.D.K.(.C.x e d.+.Y.GXIXSXnXBXlXI.l._ h F N R ~ R R =.=.-.-.-.-.",
"R -.:.G N P @ 4  X.XG.Z.t.2 f.NXBXNXVXHXSXbXcXc.6 jXUX>X(.iXrXM y I 4  .CXvXmXNXFXBX5XtX5X1X:X`.2 ( X.[ p 1 I 4 . T.VXVXCXBXvX1XC._ k l V M Y Y R G R R R R ~ R ",
"F E F b l z < 7 _ | f 1 t = d.AXAXKXIXUXBXwXOXc.~.KXPXoX}.uXeX1.P W d s.iXrXcXpXcXcXtX7X1X3XrXI.P U U C G b z 9 - z.cXvXkX:XP.B.| M L c B M C S F F T R F R G R ",
"S S l M q < e &.I o o 7.R.+.( lXbXFXIXFX9X X X.XSXIXmXXX*XwXG., T -.Q b.:X:XrX:X:X7X1X<X3X3X!._ ~ 3.r.y.g.4.1.;.i H 7X;XH.J.B.{ 4 z Q W g b A N S S F H S S F H ",
"f M M m g 7 ; l F f.fXAXKXvXP.1XNXNXVX<XP.;XI.X.!.ZX0X+X%X&X} M :.4.^ t.-X8X:X8XuX>X X#X;XS.Z L 5.} >.;.:.w.e.2.r.u x.H.V.l.| j < q R F h g A N C A C A C A A C ",
"B k z 0 0 $ @ 1.VXNXZXZXHXUXNX XxXZXAXQ.U.Z.g t [ oXeX2X%X.X, I %.' u.i A.wX9X6X.XK.{.{.l.k v -.Y J ;.5.1.3.} 6.<. .a _ | A ! 7.%.0 g S c b x z A x A x A M C x ",
"f f 1 6 ; . b.yXyXiXyXiXcXBXvX.X-XuX;XP.=XO.: ^ Q | F.I.C.[ f S D R S f _ b.+.@.o.D.J.| 1 C A S D D S G ` ` #.` G N h g R 1.6.q.r.G h j M g c k x k M m l z k l ",
"    . ; o j.eX%XqXqXuXuXiXbXnXkX>XB.c.hXCX-XX.U -.n ( _ B %.#.4.5.>.<.~ F b s 3 s { { a u M Z n F D G D F G D A g M Y #.:.:.:.$.r.>.A , , > 9 9 0 9 q 8 9 4 . . ",
"5.5. .$ - S.%X%XqXwXuXiXiXiXbXCXpXU.S.VXZXbXoX..U Y -.<.a.a.p.r.9.r.q.p.u.<.<.^ U h p k c M a n m b M M m g j , d F $.#.$.#.#.:.-.-.S j d 8 8 q 1 8 $     f `  .",
"HXIXbX+.2  .#X%XwXwXuXiXxXxXvXFXiX XVXbXnXGXrXo.v <.8.6.3.3.8.6.q.0.2.>.>.2.<.-.t.E x j 0 0 0 f f g g f f j % & g F R R R #.%.:.H M h x S M M x z . . ' ~.lXZXFX",
"JXHX/.}.9./ c.6XuXwXwXuXiXvXBXZX).XXNXnXZXLXQ.@./ 2.,.} 5.;.6.0.2.2.2.>.4.} #.;.` #.S 4 % 0 k z x M M x l l g j g S F F R T F S x x M F B F S h $ 5.aXBXFXCXBXNX",
"IXDXK.%Xb.i t.3 V.9XuXyXxXbXkXV.o.9XbXBXLXKX!.h Y -.=. .4.4.>.-.-.-.-.>.-.R R R S E W 8 0 G R R F G F A A M x h M N M S G F M x x F ~ G M S m > E.MXZXNXzXNXZXGX",
"UXfX/.&XP.3 gXgX> 3 o.2XwXI.) # s <XiXxXVXVXT.I F ~ R ~ -.=.-.~ -.-.R R R E R R T R S g M ~ -.~ ` T F S A M x d l x M N S x l M R R =.G R F , :.mXbXvXbXCXGXJXJX",
"UX1XK.*X>Xp gXIXGXsXD s s p D $.Q S.{./.|.F.I r S R E R G #.-.~ E R E R R R ` H R B b A ~ -.~ } R R R F S S M h h l x x M g x #.<.R R S %.M 9 aXbXvXnXnXlXMXJXIX",
"HXP./.XX2Xq W.wX4XpX^.8 o y W ' S 8 n ] ] 6 8 F R G R F R R R R ~ R G ~ R R F F S S h A ,.>.-.,.-.,.~ F N F V q q l l 9 9 M %.:.$.&.' ` F m ..9XrXtXrX7XrXrXkXvX",
">XJ.'.}.).% 6 o.) ] %.7.%.w > V z < $ # # 7 z Y S S S S F G F R F R T G S S S F M M x G 2.6.-.,.,.~ R R T T m > % 7 8 > h $.1.$.$.-.,.} E c M.9X6X3X<X7XrX<X<X<X",
";XK.U.|.C.X ~.MXx.< / &.r n n e z c z 7 ; l c z M S S S S S G Y A S S S G S S A M x S -.0.0.>.>.-.-.~ #.%.F l 7 l l g , l :.7.:.-.,.8.~ E u b.wX6X6X6X<XrX9X9X:X",
"rX].K.|.p z GXUXpX..c ! e 0 b c M I I e w w z N M S S S N A M S F S S S S S x x h j M >.q.0.6.6.,.,.-.#.F M N F $.#.T M l M =.7.2.,.u.~ &.L E.&XOX:X6X:X:X;X:X6X",
"7XE.B.B.# ,XNX^.(.F.D : L m T l A M g 7 % 8 j A M M N N M M N N S S S M x l M N m g M :.:.:.:.-.-.~ G N M N %.-.$.R #.R S g M $.2.>.u.,.2.S G.@XoX;X6X:X;X;X6X;X",
"l.{ @.3 S.4XC.o.@.+.g u ' b Y N G D g n B M f 4 l x M S F G N N C M M M M M l g 8 7 0 S S N A S M x l N %.:.:.-.R R R R R A M M $.:.8.,.=.H G.%XOXOXOXOX*X;X;XP.",
"o.s a ; +.@.p ( 5 0 d g b G F R #.D q g %.;.S d d l x S F F M x m l l x l g 9 7 7 7 q V M h g h j m T -.6.q.2.~ -.=.G H G F S x V R ,.#.F c ...XOX X X{.{.L.U.c.",
"a R W ! 6 < k 4 e L M H S R =.E -.F d q %.6.-.R , , j k m m l 7 % 9 h 9 % % k T 4.7.7.6.-.A d 8 N 1.w.w.6.2.2.>.R -.~ ~ S A C M q m Z F W P 2 o.V.U.K.K.K.L.V.{ ",
"q *.h.! e f D h M V M l S $.:.$.T M 0 h G =.,.4.M q % 0 , @ . * 5 n # ; l &.g.d.e.r.w.e.:.M M =.i.i.p.q.0.2.2.-.<.~ ~ E F S x x z f g l n 7 t o t ' ) X.j.C.) r ",
"! &.*.' l g C A N B M M F -.6.:.M f 8 b G ` G G T 4 7 % + b.fXfXPXPX;.4 w.i.r.r.e.6.6.4.` =.0.i.i.q.0.0.0.2.2.:.-.,.,.G A S S F B 0 m e X $ 6 ] S 1 e L U <.e y ",
"y ! %.g 9 U F H F S F F F #.:.$.h 0 f g M M h h m M E ^ D T.mXBXJXPX5.Z d.4.6.4.4.4.>.,.#.r.n.g.w.q.q.0.2.2.2.<.=.=.} G G S A x g %.o . 7.aXDX1XH.l.8 : u C l - ",
"b._ p d I W F G T F R R S S S l l 8 8 d g l M A ` 8.u.v.M.r.b.,XKX~._ ' ` G r.#.=.:.;.=.-.w.i.0.e.q.0.0.2.2.,.-.=.=.F S A S Y x z e # g.JXZXCX3X|.XX_ =.b.+.f.d.",
"uXZ.a C E F ' %.R T #.R S M g 8 g 9 0 k M S =.>.4.0.2.q.e.8.0.m.aX9.' ,.#.G ~ =.` =.G S :.e.i.e.p.q.0.0.2.2.-.-.^ -.R #.Y B l @ u . +.FXFXmXbXtX*X@Xo.r.VXFXLXNX",
"eXA.b P W F %.T #.R R %.T M x g h l N F R R -.-.-.,.,.q.q.M.v.v.8 , %.-.%.R F =.` =.G D :.w.0.e.6.2.2.2.,.,.-.-.R R Y S % + B d.N $ 1XcX7XpXkXiXwX$XI.5 ,XGXKX0X",
"Z.( & W <.` ` <.#.#.#.#.#.S g x M V F R R R R R 3.7.4.q.0.r.i.n.p.R G S H =.=.H ` #.G G =.:.-.=.-.#.R R R R G F N $.4 # ' aXLXHXs.s 9XOXrX9X:XrX:XJ.C.X S.vX,XD.",
", 2 c E R ,.>.8.#.-.$.-.:.S d d M M N S F R $.-.$.3.3.q.8.p.p.d.m.R D H G D J G H S A h b A S S S A C A C M M x b f 4 n.SXKXJXFXj.{ #X+X;X*XrXoXV.) m L  .Q.Z j ",
"l g d F >.-.~ 2.:.#.:.4.%.l 9 m x S S S F R ~ =.^ 2.1.6.r.e.r.M.d.' M D A D A H H n M $ . = - < m l q q q l q q e @ d.GXZXlXkXnXY.s H.$X|.OXL.O., l 7.w.l $ , 8 ",
"k h l R ,.>.,.8.:.:.6.1.N q 9 m S x M S S T R -.<.-.2.6.2.q.i.i.2.S x M G G M ' v @ @ I 7.s.+.| > 9 l l l q g e e + f.BX<XB.V.B.} @ | Z.x.O.| H F V M Y c l M N ",
"M M g S -.6.8.0.6.1.:.S q 9 q l M x C G G F R #.;.=.,.6.0.0.8.2.E C S V g B B 0 $ m.dXCXCXBXiXH.$ 9 l M l l l g e $ ] !.j.@.[ ) 1 y P N Q Q <.y.i.1.k 8 V N M M ",
"S m j M ,.q.6.>.#.T M 8 8 q k l x x A A F F R R ' 5.;.;.:.;.` G A j b B f m q   T.SXGXbXpXpX).{ q l N M x l x m x m 4 p 5 f g i q %.E W ^ E 1.7.i.6.l j G T N N ",
"Y m d l R -.G M l g d k l q 9 9 l M M h M F %.R ~ W W F V M B M 5 n m 0 w < ; = =XcX7X9XqX_.( 2 S F F M M N M M x S k < d k < S M Z H =.,.J ~ -.2.:.S S =.#.#.R ",
"%.F g 8 g k d d d j g x l g 9 l d l M l m F N M / i @ ; @ < z e r r 7 % $ +     I.yXeXXXH.( u Q F F S S F F S M b M Y v v c 4 n W Z A =.J } ^ u.2.=.F =.>.:.:.=.",
"T F q , 9 j d x x x M l l l l l d 9 j k l l k g + p 5.s.' # @ e O w # X a W.dXO.{ P. XS.p 1 U R F T R F F G F S D M S z k V k 9 u A A Y S } =.~ =.A A :.q.6.8.:.",
"V l 9 d x x x A M M l l M M l g x d , 8 9 , 0 l [.mXzXBXZXR.6 7 o X 6 R.MXbXcXiX-XO.( 0   z ` ' R #.%.R T #.Y F F S A B N , > k d m g P P b b S S g M 6.e.6.>.R ",
"g h l x M M N M M M M N M M M M b B r % r <   ,XBXVXCXKXUXBX@.. 4 T.SXJXzXkX7X8XyXS.^.MX| e ^ } -.-.-.-.-.~ R R Y F R S l d l h h l x x M x M M l % q 1.2.=.~ x ",
"l x M M M M A N F S S F S N S M U l I q % @ 5 fXvXBXNXDXVXSX] e HXLXIXKXkX5XrX9X>XE.FXFXb.k ^ ;.-.<.<.,.-.-.-.~ %.F S x d d h l x x x M M N M N V 9 9 T -.F A h ",
"M M M S S N S N F F S S S N N S S C M 0 e 1 @ m P.>XQ.D.J.+.r fXxXcXcXvXzX5XrXiXY.| R. .' z 2.0.q.0.2.2.2.2.-.-.-.%.M g g h x x M M M S N S S F F m 8 m F x h g ",
"M M N S S F S F S S S F F F F S D E M n w .   X s Z.I.).F.$ - fX|.+X|.&XxXiX2X0Xn X @ X $ &.q.8.8.2.0.q.0.0.2.>.R R M d l M x M S N M S S F F F T T l 0 l d l x ",
"S N S S F Y R T R R %.R R R F S S U Y 7 X  .,XfXjXkXNXvXbXMXr.z.$X&X&X8X=XI.V.| < z %.I ; T 0.v.q.w.i.g.e.q.2.-.F F x g l x x M M S S S S F F F N %.S l , 9 V M ",
"S S F G R #.#.#.#.$.-.#.T F S M A F v X ] MXZXCXAXCXbXcXvXbX!.) H.U.Z.X.a Z H W y.n.g.7.> 0 >.0.q.q.q.q.6.:.R F S x g k x x x N M S S F F F G T F -.#.A , 8 m q ",
"F R R %.#.#.$.$.$.:.$.R S M M M b n % @ sXZXAXAXAXFXCXBXNX<XS.. . 4 4 j ~ u.v.n.v.n.g.y.S 0 ` H R G G G F G R =.#.l j x M M M S F F F T R #.#.#.~ =.-.R l 9 m m ",
"R #.%.-.:.:.:.:.:.:.:.%.F M S F U M > 4 fXnXCXGXZXzXpX0X-X+.) w y V h.p.r.M.n.0.v.v.i.g.:.8 c G R #.R G R -.0.e.2.x j M S S F F R T R #.$.$.$.-.-.-.-.:.F l V V "
};
