/* XPM */
static char *_709858101708[] = {
/* columns rows colors chars-per-pixel */
"80 80 256 2 ",
"   c #B90117",
".  c #B30110",
"X  c #B90A2D",
"o  c #C7011C",
"O  c #D3011A",
"+  c #D6000E",
"@  c #C90627",
"#  c #D60628",
"$  c #CB0936",
"%  c #D40D33",
"&  c #DC0B3B",
"*  c #D80737",
"=  c #CB1437",
"-  c #D41334",
";  c #D91235",
":  c #DB133B",
">  c #D7183D",
",  c #D1152D",
"<  c #E4032A",
"1  c #E20C3B",
"2  c #E60739",
"3  c #E31439",
"4  c #F5093D",
"5  c #D2243C",
"6  c #E7223B",
"7  c #DB0A42",
"8  c #DD1443",
"9  c #D51B44",
"0  c #DC1B44",
"q  c #DE1C4A",
"w  c #D61647",
"e  c #DC1A51",
"r  c #CB1443",
"t  c #E40C43",
"y  c #E80945",
"u  c #F60948",
"i  c #E41343",
"p  c #E4154C",
"a  c #EA154C",
"s  c #E41C4B",
"d  c #E81848",
"f  c #F6184B",
"g  c #E41C52",
"h  c #EB1C53",
"j  c #E91B56",
"k  c #F21D53",
"l  c #FC1C54",
"z  c #FA1855",
"x  c #F30853",
"c  c #DC2444",
"v  c #D9264A",
"b  c #DC2955",
"n  c #DB3759",
"m  c #D22D4E",
"M  c #E2244C",
"N  c #E7274A",
"B  c #E42354",
"V  c #EB2354",
"C  c #E42C54",
"Z  c #E52559",
"A  c #EC245A",
"S  c #E42C5C",
"D  c #EB2B5C",
"F  c #E92A55",
"G  c #F52355",
"H  c #FD255A",
"J  c #FD2C5D",
"K  c #F52759",
"L  c #EA325C",
"P  c #E43B5B",
"I  c #E63558",
"U  c #F4345C",
"Y  c #FD325D",
"T  c #F6395B",
"R  c #F1294D",
"E  c #DC3863",
"W  c #CB3E60",
"Q  c #EA2A64",
"!  c #FD2C64",
"~  c #F82A64",
"^  c #E53361",
"/  c #EC3364",
"(  c #E43C63",
")  c #EC3C63",
"_  c #EC3B6B",
"`  c #E63969",
"'  c #F43363",
"]  c #FD3463",
"[  c #F43B64",
"{  c #FD3B65",
"}  c #FE346A",
"|  c #F43C6B",
" . c #FD3C6B",
".. c #F3356A",
"X. c #FE3C72",
"o. c #F63A74",
"O. c #ED3A72",
"+. c #D44557",
"@. c #EB435C",
"#. c #F2445C",
"$. c #D94469",
"%. c #D84D6F",
"&. c #E44364",
"*. c #EB4364",
"=. c #EC446C",
"-. c #EB4C6C",
";. c #E6476A",
":. c #FD4266",
">. c #F4436B",
",. c #FE446B",
"<. c #F44C6C",
"1. c #FD4B6D",
"2. c #F54766",
"3. c #EA526C",
"4. c #FB526E",
"5. c #F4526C",
"6. c #EC4C72",
"7. c #E94876",
"8. c #F54372",
"9. c #FD4474",
"0. c #F34C73",
"q. c #FE4D72",
"w. c #FD457A",
"e. c #F44C7B",
"r. c #FE4C7B",
"t. c #F3457B",
"y. c #ED5474",
"u. c #ED5B7B",
"i. c #E75776",
"p. c #F35375",
"a. c #FE5373",
"s. c #F35A73",
"d. c #FE5A75",
"f. c #F4537A",
"g. c #FD537C",
"h. c #F45C7C",
"j. c #FD5C7B",
"k. c #EC637D",
"l. c #E6617B",
"z. c #F4627D",
"x. c #FE637C",
"c. c #F9677B",
"v. c #D26B7D",
"b. c #FC4B83",
"n. c #EA5684",
"m. c #FD5582",
"M. c #F35C82",
"N. c #FD5B84",
"B. c #FE5D8A",
"V. c #F65787",
"C. c #F7568E",
"Z. c #ED6B84",
"A. c #E96786",
"S. c #F46482",
"D. c #FC6484",
"F. c #F36A85",
"G. c #FD6B84",
"H. c #F4638C",
"J. c #FE638B",
"K. c #F46C8B",
"L. c #FD6B8C",
"P. c #EA748C",
"I. c #F4738C",
"U. c #FC738C",
"Y. c #FD7B8D",
"T. c #F97387",
"R. c #EB6C95",
"E. c #FE6492",
"W. c #F56C92",
"Q. c #FE6C93",
"!. c #FA6998",
"~. c #EC7896",
"^. c #F47593",
"/. c #FD7394",
"(. c #F47B93",
"). c #FC7B94",
"_. c #FE749B",
"`. c #F57C9A",
"'. c #FD7B9B",
"]. c #F4749C",
"[. c #FF7DA3",
"{. c #FB78A6",
"}. c #F671A2",
"|. c #DC6784",
" X c #D24F82",
".X c #EB8599",
"XX c #F4849C",
"oX c #FC839B",
"OX c #FD8A9D",
"+X c #F98598",
"@X c #F9909B",
"#X c #ED8CA5",
"$X c #F485A2",
"%X c #FD83A3",
"&X c #F58BA3",
"*X c #FD8BA4",
"=X c #FD84AB",
"-X c #FD8CAB",
";X c #F58CAA",
":X c #EB96A9",
">X c #FC93A5",
",X c #F495AA",
"<X c #FD93AC",
"1X c #FE9BAD",
"2X c #F799A7",
"3X c #FD8CB1",
"4X c #ED97B4",
"5X c #FF94B3",
"6X c #F49BB2",
"7X c #FD9BB4",
"8X c #FE9DBB",
"9X c #F796B8",
"0X c #EE8CB2",
"qX c #FBA3AE",
"wX c #EAA5B5",
"eX c #FDA2B5",
"rX c #FEA4BB",
"tX c #FEAABD",
"yX c #F4A6B9",
"uX c #F8B3BD",
"iX c #E9ACB4",
"pX c #DFB0B6",
"aX c #FE9AC4",
"sX c #FEACC3",
"dX c #FCA9C5",
"fX c #FDB3C4",
"gX c #FEB4CA",
"hX c #FFBBCD",
"jX c #F6B7C6",
"kX c #FEBCD3",
"lX c #FCB6D2",
"zX c #F2B3CD",
"xX c #FFBDE2",
"cX c #F9C2CC",
"vX c #FEC4D3",
"bX c #FFCAD5",
"nX c #FFC4DB",
"mX c #FFCBDB",
"MX c #F5C8D7",
"NX c #FED3DD",
"BX c #F9D7DB",
"VX c #EDCBD4",
"CX c #FFCDE3",
"ZX c #FFD5E4",
"AX c #FFDBEC",
"SX c #FBD9E6",
"DX c #F2DCEB",
"FX c #FEE5EC",
"GX c #FDE7E9",
"HX c #FEE4F3",
"JX c #FEEBF3",
"KX c #FAEAF4",
"LX c #FFF4FC",
"PX c #FDFCFD",
"IX c #F9F8F6",
"UX c #ECF0F0",
/* pixels */
"a.a.a.a.a.d.d.4.d.d.a.d.4.a.a.d.4.4.g.D $.qX'.%XoXd. .1.1.4.1.g.4.a.4.a.d.4.d.4.a.a.a.4.4.4.1.4.9.m.n.n.C._ w T G.d.c.T.Y.L.+XfXgXgXsXsXrXrX7X7X<X1X5X'.g.g.d.2.",
"g.a.a.g.d.d.d.d.d.a.d.d.4.4.4.4.1.d.q.e.gXfX`.-X*Xj.:.1.4.a.a.a.4.a.a.a.a.a.d.a.d.4.a.a.4.4.1.4.r.f.7.C.o.j q 1.d.x.c.c.G.S.2XvXhXhXgXsXrXdXrX7X5X-X<X5XK.>.a.a.",
"g.j.j.j.d.d.d.d.d.d.4.4.4.5.1.5.1.s.,.*XPXhX`.5X*Xj.,.q.4.d.a.a.a.a.d.d.d.d.d.a.d.a.d.d.d.4.a.4.a.y.%.B.} i M x.s.G.c.c.D.Z.uXNXkXlXgXgXsXsXrXrX7X-X<XsX=X0.q.x.",
"x.N.x.x.j.x.c.d.a.4.4.5.1.1.5.2.a.>.M.BXIXMX;XeX<XS.r.a.4.a.j.d.d.d.d.d.d.d.d.d.d.d.d.4.d.a.d.a.3.y.0.w.p & [ d.a.d.d.x.d.+XbXBXbXvXkXjXgXsXrXrX7X<X;XtXrXL.a.D.",
"D.D.D.D.x.x.j.z.s.5.5.5.5.5.1.2.a.>.6XPXIXAXlXgXrXH.q.a.d.a.a.d.d.d.d.x.x.d.x.x.x.d.d.d.d.d.a.d.c.q.] k $ D N.a.a.r.j.a.0.7XGXSXmXbXhXhXgXsXtXrXeX5X:X9X5X'.L.D.",
"G.G.L.G.G.D.c.z.s.5.5.5.5.2.5.#.=.H.SXIXLXLXAXCXdXL.r.g.d.x.d.d.d.x.x.x.x.x.x.x.x.x.x.x.d.d.d.d.a.q.# # L d.d.,.a.-.d.<.M.vXGXVXmXbXvXhXhXsXtXrXrX,X6X3XR.'.[.L.",
"U.U.U.U.G.G.z.z.c.5.5.3.3.2.@.@.E 7XJXKXPXPXDXlX8X].m.a.d.x.4.d.x.x.c.c.c.G.x.c.x.c.x.x.j.d.d.d.a.r.$ *.eX1X+X%X).).T./.oXNXPXBXNXmXbXkXhXfXsXtXeX<X7X3XW.!.%X`.",
").)./.Y.U.G.c.z.s.s.3.3.2.*.@.@.f.SXGXDXLXIXUXdX#X'.J.g.s.d.d.c.x.x.c.G.G.c.G.c.c.G.x.x.x.x.d.j.j.s.i.qXuXiXuX2X>X2X@XoXZ.pXIXFXZXNXbXvXhXgXsXrXyXeX5X5X=XE.[.<X",
"5X&X(.^.U.K.S.k.s.a.=.y.&.*.n N iXCXmXSXZXbXmX4XE.Q.Q.D.h.c.x.x.L.L.L.L.G.T.T.T.T.T.G.G.G.x.d.x.x.s.+XuXwX,X5X-X&X>XoXXXP.P.tXIXNXNXbXhXhXfXdXrXrX5X8X5X_.^.[.=X",
"aX5X*X).I.I.F.u.k.3.;.( P *.m 5.nXmXmXvXjXfXgX9XJ.D.J.J.D.x.x.G.U.T.U.U.Y.+XY.Y.G.U.Y.G.D.G.G.c.j.P T.eX:X2X<X$X>XoX).XX`.F..XuXSXBXMXcXjXjXfXtXiXyX7XrX-X].[.=X",
"8X8X8X*X(.I.I.A.s.i.;.P ( D m >XbXhXgXyX#X6X7XeXQ.V.N.D.N.x.G.c.Y.Y.+XY.T.Y.Y.Y.).U.U.U.U.T.G.G.k b oX1XOX1X*X*X+XoXoX)._.L.z.P.FXAXNXNXbXhXjXuXtX7X-X[.]._.%X=X",
"4X8X8X*X).^.A.A.i.i.E &.) v -.cXjXsX6X$X$X%X&X*X_.h.6.g.j.j.G.T.T.Y.Y.Y.Y.+X+XoX).).U.Y.oX).g.g * z.eX@XOX>X.X&XXX`.'.U./.L.D.F.K.H.M.n.e.6.=.` S D Z r E _.{.-X",
"9XaX;XP.A.A.k.K.i.6.n @.0 w `.hXyXeXXX/.'.Y.+XP.).D.-.8.r.d.h.U.G.T.Y.+X+XOXoXoX+X+X@XOXD.' t 2 I *XqX.XOX%X.XoXoX(.(./.T.K.L.j.a p y y y y 2 y 2 4 * 7 w.{.{.=X",
"5X5X`.i.i.y.6.p.n.6.+.I $ n dXyX1XXXZ.T.L.z.U.P.U.H.p.>.q.0.0.j.U.T.Y.+XoX+XoX-X2X>X/._ p t * t /.*X.X.XOX+XoX+X).(.P.U.F.P.G.=.g g j g g a a p y i $ ..!._.{.=X",
"3X`.K.z.s.<.*.( 0.-.I > = I.rX9XoXZ.l.F.z.k.c.Z.k.S.s.>.,.,.,.>.x.U.)..X2XrXtX7X-Xy.g y a 8 7 | >X+X.X@X+XI.).T.U.P.K.G.S.F.i.v h h h k a a i t i * q m._.W.{.=X",
"-XK.S.D.a.2.[ C ..+.v @ 5 1X;X;Xc.l.z.l.i.z.i.l.l.S.f.| .. . .' k.).&X#XtXAXmX:XG 7 y f z t 9 _.&X).oXP.I.).U.(.T.k.G.D.D.u.&.a V V M s s 0 i i 2 * ] B.V.W.].[.",
"/.^.F.S.p.0.*.) 3 O   X P.2X*XW.6.y.u.y.y.y.5.3.3.;.i.3.L L =.K..X`._.=XMXLXxXt.8 p j k y y 6.,X(.^.(.(.I.^.U.H.F.F.F.k.D.=.q k s s s i i i a 2 * D 0.m.B.J.].;X",
"/.W.L.M.p.>.) L ; * & v ).>X(.7.-.3.6.3.3.3.3.;.3.3.3.*.) 1.h././.P.%X=X=X}.!.o.h B j y 7 8.oX^.U.F.(.P.I.K.U.L.S.z.k.z.s.I s h s s s i i i y * t } r.f.m.J._.%X",
"Q.J.N.g.9.>.T U { Y J U x.F.s.&.;.-.&.&.@.@.@.@.@.@.$.@.<.N.D.F.D.(.oXM.S e A j s k t & -.(.(.j.L.F.F.T.Z.F.F.S.z.s.u.h.( q s d s s 8 i i i 1 * V } r.e.m.B._.].",
"B.N.g.8.>. .{ {  .{ ] Y U ) *.T &.P @.@.&.P +.@.P I n P 0.j.u.u.Q._.e.w $ e s d s u t ( OXOXi.L.D.S.G.H.S.S.h.z.h.u.s.p.m 9 s d d i 8 i i & * t ]  .>.r.e.B.Q.H.",
"m.f.e.9.9.,. .9.' ] } } Y T T T P I I I n n I I I I v P ;.y.y.h.K.( & * d d 3 3 a * S U.+XF.i.z.h.S.S.D.M.h.h.u.y.f.a.) 9 8 s d i i i 3 & # : f  .| 8.0.6.Q.[.A.",
"V.m.g.m.r.r.9.,.r.9.,. .{  . .T T I v v N I N 5 v N N P *.3.p.f.n r & i y 4 4 1 * b A.).).I.A.S.S.S.M.h.M.j.f.h.y.p.>.M 8 a p i 1 1 i 1 * * 3 Y D } X.=.n.5XrXXX",
"B.V.M.N.m.g.r.r.q.2.2. .,. .,.| #.T C N 6 N 6 m c M s I *.3.<./ = 8 i & @ * * = n ).&XXX<X<X%X%X(.T.S.y.f.p.6.0.6.<.L 8 t d 8 8 & 1 1 1 * t G K V } ..y.XXtXfXyX",
"Q.Q.J.M.N.N.j.g.a.q.a.1.r.,.,.,.:.,.#.C > 5 5 N 5 5 3 C *.-.( & s & & b $.y.W.*XdXdXrXyX6X*X<X-X*XoXS.y.-.0.;.-.6.*.q & a t 8 & 2 1 & * % f G R ] ] ' J.7XyXwXjX",
"jXXXV.E.E.B.B.N.D.j.s.a.a.<.2.1.=.1.Y 1.D 9 = 3 3 - c I ..F w g y ^ }.zXnXZXmXVXfXdX8XrX7X5X<X-X%X^.H.;.=.>.( &.:.v : & & 1 t 2 * 2 # # 6 T N l ! A f.;X,X,XdXfX",
"bXdX$X{.=X_.E.J.D.j.N.j.g.a.a.a.<.q.:.,.[ C - , ; - 5 I n 9 r Q R.9XCXSXkXzXgXfXjXsXsXsXdXeX8X5X'.K.D.;.*.*.I @.] t $ & & * * * * # # @ 6 f f G ! ..S.*X,X6X9XyX",
"zXnXlXzXgX0X_.!.L.G.D.D.D.j.d.g.g.q.1.1.r.,.c @ , 3 6 5 8 * E {.SXFXFXBXMXnXvXvXbXvXvXjXsXtX7X&XF.F.F.P L U I I K e S 0.m.g.6.0.<.U b P :.d d i h e.'.*X;X6X6XyX",
"jXCXHXLXJXlX3X[././.L.L.L.D.D.j.N.g.4.q.g.g.N o O , 6 , @ E aXHXIXLXLXHXAXZXbXvXhXfXsXeX7X<X%XP.l.S.D.P N R R N n t.Q.%X*X*X*X-X%X<X<X'.N.M.<XL.$ f.*XXX;X:X4XrX",
"dXnXHXPXLXnX8X%X'.'._./.U.L.L.D.J.j.j.g.j.N.T o # , o O [ 6XDXHXIXIXHXnXaX;X`..X^.`.^.^.^._.H.u.z.z.c.I N R f N _ m.Q.Q.W.W.^._..X~.J.b.^.VXJX|.9 L.XXXX&X,X7XrX",
"yXdXMXJXSXdX5X<X*X*X%XoX'.)./.U.Q.G.D.j.M.B.1.@ O O @ 3.rXlXzXSXLXHXCXaXR.E.E.H.E.E.Q.E./.Q.L.N.z.h.d.) i R 6 N 8.g.m.M.M.J.D.B.B.w.C.5XSXIXHXW =.'.).`.&X$X<X,X",
",XyXlXCXjX;X-X<X<X<X5X<X*X%XoX`././.L.L.W.E.N.@ . , P.hXdXaXlXnXaXdXaX3X}.!.E.D.J.E.E.L.Q.J.h.p.f.s.h.) 8 i s I o.r.r.r.B.N.m.g.X.'.vXLXPXIXfXD p.L.Z.P.^.^.`.&X",
"<XeXfXlX8X[._.`.5XrXrX8X5X<X*X%X'./.U.U.Q.Q.L., 5 @XuX4XaXlXaX].}.{.{.}.!.E.B.L.J.L.L.Q.U.F.u.i.0.6.f.*.8 1 c 2.'  .9.r.w.9.| 9.yXGXPXFXJXIXwXu $.;.i.A.P.L.'.*X",
"<XqXuXcXeXR.Q.[.P.XX5XsXsXtXyX,X&X$X$X[._._.W.R.8XwX9X=XrXfX_.b.E.E.E.B.B.E.B.B.G.B.B.H./.m.>.y.w.=.2.@.= $ | o.7.b.b.X.~ ..{.mXIXFXAXAXGXPXW.h Q f.h.l.I.(.(.&X",
"<XeXwXfXtX`.^._.[.%X%X$X<X<X8X8X9X9X-X[._.Q.W.%X9X5X;X8XdXW.e.b.B.C.B.B.B.B.B.J.j.B.B.]._.m.| -.o._ 2.#.= w t.V.!.b.} ! b.dXFXGXBXAXAXAXKXGXn.h D 8.S.l.F.(.XXXX",
"%X7XwXtXlXeX<X5X3X=X'.^.^.^._.'.[.[.W.H.V.n.H.=X5X=X9XfX[.} X.b.b.m.m.m.m.B.B.B.m.B.W.{.=Xn.` _ _ ) *.T w E C.}.aX{.C.}.kXSXGXDXNXDXZXZXUXMX` K D ` z.S.Z.I.(.XX",
"*X7XwXtXgXrX7X7X-X*X%X[._.Q.Q.V.B.C.n.7.t.O.H.=X-X5XfX-Xt.X.r.e.m.r.m.m.m.m.N.m.V.E.~.zXlX].7._ | L [ F e 7.}.aXIXDXlXnXBXzXkXCXNXSXZXZXIXjXb Q A S h.F.F.I.~.&X",
";X,XyXtX1X;X<X&X*X%X%X%X_.Q.Q.J.b.t.7.t.O.7.E.=X$XtX<X8.! w.9.r.r.g.r.b.m.m.m.g.E.Q.dXLXLXdXE.r./ / D B / b.R.xXPXPXGXzXyXfXdXkXvXBXCXAXLX;Xp A k b p.D.Z.I.^.XX",
"#X,XrXeX%X%X-X*X*X%X%X'.Q.Q.J.N.t._ O.O.Q _ Q.=X<X<Xf.! 9.9.9.f.r.r.r.r.r.b.b.g.b.H.0XHXHX0Xt.Q A Z B Z o.b.n.aXdXdXnXbXjXgXdXlXlXcXlXmXSXV.g A k e =.S.D.K.^.XX",
"*X;X1X*X'.[.%X`.[.'.'._.Q.Q.E.e./ / Q A D e./.%X%XM.~ X.9.X.r.8.r.w.r.r.r.r.g.r.b.m.}.aX0X7.Q g j Z e D | O.7.Q.o.e V.hXjXwXlXsXgXjXgXMXjX_ a A z e S M.S.Z.^.XX",
"%X-X-X`._.%X[.`._._._./.Q.E.b./ D D D B ' N.^..XB.A ~ } } X.>.X.9.9.9.r.r.r.r.r.t.b.E.{.C.Z ~ ~ K j e ../ D e.7.y x 7 J.hXjXyXdXfXdXgXvXrXZ k h k w b i.D.S.I.`.",
".X-X'./._._.'._./.Q.Q.L.E.J.o.S ~ Z g h 8.l./.N.f G Y ] } } X.X.X.9.9.w.9.r.r.X.e.J.Q.Q.^ B A k k p g | I / | B e x u 2 !.vXtXsXsXdXfXBX.Xp A j e g 8 / D.A.A.^.",
"oXoXW.Q.Q.Q././.Q.Q.W.L.Q.N./ A A g B / s.Z.K./ R G J ] } } } X. .9.9.X.w.w.9.8.B.!.Q.B.^ g j g g p Z ..Q ' ] q g j k * e [.vXyXrXdXtXhX^.p a h a a & F j.S.S.L.",
"'./.H.L.Q.L.L.W.Q.J.B.L.E.9.B j z e b _ u.(.L.V G G K Y ] } }  .| 9. .X.9.X.X.u.Q.Q.Q.m.Z p j p p p A S D ..U V K A D A 2 S 5XcXrXrXtXhX7.y y j x y * s <.h.D.L.",
"Q.S.M.B.J.D.J.J.J.u.J.E.m.Q g h a g ^ 6.P.OXj.t f l G K ! ] } }  .}  .9.} } e._.Q.Q.J.g.e a h a y j ' S P >.) 2.[ L D ] A 2 | tXdXyXyXsXn y u g y y 2 s *.y.M.D.",
"e.g.m.N.B.N.J.N.M.J.B.g...Z p k a F _ $.A.).*.2 f G G H H ! ] } } ' | } ! w.L._.B.L.J.r.p a u a y x K b P 0.&.=.*.*.' I [ k y f.sXfXiX;Xq y x 8 8 p V U -.3.i.f.",
") r.r.g.r.m.N.N.m.B.m./ Z Z p j d S ^ E i.A.b 4 f f l G H ! ! ! }  . .! } J._.H.B.M.J.r.8 y y y 2 y p v *.f.6.0.d.2.g.*.I ..e x W.rXcX(.t y i 8 p V U @.&.3.u.p.",
"D 9.9.q.r.r.g.g.m.w./ Z Q ~ g e s C ^ Q ;.y.v 2 d f l G G H H ! ! ! ~ ' N._.Q.N.J.D.B.9.7 2 y * w P ( -.D.L.G.j.D.5.j.a.) ;.) z Z ].vXH.& y t d Z F L I +.-.>./ ",
"D } | ,.r.q.e.r.b.S e Z } ! g w > c e Q _ 3.:.f 4 f f l k G K J ~ ! z | [._.f.L.J.M.N.| * y y 2 '.1X*X*XoXT.L.D.d.D.d.q.0.>.' U u &.tXe.* y d k V B N I n *.L s ",
"G ! | o.} X.8.u.g g Q Z O.8.v # > 9 v n ^ ;.6.B.f 2 f f 3 G G j G Q B.=XH.M.N.N.m.m.C.~ p p 7 F.FX2X).).Y.T.L.N.d.d.a.a.4.q.2.) Y X E.{.w y h M 3 > N C F C q 0 ",
"C [ ~ } ..0.w.x V A Q ..O.S - # : : q C ( ` 7.n.e.M & 4 f f K ) X. .e.E.H.J.g.a.B.e.b.` Q y ` bXBX:XU.Y.c.T.G.D.d.d.4.a.a.<.2.*.D / 8./ 7 j i q > N N C C M q q ",
"v [ G H g.) $ y v S Q o.n X . o @ % 8 C ` =.;.6.N.7.v M K Y ]  .L A p Z 7.m.m.r.b.0.E 7.Q j 6XJXGX:XY.U.G.T.c.k.d.d.a.a.4.q.1.,.| 9.~ * y s & > > 3 6 c 0 9 8 0 ",
"b Y U a.s * 8.<XI.'.'.oXY.l.+.m c 9 5 v b n ;.7.7.B.>.C F M 3 1 8 d t t A >.r.0.8.O.E O.y A.GXNXGXeXoX/.G.G.c.s.d.a.a.a.a.q.q.>./ a 2 4 t * : : ; > > 9 > > 8 s ",
"q g.*.& @ S.GXGX2X2X>X>X2X>X@X+XG.x.s.3.;.( P &.$.i.I & 2 3 3 3 3 d f y a k | $.;.^ 7.k / mXKXvXGXuX*X_.L.D.D.x.d.a.a.4.1.q.1.,.[ & # u 3 @ - # ; ; ; - - : : i ",
"v 2.$ @ oXIXUXUXuX2X>XOX@X@X+X+X+XY.Y.T.G.j.5.*.;.$.c # 2 4 2 d 1 3 3 3 2 i 8.$.E =...j 5XFXnXCXGXbXyX;X'.D.x.4.a.a.4.q.1.q.9.1.r.K 2 * # @ # # ; ; ; % - : : 3 ",
"m & = tXPXGXZXPXNXuX1X>X>XOXY.Y.T.T.G.c.j.s.5.2.>.I c , ; ; # * 3 < 2 4 1 > =.$.$.| Z H.mXVXnXZXGXJXZXkX7XW.j.a.a.a.a.1.1.,.1.,.9.,.N   o o # # # ; ; % - : 1 & ",
"< P jXLXMXGXLXhXuXuXtX1X@X+X'.).Y.U.G.x.d.4.5.2.+.@.R 3 O * % $ % # < < % = ` ` E A E sXBXMXAXZXUXPXPXHXgX%XL.x.4.4.4.q.1.1.,.,.| 1.4.,   O O # # # # ; % % & & ",
"v.nXKXBXGXBXtX<XqXqXuXeX1X<X>X.X{.;X[.Z.u.5.@.#.+.C I 5 X , @ # # o # * @ r I ` E m {.fXjXbXnXmXmXJXPXHXgX[.J.x.4.4.5.1.1.:.,.,.,.{  .:.d o o # , @ # # # & 1 < ",
"zXSXBXbXjX:X.X1XqXqXqXqX1X>X2XhXVXSXhX`.s.<.#.T @.@.N , # o @ o O # O o % @ = n E n.wXuXyXsXlXyXkXZXKXAXaXH.f.g.4.1.1.1.1.1. .,.{  .{ Y T > @ o < , X , 3 # o v ",
"NXNXfX,X@X@X1X1X2X2X2X>X1X&X#XNXPXPXkX].f.q.2.@.R m 6 N O + + .   . . . o @ = , w l.uXjXwXrXsXsXsXsXlXkX8X_.f.*.1.q.1.,.,.:.:.{ { { Y Y Y Y 3 o O # % @ < O m sX",
"hXwX&XXX).OX>X>X2X2X>X>X<X.X.XfXCXaX~.n.` L P m I 5 5 > . o X +.v.:X.X+.= X o ; e m ~.7XeXsX7XdX8X5X9X8XaX3X/.0.,.,.,.,.,.{ [ :.{ { { Y Y Y R 3   ; # # # m fXAX",
"%XA.P.'.*XoXXX>X>X>X>X*XOX*X*X*XE.b.` O.S b m v , 5 X = &XjXvXJXIXIXAXhXyX/.P X $ 7 Z _.rX6X7X8X;X-X3X3X;X5X-X[.8.>.,.,.,.{ Y :.{ ] Y Y H Y Y H % @ O   $.vXNXjX",
"D.L.U.(.(.oXXXXX+XOXoXoX+X*X%XA.o.o.O.` E ^ b 9 v X X |.AXHXKXDXZXzXVXmXuXyX5XH.v a 7 E XXrX5X5X[.'.%X-X*X$X-X<X/.j.) [ { :.:.Y { Y Y J Y J J ] f #   %.kXCX7X(.",
"D.T.U.(.(.(.^.oX+X(.oX`.`.oXS.E O.O._ S b S b 9 v X %.jXzXVXAXZXfXhXbXbXhXwX0X5XoXf.b $ $.3X5X$X_.!.^.%X%X[.%X$X<X'.h.[ T Y { T Y Y J J Y J H J H # 3.vXgX`.h.i.",
"F.k.Z.I.(.).^.).+X(.+X(.)./.6._ 7._ ` _ D b v b $ X 1XMXwXkXHXZXtXfXuXjXbXfX<X%X2X*XW.Q r i.8X-XE._.'.'.Q._.%X&XXX*X%Xj.[ T Y Y Y J Y Y J H H l 4 ( dX8Xu.>.<.D.",
"D.D.D.G.K./.^.^././.K.'._.e.^ } ;...Q ~ Q Z v 9 X ~.mXsXlXHXPXDXfXlXdXgXhXhXfX#X+X%X&X%X7.E *XrX[._.!.Q.'././.'.'./.oXoXL.' H ! J J Y Y G K J z k H } 8.6.y.p.S.",
"M.M.H.D.K.K.F.I.I.F.F.^.M.&.Q ../ / Q Q Z j p $ $.zXsXyXmXLXIXDXgXdXdXrXuXfXfXrX/.*X_.[.%XQ.B.M.Q._._.Q._.Q.L.L.Q.K._.%X'.D. .G H J K K Y H H G H u f ' 0.p.f.p.",
"u.h.h.S.D.K.L.L.T.K./.K.;.S / ..Q / Q Q j k t : 4XlX4XiXSXLXHXkXsXrX7XdXtXtXsXsX<Xe...g.r.f.g.! E E ;.7.7.f.N.J.E.Q.W.F./._.J.=.l l ] J G l H V l f f H [ ;.-.q.",
"f.s.p.0.0.p.g.a.h.h.j.p.n n Q ' A Z A b Q p = h.jXwXvXAXJXnXdXzXrX7X7XrXyXyXrXrX;XW.o.~ } X.X.9.Q b S b b b ^ ) 7.f.V.V.J././.L.d.k u H H H l l l l u z ! p.y.0.",
",.,.{ [ [ ] [ { [ { ,.[ D ' ~ U D D B V a $ W tXvXNXGXJXZX;X5X6X5X5X<X5X6X7X5X<X[.5X{.8.! } X.f.X.F Z F D F C b B S / 8.t.f.J.{.XX/.| u z H l l f l u u f [ <.*.",
"U U { ] ] { ] ] ] { ] ]  .,. .{ ..,.U ] a w *XFXmXFXGXNX;X=X5X4X-X<X<X-X7X8X;X{.[.{.5X=Xt.! | } X.' g s B M B M D g g V Z ^ ;.m.K.aXrXB.K j l u z f u u f Y | ] ",
"{ { { :.{ { { Y { { { {  .,.{ { ] } [  .J ] 3XFXmXBXFXsXW.3X;X=X&X%X-X=X5X8X{.].{.=X=X3X-Xf.K } 9.} D s 0 q s v v M V V F Z b v Q 7.R.5X_.) ! l l 4 4 Y r.r.{ ! ",
"{ { { { :.:.:.,.,.{ ,.,.{ {  .9.} { >.T } } %.yXFXGXvX].{.;X#X[.-X*X%X%X;X5X=X[.0X}.!.H.n.M.g.H '  .U q w 0 q 0 5 c M v q F L D Q Q p t.L.E B D d k d.OX+X3.U { ",
" .,. .,.,.,.,.,.,.,.9.,.,. .,. .:.{ Y { {  .X.X.cXHX:X_.{.'.'.Q.L.J.N.N.g.g.g.N.,.:.:.Y T [ 1.g.H J { D r - > - > > 0 v q g B Z Q Z F b >.r.Z w m I.>X@XU.Y | { ",
",. .,.,.,.9.9.,.q.,.,.,.,.,.,.,.:.,.:.{ T ,.r.Q A.3XW.M.B.M.M.r.q.8.>.,.>.|  .| ,.:.:.{ { :.:.1.N.L ~ } h $ - ; : 1 i i q v B B j j A g Q ~ g h h.*XqXqXL.Y :.{ ",
",.,.,.,.,.,.,.1.1.1.q.,.,.1.,.,.,.,.:.:.1.,.} X.A r.w.r.a.g.a.9.:.:.,.:.,.,.,.,.,.:.:.,.,.:.2.2.{.b.~ ! H > @ # % ; : : > & - : e b ^ S b b F | '.OXqXtXN.Y 2. .",
",.1.,.1.1.q.q.1.q.q.q.q.q.,.q.1.,.,.2.2.,.{ X.} ~ w.} 9.,.>.:.{ 1.:.1.1.1.,.,.1.1.1.1.:.,.1.1.:.R.}.C.~ ] G % # , , @ X @ v L <.(.%X-X%X%X'.'.[.XX+XeXuXg.Y <.:.",
"q.,.q.1.q.q.q.q.q.r.q.q.q.q.q.1.,.,.1.:.{ ,.! y &.r.} ,.,.:.2.1.:.1.:.:.2.1.2.2.1.1.1.1.1.1.,.,.n.!.}.b.} K 3 o   @ > n 3.c.oX>XeXsXtXrXrXeX1X<XXX'.tXuX,.{ 4.:.",
"q.q.1.1.q.a.a.q.a.a.a.a.a.4.a.1.1.1.:.1.g.K * Z .XL.,.,.1.1.2.4.4.4.4.4.4.4.4.4.1.q.1.1.4.1.1.:.C.C.W.H.e.' N > v 2.x.Y.>X>X+X@X5XrX7X6X1X5X5X;X*X%XtX<X{ ,.1.1.",
"a.4.q.a.a.a.a.a.a.a.a.a.a.a.q.q.r.a.:.1.q.9 m '.>Xx.{ ,.1.a.4.4.q.q.a.4.4.a.a.a.1.q.a.4.1.q.1.:.b.N.n.h.N.g.2.x.Y.Y.U.T.Y.Y.).*XsXdXdXrX8X8X5X3X-X=X7X'.' ,.1.4.",
"a.q.a.a.a.a.a.a.d.a.a.a.a.q.a.4.a.<.4.1.[ p.^.<XoXr.{ r.<.a.1.1.,.q.1.q.1.a.q.4.q.a.a.<.<.q.1.1.0.g.g.e.0.h.x.d.d.G.G.F.Y.(.+X*XgXyXyXrXrXeX5X5X3X[.<XK.[ r.:.s."
};
